<svg width="20" height="20" xmlns="http://www.w3.org/2000/svg" xml:space="preserve" version="1.1">

 <g>
  <title>Layer 1</title>
  <g stroke="null" id="svg_1">
   <path stroke="null" id="svg_2" d="m18.27732,7.16887l-3.20366,0l-1.91745,-1.93644c0,0 -0.00949,-0.00949 -0.01424,-0.00949l-0.00949,-0.00949l0,0c-0.28477,-0.28477 -0.66921,-0.46512 -1.10586,-0.46512l-3.98678,0c-0.46512,0 -0.87804,0.19934 -1.16756,0.51733l0,0.00475l-1.87474,1.89847l-3.27486,0c-0.88279,0 -1.59471,0.69294 -1.59471,1.57573l0,9.59201c0,0.88279 0.71193,1.59946 1.59471,1.59946l16.55464,0c0.87804,0 1.59471,-0.71667 1.59471,-1.59946l0,-9.59201c0,-0.88279 -0.71667,-1.57573 -1.59471,-1.57573zm-8.27732,10.37038c-2.4158,0 -4.38546,-1.97441 -4.38546,-4.39495c0,-2.42529 1.96966,-4.39495 4.38546,-4.39495c2.42055,0 4.38546,1.96966 4.38546,4.39495c0,2.42055 -1.96491,4.39495 -4.38546,4.39495zm7.97831,-7.83118c-0.36545,0 -0.66446,-0.29901 -0.66446,-0.66921s0.29901,-0.66921 0.66446,-0.66921c0.36545,0 0.66446,0.29901 0.66446,0.66921s-0.29901,0.66921 -0.66446,0.66921z"/>
   <path stroke="null" id="svg_3" d="m10,9.82198c-1.83202,0 -3.31283,1.48555 -3.31283,3.32232c0,1.83202 1.4808,3.32232 3.31283,3.32232c1.82727,0 3.31283,-1.48555 3.31283,-3.32232c0,-1.83677 -1.48555,-3.32232 -3.31283,-3.32232z"/>
  </g>
 </g>
</svg>