<svg width="20" height="20" xmlns="http://www.w3.org/2000/svg">

 <g>
  <title>Layer 1</title>
  <g stroke="null" id="svg_3">
   <path stroke="null" id="svg_1" d="m18.37297,12.51244c-0.27232,0 -0.49303,0.22071 -0.49303,0.49303l0,4.37753c-0.00096,0.81657 -0.6625,1.47831 -1.47908,1.47908l-13.83382,0c-0.81657,-0.00077 -1.47812,-0.6625 -1.47908,-1.47908l0,-12.84777c0.00096,-0.81638 0.6625,-1.47812 1.47908,-1.47908l4.37753,0c0.27232,0 0.49303,-0.22071 0.49303,-0.49303c0,-0.27213 -0.22071,-0.49303 -0.49303,-0.49303l-4.37753,0c-1.36083,0.00154 -2.46359,1.1043 -2.46513,2.46513l0,12.84796c0.00154,1.36083 1.1043,2.46359 2.46513,2.46513l13.83382,0c1.36083,-0.00154 2.46359,-1.1043 2.46513,-2.46513l0,-4.37773c0,-0.27232 -0.22071,-0.49303 -0.49303,-0.49303zm0,0"/>
   <path stroke="null" id="svg_2" d="m18.67072,0.80152c-0.86646,-0.86646 -2.2712,-0.86646 -3.13765,0l-8.7959,8.7959c-0.06028,0.06028 -0.10381,0.135 -0.12653,0.21705l-1.15669,4.1759c-0.04757,0.17121 0.00077,0.35455 0.12634,0.48032c0.12576,0.12557 0.3091,0.17391 0.48032,0.12653l4.1759,-1.15688c0.08204,-0.02273 0.15677,-0.06625 0.21705,-0.12653l8.79571,-8.79609c0.86511,-0.86703 0.86511,-2.27062 0,-3.13765l-0.57854,-0.57854zm-10.85929,9.11637l7.19876,-7.19896l2.32165,2.32165l-7.19896,7.19896l-2.32146,-2.32165zm-0.46375,0.93059l1.85482,1.85501l-2.56566,0.71084l0.71084,-2.56586zm11.20441,-7.02794l-0.52288,0.52288l-2.32185,-2.32185l0.52307,-0.52288c0.48128,-0.48128 1.26165,-0.48128 1.74293,0l0.57873,0.57854c0.48051,0.48186 0.48051,1.26165 0,1.74331zm0,0"/>
  </g>
 </g>
</svg>