<svg width="20" height="20" xmlns="http://www.w3.org/2000/svg">

 <g>
  <title>Layer 1</title>
  <path stroke="null" id="svg_1" d="m19.44934,4.23261c0.34999,-0.34999 0.55066,-0.83449 0.55066,-1.32939s-0.20067,-0.9794 -0.55066,-1.32939l-1.02319,-1.02319c-0.34999,-0.34999 -0.83449,-0.55066 -1.32939,-0.55066s-0.9794,0.20067 -1.32939,0.55066l-13.45798,13.45798l-2.30941,5.27879l0,0.71258l12.90323,0c0.53349,0 0.96774,-0.43426 0.96774,-0.96774s-0.43426,-0.96774 -0.96774,-0.96774l-2.25806,0c-0.17799,0 -0.32258,-0.14459 -0.32258,-0.32258s0.14459,-0.32258 0.32258,-0.32258l7.41935,0l0,-0.64516l-7.41935,0c-0.53349,0 -0.96774,0.43426 -0.96774,0.96774s0.43426,0.96774 0.96774,0.96774l2.25806,0c0.17799,0 0.32258,0.14459 0.32258,0.32258s-0.14459,0.32258 -0.32258,0.32258l-10.71588,0l3.80434,-1.66425l13.45766,-13.45798zm-3.61517,2.70287l-0.51159,0.51159l-2.76966,-2.76966l0.51159,-0.51159l2.76966,2.76966zm-2.31351,-3.22581l0.51159,-0.51159l2.76966,2.76966l-0.51159,0.51159l-2.76966,-2.76966zm-0.75101,2.09677l-9.05998,9.05998l-0.67288,-0.67288l9.05998,-9.05998l0.67288,0.67288zm0.45615,0.45615l0.51159,0.51159l-9.05998,9.05998l-0.51159,-0.51159l9.05998,-9.05998zm0.96774,0.96774l0.67288,0.67288l-9.05998,9.05998l-0.67288,-0.67288l9.05998,-9.05998zm2.02999,-6.22354c0.22996,-0.22996 0.54814,-0.36164 0.87324,-0.36164s0.64327,0.13168 0.87324,0.36164l1.02319,1.02319c0.22996,0.22996 0.36164,0.54814 0.36164,0.87324s-0.13168,0.64327 -0.36164,0.87324l-1.73513,1.73513l-2.76966,-2.76966l1.73513,-1.73513zm-13.53673,13.74905l2.55733,2.55733l-2.50709,1.09674l-1.14699,-1.14699l1.09674,-2.50709zm-1.37459,3.14154l0.79007,0.79007l-1.40483,0.61445l0.61476,-1.40452zm0,0"/>
 </g>
</svg>