<svg width="20" height="20" xmlns="http://www.w3.org/2000/svg" xml:space="preserve" version="1.1">

 <g>
  <title>Layer 1</title>
  <g stroke="null" id="svg_22">
   <g stroke="null" id="svg_1">
    <g stroke="null" id="svg_2">
     <path stroke="null" id="svg_3" d="m11.29725,11.35605c-0.22802,-0.22802 -0.59773,-0.22802 -0.82571,0l-1.35598,1.35594l-1.25158,-1.25158l-0.57605,-0.57605l1.35598,-1.35598c0.22802,-0.22798 0.22802,-0.59769 0,-0.82571c-0.22802,-0.22798 -0.59769,-0.22802 -0.82571,0l-1.35598,1.35598l-0.47161,-0.47161c-0.00027,-0.00027 -0.00062,-0.00054 -0.0009,-0.00082l-0.44133,-0.44133c-0.22798,-0.22798 -0.59769,-0.22802 -0.82571,0.00004c-0.22802,0.22802 -0.22802,0.59769 0,0.82571l0.02931,0.02931l-1.79816,1.79824c-1.30639,1.30639 -1.43282,3.35231 -0.38006,4.80233l-2.36748,2.36744c-0.22802,0.22802 -0.22802,0.59769 0,0.82571c0.11401,0.11405 0.26336,0.17104 0.41284,0.17104c0.14939,0 0.29886,-0.05702 0.41284,-0.17104l2.36705,-2.36697c0.62949,0.45853 1.38506,0.70629 2.17881,0.70629c0.00008,0 0,0 0.00004,0c0.9911,0 1.92304,-0.38602 2.62384,-1.08682l1.79836,-1.79828l0.02935,0.02931c0.11401,0.11401 0.2634,0.171 0.41284,0.171s0.29886,-0.05699 0.41287,-0.171c0.22802,-0.22802 0.22802,-0.59769 0,-0.82571l-0.9138,-0.9138l1.35594,-1.35594c0.22802,-0.22802 0.22802,-0.59769 0,-0.82571zm-3.92127,4.86442c-0.48029,0.48029 -1.11889,0.74482 -1.79813,0.74482c-0.67931,-0.00004 -1.31795,-0.26457 -1.79832,-0.7449c-0.99153,-0.99157 -0.99153,-2.60492 0,-3.59649l1.7982,-1.7982l1.39008,1.39004l1.73483,1.73487c0.00008,0.00012 0.00019,0.00019 0.00031,0.00027l0.4713,0.47134l-1.79828,1.79824z"/>
    </g>
   </g>
   <g stroke="null" id="svg_4">
    <g stroke="null" id="svg_5">
     <path stroke="null" id="svg_6" d="m19.79369,0.20631c-0.22802,-0.22802 -0.59769,-0.22802 -0.82571,-0.00004l-2.36705,2.36697c-0.62953,-0.45853 -1.3851,-0.70625 -2.17885,-0.70625c-0.99114,0 -1.92307,0.38602 -2.62384,1.08686l-1.79828,1.79824l-0.02935,-0.02935c-0.22798,-0.22802 -0.59769,-0.22802 -0.82571,0c-0.22802,0.22802 -0.22802,0.59769 0,0.82571l5.3066,5.30656c0.11401,0.11401 0.26344,0.17104 0.41284,0.17104c0.14943,0 0.29886,-0.05699 0.41287,-0.17104c0.22802,-0.22802 0.22802,-0.59769 0,-0.82571l-0.02935,-0.02935l1.79824,-1.79813c1.30639,-1.30635 1.43282,-3.35227 0.3801,-4.80237l2.36752,-2.36744c0.22802,-0.22802 0.22802,-0.59769 -0.00004,-0.82571zm-3.57329,7.16977l-1.79824,1.79813l-3.59645,-3.59645l1.79824,-1.79824c0.48025,-0.48029 1.11885,-0.74482 1.79813,-0.74482c0.67931,0 1.31795,0.26453 1.79828,0.74482c0.99153,0.99165 0.99153,2.60503 0.00004,3.59656z"/>
    </g>
   </g>
   <g stroke="null" id="svg_7"/>
   <g stroke="null" id="svg_8"/>
   <g stroke="null" id="svg_9"/>
   <g stroke="null" id="svg_10"/>
   <g stroke="null" id="svg_11"/>
   <g stroke="null" id="svg_12"/>
   <g stroke="null" id="svg_13"/>
   <g stroke="null" id="svg_14"/>
   <g stroke="null" id="svg_15"/>
   <g stroke="null" id="svg_16"/>
   <g stroke="null" id="svg_17"/>
   <g stroke="null" id="svg_18"/>
   <g stroke="null" id="svg_19"/>
   <g stroke="null" id="svg_20"/>
   <g stroke="null" id="svg_21"/>
  </g>
 </g>
</svg>