<svg width="20" height="20" xmlns="http://www.w3.org/2000/svg" version="1.1" xml:space="preserve">
 <g>
  <title>Layer 1</title>
  <g id="svg_7"/>
  <g id="svg_8"/>
  <g id="svg_9"/>
  <g id="svg_10"/>
  <g id="svg_11"/>
  <g id="svg_12"/>
  <g id="svg_13"/>
  <g id="svg_14"/>
  <g id="svg_15"/>
  <g id="svg_16"/>
  <g id="svg_17"/>
  <g id="svg_18"/>
  <g id="svg_19"/>
  <g id="svg_20"/>
  <g id="svg_21"/>
  <g stroke="null" id="svg_22">
   <g stroke="null" id="svg_1">
    <g stroke="null" id="svg_2">
     <path stroke="null" d="m7.697,6.64998c-0.00035,-0.00035 -0.0008,-0.0007 -0.00114,-0.00104l-0.56414,-0.56414c-0.29143,-0.29143 -0.76401,-0.29147 -1.05549,0.00005c-0.29147,0.29147 -0.29147,0.76401 0,1.05549l0.03747,0.03747l-2.29856,2.29866c-1.66994,1.66994 -1.83155,4.2852 -0.48582,6.13874l-3.0263,3.02625c-0.29147,0.29147 -0.29147,0.76401 0,1.05549c0.14574,0.14579 0.33665,0.21863 0.52772,0.21863c0.19097,0 0.38203,-0.07289 0.52772,-0.21863l3.02576,-3.02566c0.80467,0.58613 1.77049,0.90284 2.78513,0.90284c0.0001,0 0,0 0.00005,0c1.26691,0 2.45818,-0.49344 3.354,-1.38926l2.29881,-2.29871l0.03752,0.03747c0.14574,0.14574 0.3367,0.21858 0.52772,0.21858s0.38203,-0.07284 0.52777,-0.21858c0.29147,-0.29147 0.29147,-0.76401 0,-1.05549l-6.2182,-6.21815zm1.77089,8.47939c-0.61395,0.61395 -1.43026,0.9521 -2.29851,0.9521c-0.86835,-0.00005 -1.68471,-0.3382 -2.29876,-0.95219c-1.26745,-1.2675 -1.26745,-3.32982 0,-4.59732l2.29861,-2.29861l1.77691,1.77686l2.21761,2.21766c0.0001,0.00015 0.00025,0.00025 0.0004,0.00035l0.60245,0.6025l-2.29871,2.29866z" id="svg_3"/>
    </g>
   </g>
   <g stroke="null" id="svg_4">
    <g stroke="null" id="svg_5">
     <path stroke="null" d="m19.69695,0.30304c-0.29147,-0.29147 -0.76401,-0.29147 -1.05549,-0.00005l-3.02576,3.02566c-0.80472,-0.58613 -1.77054,-0.90279 -2.78518,-0.90279c-1.26696,0 -2.45823,0.49344 -3.354,1.38931l-2.29871,2.29866l-0.03752,-0.03752c-0.29143,-0.29147 -0.76401,-0.29147 -1.05549,0c-0.29147,0.29147 -0.29147,0.76401 0,1.05549l6.78334,6.78329c0.14574,0.14574 0.33675,0.21863 0.52772,0.21863c0.19102,0 0.38203,-0.07284 0.52777,-0.21863c0.29147,-0.29147 0.29147,-0.76401 0,-1.05549l-0.03752,-0.03752l2.29866,-2.29851c1.66994,-1.66989 1.83155,-4.28515 0.48587,-6.13879l3.02635,-3.02625c0.29147,-0.29147 0.29147,-0.76401 -0.00005,-1.05549zm-4.56767,9.16499l-2.29866,2.29851l-4.59727,-4.59727l2.29866,-2.29866c0.6139,-0.61395 1.43021,-0.9521 2.29851,-0.9521c0.86835,0 1.68471,0.33815 2.29871,0.9521c1.26745,1.2676 1.26745,3.32997 0.00005,4.59742z" id="svg_6"/>
    </g>
   </g>
  </g>
 </g>

</svg>