<svg width="20" height="20" xmlns="http://www.w3.org/2000/svg" xml:space="preserve" version="1.1">

 <g>
  <title>Layer 1</title>
  <g stroke="null" id="svg_1">
   <g stroke="null" id="svg_2">
    <g stroke="null" id="svg_3">
     <path stroke="null" id="svg_4" d="m18.99987,6.52207c-0.38492,-0.40325 -0.91648,-0.64154 -1.52136,-0.64154l-3.04273,0l0,-0.03666c0,-0.45824 -0.1833,-0.89815 -0.4949,-1.19143c-0.3116,-0.3116 -0.73319,-0.4949 -1.19143,-0.4949l-5.4989,0c-0.47657,0 -0.89815,0.1833 -1.20976,0.4949c-0.3116,0.3116 -0.4949,0.73319 -0.4949,1.19143l0,0.03666l-3.0244,0c-0.60488,0 -1.13644,0.23829 -1.52136,0.64154c-0.38492,0.38492 -0.64154,0.93481 -0.64154,1.52136l0,9.12818c0,0.60488 0.23829,1.13644 0.64154,1.52136c0.38492,0.38492 0.93481,0.64154 1.52136,0.64154l14.95701,0c0.60488,0 1.13644,-0.23829 1.52136,-0.64154c0.38492,-0.38492 0.64154,-0.93481 0.64154,-1.52136l0,-9.12818c0,-0.60488 -0.23829,-1.13644 -0.64154,-1.52136zm-0.3116,10.64954l-0.01833,0c0,0.32993 -0.12831,0.62321 -0.34826,0.84316s-0.51323,0.34826 -0.84316,0.34826l-14.95701,0c-0.32993,0 -0.62321,-0.12831 -0.84316,-0.34826c-0.21996,-0.21996 -0.34826,-0.51323 -0.34826,-0.84316l0,-9.12818c0,-0.32993 0.12831,-0.62321 0.34826,-0.84316s0.51323,-0.34826 0.84316,-0.34826l3.53763,0c0.27495,0 0.4949,-0.21996 0.4949,-0.4949l0,-0.53156c0,-0.20163 0.07332,-0.38492 0.20163,-0.51323s0.3116,-0.20163 0.51323,-0.20163l5.48057,0c0.20163,0 0.38492,0.07332 0.51323,0.20163c0.12831,0.12831 0.20163,0.3116 0.20163,0.51323l0,0.53156c0,0.27495 0.21996,0.4949 0.4949,0.4949l3.53763,0c0.32993,0 0.62321,0.12831 0.84316,0.34826s0.34826,0.51323 0.34826,0.84316l0,9.12818z"/>
     <path stroke="null" id="svg_5" d="m10,8.09843c-1.24642,0 -2.38286,0.51323 -3.18936,1.31974c-0.82484,0.82484 -1.31974,1.94295 -1.31974,3.18936s0.51323,2.38286 1.31974,3.18936c0.82484,0.82484 1.94295,1.31974 3.18936,1.31974s2.38286,-0.51323 3.18936,-1.31974c0.82484,-0.82484 1.31974,-1.94295 1.31974,-3.18936s-0.51323,-2.38286 -1.31974,-3.18936c-0.80651,-0.80651 -1.94295,-1.31974 -3.18936,-1.31974zm2.49284,7.02026c-0.64154,0.62321 -1.52136,1.02646 -2.49284,1.02646s-1.8513,-0.40325 -2.49284,-1.02646c-0.64154,-0.64154 -1.02646,-1.52136 -1.02646,-2.49284c0,-0.97147 0.40325,-1.8513 1.02646,-2.49284c0.64154,-0.64154 1.52136,-1.02646 2.49284,-1.02646s1.8513,0.40325 2.49284,1.02646c0.64154,0.64154 1.02646,1.52136 1.02646,2.49284c0.01833,0.97147 -0.38492,1.8513 -1.02646,2.49284z"/>
     <circle stroke="null" id="svg_6" r="0.89815" cy="8.97825" cx="16.52536"/>
    </g>
   </g>
  </g>
  <g id="svg_7"/>
  <g id="svg_8"/>
  <g id="svg_9"/>
  <g id="svg_10"/>
  <g id="svg_11"/>
  <g id="svg_12"/>
  <g id="svg_13"/>
  <g id="svg_14"/>
  <g id="svg_15"/>
  <g id="svg_16"/>
  <g id="svg_17"/>
  <g id="svg_18"/>
  <g id="svg_19"/>
  <g id="svg_20"/>
  <g id="svg_21"/>
 </g>
</svg>