<?xml version="1.0" encoding="UTF-8"?><svg id="uuid-31147020-1960-4179-9904-1384fdf64072" xmlns="http://www.w3.org/2000/svg" viewBox="0 0 512 512"><g id="uuid-a25c4c38-be12-4b79-9602-7af56df0816e"><path d="m103.56,409.69c1.02-1.87,1.66-4.11,3.1-5.55,40.91-41.03,81.88-81.99,122.91-122.89,2.3-2.29,4.94-4.46,7.82-5.89,5.17-2.56,11.71-.75,15.27,3.6,4.02,4.91,4.49,11.09,1,16.12-1.54,2.21-3.38,4.24-5.29,6.15-40.67,40.71-81.37,81.4-122.11,122.04-1.49,1.48-3.46,2.49-5.2,3.71.34.57.69,1.15,1.03,1.72,1.8.1,3.59.29,5.39.29,20.22.02,40.45-.05,60.67.07,6.85.04,12.29,4.76,13.16,10.84,1.03,7.23-2.59,13.36-9.33,15.46-1.62.5-3.42.6-5.13.6-32.47.03-64.95.04-97.42.02-9.68,0-15.37-5.37-15.4-14.88-.08-32.27-.13-64.53.03-96.8.06-12.75,10.51-19.42,20.69-13.55,4.66,2.69,6.47,6.78,6.44,12.11-.11,20.41-.05,40.82-.03,61.23,0,1.28.12,2.56.18,3.85.75.58,1.5,1.16,2.25,1.74Z"/><path d="m122.41,288.48h267.18c32.26,0,48.47-13.13,48.47-39.15V95.15c0-26.01-16.21-39.15-48.47-39.15H122.41c-32.11,0-48.47,13.01-48.47,39.15v154.19c0,26.14,16.36,39.15,48.47,39.15Zm.46-20.33c-15.44,0-24.08-6.69-24.08-19.83V96.16c0-13.13,8.64-19.83,24.08-19.83h266.26c15.28,0,24.08,6.69,24.08,19.83v152.17c0,13.13-8.8,19.83-24.08,19.83H122.87Z" fill="#040000" stroke="#231815" stroke-miterlimit="10" stroke-width="3"/></g></svg>