<?xml version="1.0" encoding="UTF-8"?><svg id="uuid-216078a1-741f-4c8e-a50e-cad3d62ec530" xmlns="http://www.w3.org/2000/svg" viewBox="0 0 512 512"><g id="uuid-cfc8edaf-c90f-430b-abd1-c7600137cad0"><path d="m112.06,138.82c0,40.64,0,81.27,0,121.91,0,17.85-.33,35.71.11,53.55.29,11.84-3.16,21.19-16.18,20.87-12.07-.29-15.03-9.53-15-20.57.2-66.3.1-132.61.1-198.91,0-10.67,0-21.33,0-33.81,5.41-.45,10.28-1.21,15.14-1.2,72.34.1,144.67.31,217.01.5,2.55,0,6.04-.97,7.47.32,5.19,4.66,13.32,10.03,13.41,15.26.09,5.02-7.56,12.59-13.37,14.67-7.24,2.59-16.08.74-24.23.74-52.46.01-104.92,0-161.13,0,5.4,5.76,8.8,9.6,12.41,13.22,89.32,89.46,178.67,178.89,268.02,268.33,2.16,2.16,4.29,4.36,6.51,6.46,8.4,7.92,12.79,17.3,3.35,26.4-9.45,9.11-18.36,3.84-26.41-4.23-91.06-91.32-182.24-182.53-273.31-273.84-3.59-3.6-6.41-7.96-9.59-11.97-1.44.76-2.87,1.53-4.31,2.29Z"/></g></svg>