<?xml version="1.0" encoding="UTF-8"?><svg id="uuid-9d1fa3b2-40b7-434f-b121-7ffdb860c1ea" xmlns="http://www.w3.org/2000/svg" viewBox="0 0 512 512"><g id="uuid-b836ef60-b93f-4afb-8980-97913a7e3ed1"><path d="m431,255.56c0,4.89-.15,9.77-.52,14.65-.17,2.3-.38,4.59-.64,6.88-.13,1.14-.26,2.28-.41,3.41.43-3.25-.14.75-.25,1.44-1.53,9.58-3.81,19.03-6.81,28.26-1.45,4.45-3.08,8.84-4.83,13.18,1.15-2.85-1.3,2.94-1.67,3.74-1.02,2.21-2.08,4.4-3.18,6.57-4.29,8.45-9.22,16.57-14.71,24.29-1.27,1.79-2.58,3.56-3.92,5.3,1.84-2.39-2.03,2.48-2.59,3.14-3.09,3.71-6.32,7.3-9.68,10.77-3.05,3.15-6.22,6.2-9.48,9.14-1.63,1.47-3.29,2.91-4.97,4.32-.67.57-1.35,1.13-2.03,1.68-.43.35-4.73,3.71-2.14,1.74-7.37,5.61-15.13,10.69-23.23,15.18-3.87,2.15-7.82,4.16-11.84,6.03-1.01.47-2.02.93-3.03,1.38-.66.3-3.39,1.46-.71.34-2.47,1.03-4.97,2-7.48,2.93-8.88,3.26-18.01,5.85-27.28,7.74-2.23.46-4.47.87-6.72,1.25-1.35.23-2.71.43-4.07.63.61-.09,2.88-.34-.11,0-5.07.59-10.14,1.03-15.24,1.23-9.76.4-19.55.04-29.25-1.07-.4-.05-4.91-.69-1.46-.17-.9-.14-1.8-.27-2.71-.41-2.24-.36-4.48-.76-6.71-1.2-4.87-.96-9.7-2.12-14.47-3.46-4.31-1.21-8.57-2.58-12.78-4.1-2.1-.76-4.16-1.58-6.24-2.38-4.11-1.57,2.69,1.24-1.33-.54-1.22-.54-2.43-1.07-3.64-1.63-8.42-3.88-16.56-8.37-24.33-13.43-3.87-2.52-7.64-5.18-11.32-7.98-2.04-1.55,2.66,2.2-.6-.49-.85-.7-1.71-1.38-2.56-2.08-2.03-1.68-4.03-3.4-5.99-5.16-6.86-6.16-13.28-12.81-19.18-19.89-.7-.84-1.4-1.69-2.09-2.55.08.1-2.59-3.29-1.28-1.59s-1.3-1.74-1.22-1.64c-.79-1.06-1.56-2.13-2.32-3.21-2.8-3.95-5.46-8.01-7.96-12.17-2.28-3.79-4.42-7.66-6.43-11.6-1.01-1.98-1.98-3.97-2.92-5.98-.38-.8-.75-1.61-1.11-2.42-.36-.81-.72-1.62-1.08-2.44.64,1.54.62,1.5-.04-.11-3.49-8.77-6.46-17.7-8.68-26.87-1.07-4.42-1.98-8.87-2.73-13.36-.15-.9-.28-1.81-.43-2.71-.75-4.48.3,3.06-.21-1.47-.31-2.75-.61-5.51-.82-8.27-.75-9.76-.76-19.58,0-29.34.18-2.29.4-4.59.66-6.87-.01.12.58-4.34.25-2.09s.35-2.19.33-2.07c.79-4.92,1.77-9.81,2.95-14.66,2.22-9.14,5.18-18.06,8.69-26.78-1.09,2.7.01-.04.31-.71.45-1.01.9-2.03,1.36-3.03.93-2.01,1.89-4,2.88-5.98,2.18-4.34,4.53-8.59,7.04-12.75,2.27-3.77,4.68-7.46,7.21-11.06,1.26-1.8,2.57-3.57,3.88-5.33,2.6-3.49-1.88,2.23.89-1.13.84-1.02,1.65-2.05,2.5-3.06,5.9-7.08,12.31-13.74,19.16-19.91,3.27-2.94,6.63-5.77,10.09-8.48-2.59,2.03.87-.64,1.16-.85.71-.52,1.42-1.04,2.13-1.56,2.14-1.54,4.32-3.04,6.53-4.49,7.76-5.11,15.88-9.65,24.3-13.58,1.21-.56,2.43-1.1,3.64-1.65,3.89-1.78-1.69.67.72-.32,2.06-.85,4.14-1.66,6.23-2.44,4.63-1.72,9.32-3.25,14.06-4.6s9.19-2.43,13.84-3.38c2.23-.46,4.47-.87,6.72-1.25.9-.15,1.81-.28,2.71-.43,1.78-.25,1.81-.27.1-.04.68-.09,1.37-.17,2.05-.25,9.95-1.18,19.99-1.56,30-1.15,4.62.19,9.22.55,13.81,1.07.91.1,1.82.21,2.73.33-3.45-.45,1.04.19,1.44.25,2.69.43,5.37.92,8.04,1.47,9.24,1.89,18.33,4.49,27.18,7.75,2.09.77,4.16,1.59,6.22,2.42-2.56-1.03-.4-.18.1.04,1.22.54,2.43,1.07,3.64,1.63,4.42,2.03,8.76,4.24,13.01,6.6,8.07,4.5,15.84,9.57,23.16,15.2-2.27-1.75.04.05.59.5.85.7,1.71,1.38,2.55,2.08,1.69,1.4,3.35,2.84,4.99,4.3,3.6,3.21,7.09,6.56,10.44,10.04,3.05,3.16,5.99,6.43,8.81,9.79,1.41,1.68,2.8,3.39,4.15,5.12-2.03-2.59.64.87.85,1.16.79,1.06,1.56,2.13,2.32,3.21,5.36,7.56,10.18,15.51,14.39,23.77,1.01,1.98,1.98,3.97,2.92,5.98.56,1.21,1.1,2.43,1.65,3.64.22.49,1.13,2.65.07.1,1.9,4.53,3.6,9.15,5.13,13.82,2.96,9.03,5.23,18.28,6.79,27.65.23,1.35.43,2.71.63,4.07-.42-2.84-.05-.45,0,.11.26,2.29.52,4.59.71,6.89.43,5.12.64,10.25.68,15.38.06,7.84,6.86,15.36,15,15s15.06-6.59,15-15c-.31-41.86-13.34-83.57-37.84-117.61-24.61-34.2-58.45-60.22-98.01-74.81-79.64-29.38-172.95-3.18-226.67,62.23-27.14,33.04-43.57,73.03-46.91,115.72-3.28,41.93,7.34,84.98,29.23,120.84,21.22,34.76,52.95,63.56,90.13,80.35,39.79,17.97,83.83,23.06,126.66,14.32,81.48-16.63,148.18-85.63,160.74-168.04,1.67-10.95,2.67-21.92,2.67-33,0-7.85-6.9-15.36-15-15s-15,6.59-15,15Z" fill="#231815"/></g></svg>