<?xml version="1.0" encoding="UTF-8"?><svg id="uuid-708d56b9-77e2-487c-a84e-aeb730bf9104" xmlns="http://www.w3.org/2000/svg" viewBox="0 0 512 512"><g id="uuid-8028b5a4-c2d7-4ad3-b50f-d022e980ff67"><path d="m81.38,335.33c-20.21-22.84-18.05-58.31.34-76.1,2.42-2.34,2.21-3.98,0-6.5-19.62-22.51-19.87-51.45-.37-76.1-1.79-1.42-3.57-2.87-5.39-4.26-26.47-20.09-26.66-59.15-.39-79.41,26.22-20.22,60.2-18.41,84.44,4.47.62.59,1.31,1.11,2.37,2,12.88-13.22,28.38-20.22,46.98-20.12,18.38.11,33.76,6.9,46.28,20.15,28.7-29.12,71.11-24.58,94-.06,9.45-9.15,20.18-15.94,33.34-18.94,23.56-5.37,50.1,4.16,64.11,23.77,14.96,20.94,10.46,51.33-9.99,67.34-2.04,1.6-4.1,3.16-6.17,4.75,19.7,27.45,19.23,53.91-2.78,79.6,21.75,25.67,22.69,52.13,3.56,78.57,5.89,6.82,12.65,12.87,17.22,20.28,13.12,21.26,7.36,48.93-12.51,64.26-26.2,20.21-60.32,18.43-84.42-4.4-.62-.59-1.3-1.12-2.41-2.07-12.84,13.19-28.32,20.22-46.91,20.13-18.38-.09-33.78-6.84-46.66-20.47-12.88,13.46-28.21,20.4-46.59,20.47-18.42.07-33.87-6.59-46.74-19.96-3.97,3.12-7.75,6.29-11.73,9.2-25.05,18.3-64.21,13.11-83.67-11.05-17.82-22.12-13.94-54,8.66-71.26,1.71-1.3,3.37-2.66,5.41-4.27Zm33.58,14.91c-4.44.88-8.33,1.34-12.02,2.44-16.81,5.03-26.09,21.44-20.38,35.73,4.82,12.06,19.38,20.51,33.96,19.7,17.07-.94,28.89-9.74,32.8-23.91.51-1.87,2.96-4.29,4.75-4.51,6.63-.82,13.37-.82,19.91-1.12,5.43,19.81,15.32,28.44,32.94,29.26,8.24.38,16-1.11,23.01-5.73,8.32-5.48,12.31-13.63,13.82-23.03h24.35c4.58,19.12,15.51,28.37,33.64,28.78,19.24.43,30.52-8.53,36.09-28.81,4.26,0,8.59.21,12.9-.05,7.11-.43,12.42.8,13.57,9.46.41,3.08,3.13,6.18,5.46,8.63,10.36,10.89,27.13,14.12,41.56,8.34,12.62-5.06,20.23-15.53,19.72-27.15-.49-11.45-9.78-22.13-22.58-25.7-3.68-1.03-7.5-1.57-11.55-2.4-.39-8.24-.77-16.17-1.13-23.89,15.9-3.99,23.24-12.23,24.47-26.66,1.3-15.31-5.46-24.28-24.53-32.21,0-6.13.17-12.43-.06-18.72-.13-3.65.91-5.12,4.78-6.03,11.39-2.69,18.38-11.86,19.78-24.68,1.33-12.16-4.62-24.29-14.56-29.1-3.04-1.47-6.42-2.24-10.05-3.46.51-8.13,1-16.05,1.48-23.74,4.68-.91,8.6-1.31,12.29-2.44,16.73-5.11,26.11-21.78,19.81-35.96-6.21-13.98-18.49-19.44-32.8-19.44-13.83,0-27.06,5.1-31.44,18.87-3.22,10.11-8.73,10.51-16.46,10.42-3.66-.04-7.31,0-10.85,0-4.3-18.94-15.2-28.4-32.92-28.99-19.71-.65-30.94,8.07-36.78,28.69h-24.3c-3.52-17.83-14.59-27.7-31.74-28.64-8.68-.48-16.82,1.05-24.19,6.09-8.05,5.51-11.78,13.5-13.27,22.6-5.46,0-10.44-.07-15.42.02-5.57.1-10.04-.32-10.73-7.81-.32-3.47-3.25-7.1-5.83-9.89-10.14-10.99-27.1-14.58-41.46-8.73-11.15,4.54-19.23,12.08-20.03,24.94-.7,11.26,6.3,21.33,18.56,26.51,4.7,1.99,9.92,2.73,15.39,4.16.39,6.02.83,12.28,1.16,18.54.09,1.69-.15,3.39-.21,4.64-.55.57-.67.82-.84.87-15.35,3.99-22.61,12.44-23.34,27.2-.74,14.92,6.13,24.29,21.63,29.88,1.23.44,2.75,2.23,2.79,3.44.26,7.12.13,14.25.13,21.14-16.83,5.06-24.17,13.75-24.58,28.49-.43,15.23,6.7,24.22,24.62,30.45-.44,7.73-.88,15.66-1.33,23.53Z"/></g></svg>