<?xml version="1.0" encoding="UTF-8"?><svg id="uuid-ac5b23b8-de7b-448e-b966-492d5c3ff7af" xmlns="http://www.w3.org/2000/svg" viewBox="0 0 512 512"><g id="uuid-4bbfd76e-c849-4766-b859-87edbc966250"><path d="m203.61,323.06c.75-1.37,1.22-3.01,2.28-4.08,30.04-30.12,60.12-60.2,90.25-90.24,1.69-1.68,3.63-3.28,5.74-4.32,3.8-1.88,8.6-.55,11.21,2.64,2.95,3.6,3.3,8.14.73,11.84-1.13,1.62-2.48,3.11-3.88,4.52-29.87,29.89-59.75,59.77-89.66,89.61-1.09,1.09-2.54,1.83-3.82,2.73.25.42.5.84.76,1.26,1.32.07,2.64.21,3.96.21,14.85.02,29.7-.04,44.55.05,5.03.03,9.02,3.5,9.66,7.96.76,5.31-1.9,9.81-6.85,11.35-1.19.37-2.51.44-3.77.44-23.84.02-47.69.03-71.53.01-7.11,0-11.29-3.94-11.31-10.92-.06-23.69-.09-47.39.02-71.08.04-9.36,7.72-14.26,15.19-9.95,3.42,1.97,4.75,4.98,4.73,8.89-.08,14.99-.03,29.97-.03,44.96,0,.94.09,1.88.13,2.82.55.43,1.1.85,1.65,1.28Z"/><path d="m217.45,234.05h196.19c23.69,0,35.59-9.64,35.59-28.75v-113.22c0-19.1-11.9-28.75-35.59-28.75h-196.19c-23.57,0-35.59,9.55-35.59,28.75v113.22c0,19.19,12.01,28.75,35.59,28.75Zm.34-14.93c-11.33,0-17.68-4.91-17.68-14.56v-111.74c0-9.64,6.35-14.56,17.68-14.56h195.51c11.22,0,17.68,4.91,17.68,14.56v111.74c0,9.64-6.46,14.56-17.68,14.56h-195.51Z" fill="#040000" stroke="#231815" stroke-miterlimit="10" stroke-width="3"/><g id="uuid-7762f4df-b630-4783-a1f2-5d6cec5dd1d9"><path d="m430.58,416.01c-3.37,3.72-7.82,6.82-13.16,8.96-14.81,5.94-32.03,2.62-42.67-8.56-2.4-2.52-5.19-5.69-5.61-8.86-1.18-8.89-6.63-10.15-13.93-9.71-4.42.27-8.86.05-13.24.05-5.72,20.82-17.3,30.02-37.06,29.58-18.62-.42-29.84-9.91-34.54-29.55h-25c-1.55,9.65-5.65,18.02-14.19,23.64-7.19,4.74-15.16,6.27-23.62,5.88-18.09-.83-28.25-9.7-33.82-30.04-6.72.31-13.63.31-20.44,1.15-1.84.23-4.35,2.72-4.88,4.63-4.02,14.55-16.15,23.58-33.68,24.55-14.97.82-29.92-7.85-34.87-20.23-5.86-14.68,3.67-31.52,20.93-36.69,3.79-1.13,7.78-1.6,12.34-2.51.46-8.08.92-16.21,1.36-24.15-18.4-6.4-25.71-15.62-25.28-31.26.42-15.13,7.96-24.06,25.24-29.25,0-7.08.14-14.4-.13-21.71-.05-1.25-1.61-3.08-2.87-3.54-15.91-5.73-22.97-15.36-22.21-30.67.75-15.15,8.2-23.82,23.96-27.92.18-.05.3-.3.87-.89.07-1.28.31-3.03.22-4.76-.34-6.43-.8-12.85-1.2-19.04-5.62-1.47-10.98-2.23-15.8-4.27-12.58-5.32-19.78-15.66-19.05-27.22.78-12.5,8.27-20.1,18.79-24.84-7.54-5.62-15.42-10.77-23.68-15.11-.21.16-.43.31-.64.48-26.98,20.8-26.78,60.9.4,81.52,1.88,1.42,3.7,2.92,5.54,4.37-20.02,25.31-19.77,55.03.38,78.13,2.26,2.59,2.48,4.27-.01,6.68-18.88,18.27-21.1,54.68-.35,78.13-2.09,1.66-3.8,3.05-5.55,4.39-23.21,17.72-27.19,50.45-8.89,73.16,19.98,24.8,60.19,30.14,85.91,11.35,4.08-2.98,7.96-6.23,12.04-9.44,13.21,13.73,29.08,20.56,47.99,20.49,18.87-.07,34.61-7.19,47.83-21.01,13.21,14,29.03,20.93,47.9,21.02,19.08.09,34.98-7.12,48.16-20.67,1.14.97,1.83,1.52,2.47,2.12,24.75,23.44,59.77,25.27,86.67,4.52,3.6-2.78,6.74-5.96,9.41-9.42-7.1-4.9-14.44-9.42-22.03-13.5Z"/></g></g></svg>