<?xml version="1.0" encoding="UTF-8"?><svg id="uuid-293c8dea-6fd0-4cd8-bd6d-800154a9b47f" xmlns="http://www.w3.org/2000/svg" viewBox="0 0 512 512"><path d="m62.67,131c-3.69,0-6.67,5.88-6.67,13.16v223.69c0,7.28,2.98,13.16,6.67,13.16s6.67-5.88,6.67-13.16v-223.69c0-7.28-2.98-13.16-6.67-13.16Z" fill="#040000" stroke="#231815" stroke-miterlimit="10" stroke-width="8"/><path d="m449.33,131c-3.69,0-6.67,5.88-6.67,13.16v223.69c0,7.28,2.98,13.16,6.67,13.16s6.67-5.88,6.67-13.16v-223.69c0-7.28-2.98-13.16-6.67-13.16Z" fill="#040000" stroke="#231815" stroke-miterlimit="10" stroke-width="8"/><path d="m427.9,255.06l-30.95-40c-1.67-2.16-4.42-2.94-6.87-2-2.45.96-4.08,3.47-4.08,6.27v33.33H126v-33.34c0-2.81-1.63-5.31-4.08-6.27-2.45-.95-5.19-.17-6.87,2l-30.95,40.01c-.95,1.23-1.43,2.75-1.43,4.27s.48,3.03,1.43,4.27l30.95,40c1.2,1.55,2.95,2.39,4.75,2.39.71,0,1.42-.13,2.11-.4,2.45-.96,4.08-3.47,4.08-6.27v-33.33h260v33.33c0,2.81,1.63,5.31,4.08,6.27.69.27,1.4.4,2.11.4,1.8,0,3.55-.85,4.76-2.39l30.95-40c.96-1.24,1.44-2.75,1.44-4.27s-.48-3.03-1.43-4.27Zm-314.28,25.86l-16.71-21.59,16.71-21.59v43.17Zm284.76,0v-43.17l16.71,21.59-16.71,21.59Z" fill="#040000" stroke="#231815" stroke-miterlimit="10" stroke-width="8"/></svg>