<?xml version="1.0" encoding="UTF-8"?><svg id="uuid-80d4086d-ace7-4ef2-bfa2-025b0883ca60" xmlns="http://www.w3.org/2000/svg" viewBox="0 0 512 512"><path d="m443.33,127.33l-52.89-52.89c-8.17-8.17-19.06-12.71-30.62-12.71s-22.45,4.48-30.62,12.71l-214.24,214.24-16.22,66.57-23.78,23.78,9.44,9.44-28.38,28.38,56.47,33.41,16.89-16.89,9.44,9.44,23.78-23.78,66.57-16.22,214.24-214.24c16.82-16.89,16.82-44.36-.06-61.25ZM108.35,417.53l-10.11-5.99,4.66-4.66,8.05,8.05-2.6,2.6Zm40.91-22.09l-10.53,10.53-26.93-26.93,10.53-10.53,11.56-47.63,62.94,62.94-47.57,11.62Zm275.67-225.26l-202.44,202.38-77.28-77.28,202.44-202.44c3.27-3.27,7.57-5.02,12.23-5.02s8.96,1.82,12.23,5.02l52.89,52.89c6.66,6.78,6.66,17.73-.06,24.45Z" fill="#040000"/><path d="m322.17,150.7l-106.52,106.52,44.91,44.91,106.52-106.52-44.91-44.91Zm-69.6,106.45l69.66-69.66,8.05,8.05-69.66,69.72-8.05-8.11Z" fill="#040000"/></svg>