<?xml version="1.0" encoding="UTF-8"?><svg id="uuid-ef013393-26ba-43d5-9cca-efa2de22cf36" xmlns="http://www.w3.org/2000/svg" viewBox="0 0 512 512"><path d="m81.61,451.61c12.3-12.3,24.61-24.61,36.91-36.91,29.42-29.42,58.84-58.84,88.26-88.26,35.69-35.69,71.39-71.39,107.08-107.08,30.75-30.75,61.49-61.49,92.24-92.24,14.93-14.93,30.36-29.51,44.87-44.87.21-.22.43-.43.64-.64,5.73-5.73,5.73-15.48,0-21.21s-15.47-5.75-21.21,0c-12.3,12.3-24.61,24.61-36.91,36.91-29.42,29.42-58.84,58.84-88.26,88.26-35.69,35.69-71.39,71.39-107.08,107.08-30.75,30.75-61.49,61.49-92.24,92.24-14.93,14.93-30.36,29.51-44.87,44.87-.21.22-.43.43-.64.64-5.73,5.73-5.73,15.48,0,21.21,5.75,5.75,15.47,5.75,21.21,0h0Z" fill="#231815"/></svg>