<?xml version="1.0" encoding="UTF-8"?><svg id="uuid-68ad02fe-f142-4fce-b398-39af59942cad" xmlns="http://www.w3.org/2000/svg" viewBox="0 0 512 512"><path d="m414.43,235.29c8.61,8.92,10.95,21.64,6.32,32.19-5.46,12.43-17.91,18.87-30.42,17.68-25.66-2.44-35.51-37.91-13.54-53.1,11.83-8.19,27.06-6.98,37.64,3.24,10.42,10.06,26.35-5.83,15.91-15.91-15.94-15.39-39.4-19.4-59.45-9.84-18.74,8.93-30.64,29.85-28.76,50.52,1.99,21.85,17.55,41.1,39.2,46.24s42.98-3.63,55.38-21.43c14.11-20.25,10.41-48.11-6.36-65.49-10.08-10.44-25.98,5.48-15.91,15.91Z" fill="#231815"/><path d="m139,394.31c8.61,8.92,10.95,21.64,6.32,32.19-5.46,12.43-17.91,18.87-30.42,17.68-25.66-2.44-35.51-37.91-13.54-53.1,11.83-8.19,27.06-6.98,37.64,3.24,10.42,10.06,26.35-5.83,15.91-15.91-15.94-15.39-39.4-19.4-59.45-9.84-18.74,8.93-30.64,29.85-28.76,50.52,1.99,21.85,17.55,41.1,39.2,46.24,21.22,5.04,42.98-3.63,55.38-21.43,14.11-20.25,10.41-48.11-6.36-65.49-10.08-10.44-25.98,5.48-15.91,15.91Z" fill="#231815"/><path d="m193.34,389.01c41.02-23.68,82.03-47.36,123.05-71.04,5.7-3.29,11.39-6.58,17.09-9.87,7.01-4.05,9.45-13.56,5.38-20.52s-13.48-9.45-20.52-5.38c-41.02,23.68-82.03,47.36-123.05,71.04-5.7,3.29-11.39,6.58-17.09,9.87-7.01,4.05-9.45,13.56-5.38,20.52,4.12,7.04,13.48,9.45,20.52,5.38h0Z" fill="#231815"/><path d="m174.1,146.53c41.44,23.93,82.88,47.85,124.32,71.78,5.83,3.37,11.67,6.74,17.5,10.1,7.02,4.05,16.42,1.63,20.52-5.38s1.66-16.46-5.38-20.52c-41.44-23.93-82.88-47.85-124.32-71.78-5.83-3.37-11.67-6.74-17.5-10.1-7.02-4.05-16.42-1.63-20.52,5.38s-1.66,16.46,5.38,20.52h0Z" fill="#231815"/><path d="m139,76.26c8.61,8.92,10.95,21.64,6.32,32.19-5.46,12.43-17.91,18.87-30.42,17.68-25.66-2.44-35.51-37.91-13.54-53.1,11.83-8.19,27.06-6.98,37.64,3.24s26.35-5.83,15.91-15.91c-15.94-15.39-39.4-19.4-59.45-9.84-18.74,8.93-30.64,29.85-28.76,50.52,1.99,21.85,17.55,41.1,39.2,46.24s42.98-3.63,55.38-21.43c14.11-20.25,10.41-48.11-6.36-65.49-10.08-10.44-25.98,5.48-15.91,15.91Z" fill="#231815"/></svg>