<?xml version="1.0" encoding="UTF-8"?><svg id="uuid-51f2fa9b-eefd-4fe2-a10c-87c4d628ee00" xmlns="http://www.w3.org/2000/svg" viewBox="0 0 512 512"><path d="m414.43,235.29c8.61,8.92,10.95,21.64,6.32,32.19-5.46,12.43-17.91,18.87-30.42,17.68-25.66-2.44-35.51-37.91-13.54-53.1,11.83-8.19,27.06-6.98,37.64,3.24,10.42,10.06,26.35-5.83,15.91-15.91-15.94-15.39-39.4-19.4-59.45-9.84-18.74,8.93-30.64,29.85-28.76,50.52,1.99,21.85,17.55,41.1,39.2,46.24,21.22,5.04,42.98-3.63,55.38-21.43,14.11-20.25,10.41-48.11-6.36-65.49-10.08-10.44-25.98,5.48-15.91,15.91Z" fill="#231815"/><path d="m139,394.31c8.61,8.92,10.95,21.64,6.32,32.19-5.46,12.43-17.91,18.87-30.42,17.68-25.66-2.44-35.51-37.91-13.54-53.1,11.83-8.19,27.06-6.98,37.64,3.24,10.42,10.06,26.35-5.83,15.91-15.91-15.94-15.39-39.4-19.4-59.45-9.84-18.74,8.93-30.64,29.85-28.76,50.52,1.99,21.85,17.55,41.1,39.2,46.24,21.22,5.04,42.98-3.63,55.38-21.43,14.11-20.25,10.41-48.11-6.36-65.49-10.08-10.44-25.98,5.48-15.91,15.91Z" fill="#231815"/><path d="m184.34,373.42c.77-.42,1.55-.86,2.36-1.22-2.75,1.22-.72.32-.11.21.17-.03,3.95-.79,1.41-.43-2.15.31.24.02.8.03.71.02,1.51.14,2.2.05,1.99-.25-2.66-.7-.72-.13,1.77.52,3.59.8,5.36,1.37,1.43.46,2.83,1,4.24,1.54.47.18,2.76,1.1.84.32-2.24-.91,1.24.53,1.36.58,3.8,1.62,7.59,3.32,11.5,4.66,17.84,6.12,37.04.88,48.28-14.54,4.26-5.84,6.52-12.99,7.63-20.07.64-4.13,1.2-8.31,1.63-12.47.23-2.17-.55,2.72-.08.6.2-.91.29-1.87.46-2.79.31-1.64.67-3.28,1.14-4.88.21-.7.54-1.39.68-2.1.39-1.85-1.46,1.96-.23.55.7-.8,3.55-4.48,1.01-2.1.71-.67,3.92-3.47,1.43-1.71.72-.51,1.47-.99,2.24-1.43s4.22-1.56,1.1-.64c1.44-.42,5.27-.65,1.69-.68,1.44.01,2.99.08,4.42,0-3.58.18-.12.03,1.42.42,1.81.46,3.58,1.06,5.32,1.71.71.26,1.41.55,2.11.82,3.62,1.36-2.94-1.28.63.25,2.42,1.03,4.83,2.07,7.26,3.07,3.29,1.35,6.61,2.65,10.09,3.44,10.72,2.43,21,1.11,30.67-4.18,7.1-3.89,9.39-13.67,5.38-20.52s-13.39-9.28-20.52-5.38c-.77.42-1.55.86-2.36,1.22,2.75-1.22.72-.32.11-.21-.17.03-3.95.79-1.41.43,2.15-.31-.24-.02-.8-.03-.71-.02-1.51-.14-2.2-.05-1.99.25,2.66.7.72.13-1.77-.52-3.59-.8-5.36-1.37-1.43-.46-2.83-1-4.24-1.54-.47-.18-2.76-1.1-.84-.32,2.24.91-1.24-.53-1.36-.58-3.8-1.62-7.59-3.32-11.5-4.66-17.84-6.12-37.05-.88-48.29,14.54-4.26,5.84-6.52,12.99-7.63,20.07-.64,4.13-1.2,8.31-1.63,12.47-.23,2.17.55-2.72.08-.6-.2.91-.29,1.87-.46,2.79-.31,1.64-.67,3.28-1.14,4.88-.21.7-.54,1.39-.68,2.1-.39,1.85,1.46-1.96.23-.55-.7.8-3.55,4.48-1.01,2.1-.71.67-3.92,3.47-1.43,1.71-.72.51-1.47.99-2.24,1.43s-4.22,1.55-1.1.64c-1.44.42-5.26.65-1.68.68-1.44-.01-2.99-.08-4.42,0,3.58-.18.11-.03-1.42-.42-1.81-.46-3.58-1.06-5.32-1.71-.71-.26-1.41-.55-2.11-.82-3.62-1.36,2.94,1.28-.63-.25-2.42-1.03-4.83-2.07-7.26-3.07-3.29-1.35-6.61-2.65-10.09-3.44-10.72-2.43-21-1.11-30.67,4.18-7.1,3.89-9.39,13.67-5.38,20.52,4.19,7.17,13.39,9.28,20.52,5.38h0Z" fill="#231815"/><path d="m183.1,130.94c.77.47,1.53.93,2.26,1.45-2.28-1.61-.56-.45-.14.03.05.06,2.64,2.96,1.16,1.1-1.23-1.56.21.35.45.8.35.63.65,1.38,1.08,1.95,1.19,1.56-.65-2.45-.2-.54.42,1.8,1.13,3.53,1.53,5.35.33,1.48.57,2.96.82,4.45.09.53.42,2.99.13.84-.34-2.51.15,1.24.17,1.42.53,4.15.99,8.34,1.82,12.45,3.76,18.66,18.08,32.33,37.08,34.52,14.78,1.71,26.39-7.14,40.09-10.37.72-.17,1.46-.26,2.17-.45,1.86-.5-2.51-.35-.69.15.71.19,2.04,0,2.78-.03,1.19-.04,2.04.76-.59-.14.89.3,5.09,1.65,2.23.37.81.36,1.62.8,2.38,1.24.7.4,3.58,2.8,1.22.66.94.85,3.34,4.13,1.6,1.3.78,1.26,1.46,2.6,2.25,3.85-1.82-2.92.02.26.41,1.61.51,1.8.9,3.64,1.22,5.49.13.75.24,1.5.36,2.25.63,3.87-.4-3.35.07.56.33,2.66.67,5.32,1.05,7.97.5,3.54,1.06,7.08,2.14,10.5,3.28,10.37,9.62,18.62,18.95,24.29,6.92,4.21,16.48,1.52,20.52-5.38s1.56-16.3-5.38-20.52c-.77-.47-1.53-.93-2.26-1.45,2.27,1.6.56.45.14-.03-.05-.06-2.64-2.96-1.16-1.1,1.23,1.56-.21-.35-.45-.8-.35-.63-.65-1.38-1.08-1.95-1.19-1.56.65,2.45.2.54-.42-1.8-1.13-3.53-1.54-5.35-.33-1.48-.57-2.96-.82-4.45-.09-.53-.42-2.99-.13-.84.34,2.51-.15-1.24-.17-1.42-.53-4.15-.99-8.34-1.82-12.45-3.76-18.66-18.08-32.33-37.08-34.52-14.78-1.71-26.39,7.14-40.09,10.37-.72.17-1.46.26-2.17.45-1.86.5,2.51.35.69-.15-.71-.19-2.04,0-2.78.03-1.19.04-2.04-.76.59.14-.89-.3-5.09-1.65-2.23-.37-.81-.36-1.62-.8-2.38-1.24-.7-.4-3.58-2.8-1.22-.66-.94-.85-3.34-4.13-1.6-1.3-.78-1.26-1.46-2.6-2.24-3.85,1.82,2.92-.02-.26-.41-1.61-.51-1.8-.9-3.64-1.22-5.49-.13-.75-.24-1.5-.36-2.25-.63-3.87.4,3.35-.07-.56-.33-2.66-.67-5.32-1.05-7.97-.5-3.54-1.06-7.08-2.14-10.5-3.28-10.37-9.62-18.62-18.95-24.29-6.92-4.21-16.48-1.52-20.52,5.38s-1.56,16.3,5.38,20.52h0Z" fill="#231815"/><path d="m139,76.26c8.61,8.92,10.95,21.64,6.32,32.19-5.46,12.43-17.91,18.87-30.42,17.68-25.66-2.44-35.51-37.91-13.54-53.1,11.83-8.19,27.06-6.98,37.64,3.24,10.42,10.06,26.35-5.83,15.91-15.91-15.94-15.39-39.4-19.4-59.45-9.84-18.74,8.93-30.64,29.85-28.76,50.52,1.99,21.85,17.55,41.1,39.2,46.24,21.22,5.04,42.98-3.63,55.38-21.43,14.11-20.25,10.41-48.11-6.36-65.49-10.08-10.44-25.98,5.48-15.91,15.91Z" fill="#231815"/></svg>