<svg width="20" height="20" xmlns="http://www.w3.org/2000/svg" enable-background="new 0 0 24 24">

 <g>
  <title>Layer 1</title>
  <g stroke="null" id="svg_15">
   <g stroke="null" id="svg_1">
    <path stroke="null" id="svg_2" d="m10,18.21918c-4.52055,0 -8.21918,-3.69863 -8.21918,-8.21918s3.69863,-8.21918 8.21918,-8.21918s8.21918,3.69863 8.21918,8.21918s-3.69863,8.21918 -8.21918,8.21918zm0,-15.61644c-4.10959,0 -7.39726,3.28767 -7.39726,7.39726s3.28767,7.39726 7.39726,7.39726s7.39726,-3.28767 7.39726,-7.39726s-3.28767,-7.39726 -7.39726,-7.39726z"/>
   </g>
   <g stroke="null" id="svg_3">
    <path stroke="null" id="svg_4" d="m10,4.24657c-0.24658,0 -0.41096,-0.16438 -0.41096,-0.41096l0,-3.28767c0,-0.24658 0.16438,-0.41096 0.41096,-0.41096s0.41096,0.16438 0.41096,0.41096l0,3.28767c0,0.24658 -0.16438,0.41096 -0.41096,0.41096z"/>
   </g>
   <g stroke="null" id="svg_5">
    <path stroke="null" id="svg_6" d="m10,4.24657c-0.24658,0 -0.41096,-0.16438 -0.41096,-0.41096l0,-3.28767c0,-0.24658 0.16438,-0.41096 0.41096,-0.41096s0.41096,0.16438 0.41096,0.41096l0,3.28767c0,0.24658 -0.16438,0.41096 -0.41096,0.41096z"/>
   </g>
   <g stroke="null" id="svg_7">
    <path stroke="null" id="svg_8" d="m19.45205,10.41096l-3.28767,0c-0.24658,0 -0.41096,-0.16438 -0.41096,-0.41096s0.16438,-0.41096 0.41096,-0.41096l3.28767,0c0.24658,0 0.41096,0.16438 0.41096,0.41096s-0.16438,0.41096 -0.41096,0.41096z"/>
   </g>
   <g stroke="null" id="svg_9">
    <path stroke="null" id="svg_10" d="m10,19.86301c-0.24658,0 -0.41096,-0.16438 -0.41096,-0.41096l0,-3.28767c0,-0.24658 0.16438,-0.41096 0.41096,-0.41096s0.41096,0.16438 0.41096,0.41096l0,3.28767c0,0.24658 -0.16438,0.41096 -0.41096,0.41096z"/>
   </g>
   <g stroke="null" id="svg_11">
    <path stroke="null" id="svg_12" d="m3.83562,10.41096l-3.28767,0c-0.24658,0 -0.41096,-0.16438 -0.41096,-0.41096s0.16438,-0.41096 0.41096,-0.41096l3.28767,0c0.24658,0 0.41096,0.16438 0.41096,0.41096s-0.16438,0.41096 -0.41096,0.41096z"/>
   </g>
   <g stroke="null" id="svg_13">
    <path stroke="null" id="svg_14" d="m10,12.46575c-1.39726,0 -2.46575,-1.06849 -2.46575,-2.46575s1.06849,-2.46575 2.46575,-2.46575s2.46575,1.06849 2.46575,2.46575s-1.06849,2.46575 -2.46575,2.46575zm0,-4.10959c-0.90411,0 -1.64384,0.73973 -1.64384,1.64384s0.73973,1.64384 1.64384,1.64384s1.64384,-0.73973 1.64384,-1.64384s-0.73973,-1.64384 -1.64384,-1.64384z"/>
   </g>
  </g>
 </g>
</svg>