<svg width="20" height="20" xmlns="http://www.w3.org/2000/svg" xml:space="preserve" version="1.1">

 <g>
  <title>Layer 1</title>
  <g stroke="null" id="svg_1">
   <g stroke="null" id="svg_2">
    <g stroke="null" id="svg_3">
     <path stroke="null" id="svg_4" d="m9.33888,13.6393l0,-7.27221c0,-0.56196 -0.42971,-0.99167 -0.99167,-0.99167l-7.27221,0c-0.56196,0 -0.99167,0.42971 -0.99167,0.99167l0,7.27221c0,0.56196 0.42971,0.99167 0.99167,0.99167l7.27221,0c0.56196,0 0.99167,-0.42971 0.99167,-0.99167zm-8.59442,0l0,-7.27221c0,-0.19833 0.13221,-0.33054 0.33054,-0.33054l7.27221,0c0.19833,0 0.33054,0.13221 0.33054,0.33054l0,7.27221c0,0.19833 -0.13221,0.33054 -0.33054,0.33054l-7.27221,0c-0.19833,0.00004 -0.33054,-0.13221 -0.33054,-0.33054z"/>
     <path stroke="null" id="svg_5" d="m1.73612,7.68929l3.30554,0c0.19833,0 0.33054,-0.13221 0.33054,-0.33054s-0.13221,-0.33054 -0.33054,-0.33054l-3.30554,0c-0.19833,0 -0.33054,0.13221 -0.33054,0.33054s0.13221,0.33054 0.33054,0.33054z"/>
     <path stroke="null" id="svg_6" d="m6.36387,8.35042l-3.63609,0c-0.19833,0 -0.33054,0.13221 -0.33054,0.33054c0,0.19833 0.13221,0.33054 0.33054,0.33054l3.63613,0c0.19833,0 0.33054,-0.13221 0.33054,-0.33054c0,-0.19833 -0.13225,-0.33054 -0.33058,-0.33054z"/>
     <path stroke="null" id="svg_7" d="m5.04166,9.67263l-3.30554,0c-0.19833,0 -0.33054,0.13221 -0.33054,0.33054s0.13221,0.33054 0.33054,0.33054l3.30554,0c0.19833,0 0.33054,-0.13221 0.33054,-0.33054s-0.13221,-0.33054 -0.33054,-0.33054z"/>
     <path stroke="null" id="svg_8" d="m3.38887,11.32542c0,-0.19833 -0.13221,-0.33054 -0.33054,-0.33054l-1.32221,0c-0.19833,0 -0.33054,0.13221 -0.33054,0.33054c0,0.19833 0.13221,0.33054 0.33054,0.33054l1.32221,0c0.19833,0 0.33054,-0.13221 0.33054,-0.33054z"/>
     <path stroke="null" id="svg_9" d="m5.04166,12.31709l-2.64446,0c-0.19833,0 -0.33054,0.13221 -0.33054,0.33054s0.13221,0.33054 0.33054,0.33054l2.64446,0c0.19833,0 0.33054,-0.13221 0.33054,-0.33054s-0.13221,-0.33054 -0.33054,-0.33054z"/>
     <path stroke="null" id="svg_10" d="m18.92501,5.37542l-7.27221,0c-0.56196,0 -0.99167,0.42971 -0.99167,0.99167l0,7.27221c0,0.56196 0.42971,0.99167 0.99167,0.99167l7.27221,0c0.56196,0 0.99167,-0.42971 0.99167,-0.99167l0,-7.27221c0,-0.56196 -0.42971,-0.99167 -0.99167,-0.99167zm0.33054,8.26388c0,0.19833 -0.13221,0.33054 -0.33054,0.33054l-7.27221,0c-0.19833,0 -0.33054,-0.13221 -0.33054,-0.33054l0,-7.27221c0,-0.19833 0.13221,-0.33054 0.33054,-0.33054l7.27221,0c0.19833,0 0.33054,0.13221 0.33054,0.33054l0,7.27221z"/>
     <path stroke="null" id="svg_11" d="m12.31388,7.68929l3.30554,0c0.19833,0 0.33054,-0.13221 0.33054,-0.33054s-0.13221,-0.33054 -0.33054,-0.33054l-3.30554,0c-0.19833,0 -0.33054,0.13221 -0.33054,0.33054s0.13221,0.33054 0.33054,0.33054z"/>
     <path stroke="null" id="svg_12" d="m16.94167,8.35042l-3.63613,0c-0.19833,0 -0.33054,0.13221 -0.33054,0.33054c0,0.19833 0.13221,0.33054 0.33054,0.33054l3.63613,0c0.19833,0 0.33054,-0.13221 0.33054,-0.33054c0,-0.19833 -0.13221,-0.33054 -0.33054,-0.33054z"/>
     <path stroke="null" id="svg_13" d="m15.61946,9.67263l-3.30554,0c-0.19833,0 -0.33054,0.13221 -0.33054,0.33054s0.13221,0.33054 0.33054,0.33054l3.30554,0c0.19833,0 0.33054,-0.13221 0.33054,-0.33054s-0.13221,-0.33054 -0.33054,-0.33054z"/>
     <path stroke="null" id="svg_14" d="m13.96667,11.32542c0,-0.19833 -0.13221,-0.33054 -0.33054,-0.33054l-1.32221,0c-0.19833,0 -0.33054,0.13221 -0.33054,0.33054c0,0.19833 0.13221,0.33054 0.33054,0.33054l1.32221,0c0.19833,0 0.33054,-0.13221 0.33054,-0.33054z"/>
     <path stroke="null" id="svg_15" d="m15.61946,12.31709l-2.64446,0c-0.19833,0 -0.33054,0.13221 -0.33054,0.33054s0.13221,0.33054 0.33054,0.33054l2.64446,0c0.19833,0 0.33054,-0.13221 0.33054,-0.33054s-0.13221,-0.33054 -0.33054,-0.33054z"/>
     <path stroke="null" id="svg_16" d="m4.71112,3.72263c0.03304,0 0.09917,0 0.13221,-0.03304c1.88417,-0.92554 3.37167,-1.28917 5.15667,-1.28917c1.5463,0 2.86952,0.27317 4.42059,0.94786l-1.44559,0.47352c-0.16529,0.06612 -0.26446,0.23138 -0.19833,0.39667c0.03304,0.13221 0.16529,0.23138 0.2975,0.23138c0.03304,0 0.06612,0 0.09917,-0.03304l2.14065,-0.70288c0.11761,-0.00844 0.22669,-0.07523 0.2724,-0.18962c0.01673,-0.03347 0.02491,-0.07538 0.02471,-0.11722c0.00291,-0.07062 -0.01518,-0.14027 -0.05214,-0.19771l-0.69978,-2.13115c-0.06612,-0.16529 -0.23138,-0.26446 -0.39667,-0.23138c-0.16529,0.06612 -0.26446,0.26446 -0.19833,0.42971l0.49401,1.50807c-1.65814,-0.73476 -3.09191,-1.04532 -4.75818,-1.04532c-1.88417,0 -3.47084,0.39667 -5.42113,1.35529c-0.16529,0.06612 -0.23138,0.26446 -0.16529,0.42971c0.06612,0.13225 0.16529,0.19833 0.29754,0.19833z"/>
     <path stroke="null" id="svg_17" d="m15.15667,16.3168c-1.88417,0.92554 -3.37167,1.28917 -5.15667,1.28917c-1.53681,0 -2.85329,-0.26992 -4.39204,-0.93554l1.48316,-0.48588c0.16529,-0.06612 0.26446,-0.26446 0.19833,-0.42971s-0.26446,-0.26446 -0.42971,-0.19833l-2.21471,0.72721c-0.0368,0.01228 -0.06899,0.02909 -0.09669,0.04877c-0.05923,0.03219 -0.10792,0.08259 -0.13473,0.14956c-0.04238,0.10598 -0.03018,0.22537 0.02743,0.31493l0.69978,2.13115c0.03304,0.13221 0.16529,0.23138 0.2975,0.23138c0.06612,0 0.09917,0 0.16529,0c0.16529,-0.06612 0.26446,-0.26446 0.19833,-0.42971l-0.48286,-1.47398c1.6256,0.71036 3.04054,1.01119 4.6809,1.01119c1.88417,0 3.47084,-0.39667 5.42113,-1.35529c0.16529,-0.06612 0.23138,-0.26446 0.16529,-0.42971c-0.06612,-0.16521 -0.26446,-0.2313 -0.42975,-0.16521z"/>
    </g>
   </g>
  </g>
  <g id="svg_18"/>
  <g id="svg_19"/>
  <g id="svg_20"/>
  <g id="svg_21"/>
  <g id="svg_22"/>
  <g id="svg_23"/>
  <g id="svg_24"/>
  <g id="svg_25"/>
  <g id="svg_26"/>
  <g id="svg_27"/>
  <g id="svg_28"/>
  <g id="svg_29"/>
  <g id="svg_30"/>
  <g id="svg_31"/>
  <g id="svg_32"/>
 </g>
</svg>