<svg width="20" height="20" xmlns="http://www.w3.org/2000/svg" enable-background="new 0 0 24 24">

 <g>
  <title>Layer 1</title>
  <g stroke="null" id="svg_7">
   <path stroke="null" id="svg_1" d="m10,7.46142c-0.05083,0 -0.10167,-0.00917 -0.15,-0.0275l-5.41667,-2.08333c-0.16083,-0.06167 -0.26667,-0.21667 -0.26667,-0.38917s0.10583,-0.3275 0.26667,-0.38917l5.41667,-2.08333c0.09667,-0.03667 0.2025,-0.03667 0.29917,0l5.41667,2.08333c0.16167,0.06167 0.2675,0.21667 0.2675,0.38917s-0.10583,0.3275 -0.26667,0.38917l-5.41667,2.08333c-0.04833,0.01833 -0.09917,0.0275 -0.15,0.0275zm-4.25583,-2.5l4.25583,1.63667l4.25583,-1.63667l-4.25583,-1.63667l-4.25583,1.63667z"/>
   <path stroke="null" id="svg_2" d="m10,14.12808c-0.05083,0 -0.10167,-0.00917 -0.15,-0.0275l-5.41667,-2.08333c-0.16083,-0.06167 -0.26667,-0.21667 -0.26667,-0.38917l0,-6.66667c0,-0.23 0.18667,-0.41667 0.41667,-0.41667s0.41667,0.18667 0.41667,0.41667l0,6.38083l5,1.92333l5,-1.92333l0,-6.38083c0,-0.23 0.18667,-0.41667 0.41667,-0.41667s0.41667,0.18667 0.41667,0.41667l0,6.66667c0,0.1725 -0.10583,0.3275 -0.26667,0.38917l-5.41667,2.08333c-0.04833,0.01833 -0.09917,0.0275 -0.15,0.0275z"/>
   <path stroke="null" id="svg_3" d="m10,14.12808c-0.23,0 -0.41667,-0.18667 -0.41667,-0.41667l0,-6.66667c0,-0.23 0.18667,-0.41667 0.41667,-0.41667s0.41667,0.18667 0.41667,0.41667l0,6.66667c0,0.23 -0.18667,0.41667 -0.41667,0.41667z"/>
   <path stroke="null" id="svg_4" d="m8.75,19.96142c-0.12667,0 -0.25167,-0.0575 -0.33333,-0.16667c-0.13833,-0.18417 -0.10083,-0.445 0.08333,-0.58333l1.22167,-0.91667l-1.22167,-0.91667c-0.18417,-0.13833 -0.22167,-0.39917 -0.08333,-0.58333s0.39917,-0.22083 0.58333,-0.08333l1.66667,1.25c0.105,0.07833 0.16667,0.2025 0.16667,0.33333s-0.06167,0.255 -0.16667,0.33333l-1.66667,1.25c-0.075,0.05583 -0.1625,0.08333 -0.25,0.08333z"/>
   <path stroke="null" id="svg_5" d="m10,18.71142c-1.26,0 -2.4525,-0.06 -3.545,-0.1775c-1.51167,-0.1525 -6.455,-0.80083 -6.455,-2.73917c0,-0.79083 0.81583,-1.45167 2.42333,-1.96333c0.26417,-0.08167 0.5475,0.12417 0.5475,0.3975c0,0.20167 -0.14,0.37 -0.33,0.40833c-1.33333,0.42917 -1.8075,0.89167 -1.8075,1.1575c0,0.555 1.77083,1.51333 5.70833,1.91c1.065,0.115 2.2275,0.17333 3.45833,0.17333c0.23,0 0.41667,0.18667 0.41667,0.41667s-0.18667,0.41667 -0.41667,0.41667z"/>
   <path stroke="null" id="svg_6" d="m12.90833,18.58642c-0.215,0 -0.3975,-0.165 -0.415,-0.3825c-0.01833,-0.22917 0.1525,-0.43083 0.38167,-0.44917c4.29167,-0.35083 6.29167,-1.37667 6.29167,-1.96c0,-0.26833 -0.4825,-0.73583 -1.84333,-1.16917c-0.21917,-0.07 -0.34,-0.30417 -0.27083,-0.52333c0.07,-0.21917 0.30333,-0.34 0.52333,-0.27083c1.60833,0.51167 2.42417,1.1725 2.42417,1.96333c0,2.05417 -5.40167,2.655 -7.0575,2.79083c-0.01167,0.00083 -0.02333,0.00083 -0.03417,0.00083z"/>
  </g>
 </g>
</svg>