<svg width="20" height="20" xmlns="http://www.w3.org/2000/svg" xml:space="preserve" version="1.1">

 <g>
  <title>Layer 1</title>
  <g stroke="null" id="svg_25">
   <g stroke="null" id="svg_1">
    <g stroke="null" id="svg_2">
     <path stroke="null" id="svg_3" d="m19.88461,0.37887c-0.00031,-0.17121 -0.13932,-0.3093 -0.31022,-0.30899l-19.19551,0.04551c-0.1709,0.00031 -0.3093,0.13932 -0.30899,0.31022l0.04551,19.19551c0.00031,0.17121 0.13932,0.3093 0.31022,0.30899l19.19551,-0.04551c0.1709,-0.00031 0.3093,-0.13932 0.30899,-0.31022l-0.04551,-19.19551zm-19.15062,18.93142l-0.04396,-18.5763l18.5763,-0.04396l0.04396,18.5763l-18.5763,0.04396z"/>
    </g>
   </g>
   <g stroke="null" id="svg_4">
    <g stroke="null" id="svg_5">
     <path stroke="null" id="svg_6" d="m17.42789,8.74409l-0.01393,-5.8825c-0.00031,-0.17121 -0.13932,-0.3093 -0.31022,-0.30899l-7.12092,0.01672l-7.12092,0.01703c-0.17121,0.00062 -0.30961,0.13932 -0.30899,0.31053l0.01393,5.8825l0.01115,4.64408l0.00867,3.71526c0.00031,0.17121 0.13932,0.3093 0.31022,0.30899l4.64408,-0.01115c0.1709,-0.00031 0.3093,-0.13932 0.30899,-0.31022l-0.00155,-0.61921l4.95368,-0.01176c0.51209,-0.00124 0.92789,-0.4189 0.92665,-0.93098l-0.00279,-1.23842l3.40535,-0.00836c0.1709,-0.00031 0.3093,-0.13932 0.30899,-0.31022l-0.01238,-5.26329zm-3.72857,-5.56422l0.00588,2.47684c0.00031,0.17121 0.13932,0.3093 0.31022,0.30899c0.1709,-0.00031 0.3093,-0.13932 0.30899,-0.31022l-0.00588,-2.47684l2.47684,-0.00588l0.01238,5.26329l-2.47684,0.00588l-0.00217,-0.92882c-0.00031,-0.17121 -0.13932,-0.3093 -0.31022,-0.30899c-0.1709,0.00031 -0.3093,0.13932 -0.30899,0.31022l0.00217,0.92882l-0.61921,0.00155l-1.85763,0.00433l-0.92882,0.00217l-0.01238,-5.26329l3.40566,-0.00805zm-0.91055,7.71102c-0.7059,-0.14211 -1.24028,-0.76627 -1.24214,-1.51397l-0.00062,-0.30961l0.81829,-0.00186l0.42013,-0.00093l0.00433,1.82636zm-3.10193,-2.43814l-1.23842,0.00279l-0.00062,-0.3093c-0.00186,-0.7477 0.52942,-1.37434 1.2347,-1.51985l0.00433,1.82636zm-6.48189,8.37482l-0.00743,-3.09605l1.23842,-0.00279c0.1709,-0.00031 0.3093,-0.13932 0.30899,-0.31022c-0.00031,-0.17121 -0.13932,-0.3093 -0.31022,-0.30899l-1.23842,0.0031l-0.0096,-4.02487l0.94461,-0.00217l1.22263,-0.00279l0.00062,0.30961c0.00248,1.0895 0.81395,1.98952 1.86258,2.13813l0.00774,3.22639l0.00341,1.44245l0.00155,0.61921l-4.02487,0.00898zm2.76818,-7.74694l1.23842,-0.00279l0.00433,1.82636c-0.7059,-0.14211 -1.24028,-0.76627 -1.24214,-1.51397l-0.00062,-0.30961zm-2.78861,-0.61209l-0.01238,-5.26329l2.47746,-0.00619l0.00279,1.23842c0.00031,0.17121 0.13932,0.3093 0.31022,0.30899s0.3093,-0.13932 0.30899,-0.31022l-0.0031,-1.23842l3.40566,-0.00805l0.0065,2.81121c-1.04801,0.15356 -1.85515,1.0573 -1.85268,2.1468l0.00062,0.30961l-4.64408,0.01115zm9.61602,7.4073l-4.95368,0.01176l-0.00093,-0.43438l-0.00248,-1.11365l5.26329,-0.01238l0.00279,1.23842c0.00031,0.1709 -0.13808,0.30991 -0.30899,0.31022zm-4.95894,-2.15547l-0.00186,-0.75729l-0.00929,-3.88678l3.09605,-0.00743l0.00062,0.30961c0.00279,1.19477 0.97742,2.16507 2.1725,2.16197c0.1709,-0.00031 0.3093,-0.13932 0.30899,-0.31022l-0.00526,-2.16724l0.61921,-0.00155l2.78645,-0.0065l0.01115,4.64408l-8.97855,0.02136z"/>
    </g>
   </g>
   <g stroke="null" id="svg_7">
    <g stroke="null" id="svg_8">
     <path stroke="null" id="svg_9" d="m17.44461,15.86531c-0.00124,-0.51271 -0.4189,-0.9282 -0.93098,-0.92696l-1.23842,0.0031c-0.51209,0.00124 -0.92789,0.4189 -0.92665,0.93098l0.00279,1.23842c0.00031,0.17121 0.13932,0.3093 0.31022,0.30899l2.47684,-0.00588c0.1709,-0.00031 0.3093,-0.13932 0.30899,-0.31022l-0.00279,-1.23842zm-2.47467,0.93439l-0.00217,-0.92882c-0.00031,-0.1709 0.13808,-0.30991 0.30899,-0.31022l1.23842,-0.0031c0.17059,-0.00031 0.30991,0.13808 0.31022,0.30899l0.00217,0.92882l-1.85763,0.00433z"/>
    </g>
   </g>
   <g stroke="null" id="svg_10"/>
   <g stroke="null" id="svg_11"/>
   <g stroke="null" id="svg_12"/>
   <g stroke="null" id="svg_13"/>
   <g stroke="null" id="svg_14"/>
   <g stroke="null" id="svg_15"/>
   <g stroke="null" id="svg_16"/>
   <g stroke="null" id="svg_17"/>
   <g stroke="null" id="svg_18"/>
   <g stroke="null" id="svg_19"/>
   <g stroke="null" id="svg_20"/>
   <g stroke="null" id="svg_21"/>
   <g stroke="null" id="svg_22"/>
   <g stroke="null" id="svg_23"/>
   <g stroke="null" id="svg_24"/>
  </g>
 </g>
</svg>