<svg width="20" height="20" xmlns="http://www.w3.org/2000/svg">

 <g>
  <title>Layer 1</title>
  <g stroke="null" id="svg_24">
   <path stroke="null" id="svg_1" d="m19.9334,9.94508a0.3298,0.34152 0 0 0 -0.1705,-0.29883l-3.0631,-1.75027l0.13126,-0.07501a0.3298,0.34152 0 0 0 -0.31858,-0.59808l-0.52866,0.30203c-0.0216,0.01234 -0.21165,0.1238 -0.25559,0.20611a0.3298,0.34152 0 0 0 0.12949,0.46399l3.06298,1.75027l-8.88115,5.07399l-8.88136,-5.07421l3.06298,-1.75006a0.3298,0.34152 0 0 0 0.1294,-0.46399c-0.04386,-0.08239 -0.23387,-0.19377 -0.25559,-0.20606l-0.52866,-0.30207a0.3298,0.34152 0 0 0 -0.31862,0.59808l0.13159,0.07501l-3.06298,1.75027a0.3298,0.34152 0 0 0 0,0.59808l3.06298,1.75027l-3.06298,1.75027a0.3298,0.34152 0 0 0 0,0.59808l9.56407,5.46426a0.3298,0.34152 0 0 0 0.31867,0l9.56407,-5.46426a0.3298,0.34152 0 0 0 0,-0.59808l-3.06331,-1.7507l3.06298,-1.75006a0.3298,0.34152 0 0 0 0.17063,-0.29904zm-1.01251,4.0982l-8.88136,5.07421l-8.88136,-5.07421l2.90381,-1.65904l5.81821,3.32415a0.3298,0.34152 0 0 0 0.31867,0l5.81821,-3.32415l2.90381,1.65904z"/>
   <path stroke="null" id="svg_2" d="m9.91009,0.84661l0.12944,-0.07394l0.12944,0.07394a0.3298,0.34152 0 0 0 0.31862,-0.59808l-0.28878,-0.16474a0.3298,0.34152 0 0 0 -0.31858,0l-0.28857,0.16495a0.3298,0.34152 0 0 0 0.31862,0.59808l-0.00021,-0.00021z"/>
   <path stroke="null" id="svg_3" d="m11.22622,1.45067l0.52858,0.30203a0.3298,0.34152 0 1 0 0.31871,-0.59808l-0.52862,-0.30203a0.3298,0.34152 0 1 0 -0.31867,0.59808z"/>
   <path stroke="null" id="svg_4" d="m12.81208,2.35671l0.52862,0.30199a0.3298,0.34152 0 0 0 0.31862,-0.59804l-0.52866,-0.30203a0.3298,0.34152 0 1 0 -0.31858,0.59808z"/>
   <path stroke="null" id="svg_5" d="m15.98381,4.1688l0.52862,0.30203a0.3298,0.34152 0 0 0 0.31858,-0.59808l-0.52858,-0.30199a0.3298,0.34152 0 0 0 -0.31862,0.59804z"/>
   <path stroke="null" id="svg_6" d="m17.56967,5.07488l0.52862,0.30199a0.3298,0.34152 0 0 0 0.31862,-0.59808l-0.52862,-0.30199a0.3298,0.34152 0 1 0 -0.31862,0.59808z"/>
   <path stroke="null" id="svg_7" d="m14.39795,3.26275l0.52858,0.30203a0.3298,0.34152 0 0 0 0.31867,-0.59808l-0.52862,-0.30203a0.3298,0.34152 0 1 0 -0.31862,0.59808z"/>
   <path stroke="null" id="svg_8" d="m19.02605,6.17683a0.3298,0.34152 0 0 0 0.44807,0.13405l0.28857,-0.16495a0.3298,0.34152 0 0 0 0,-0.59808l-0.28857,-0.16495a0.3298,0.34152 0 0 0 -0.44811,0.46399a0.3298,0.34152 0 0 0 0.00004,0.32995z"/>
   <path stroke="null" id="svg_9" d="m14.92657,8.12893l-0.52862,0.30203a0.3298,0.34152 0 1 0 0.31867,0.59808l0.52858,-0.30203a0.3298,0.34152 0 1 0 -0.31862,-0.59808z"/>
   <path stroke="null" id="svg_10" d="m11.3858,10.88369a0.32835,0.34002 0 0 0 0.15904,-0.04269l0.52862,-0.30199a0.3298,0.34152 0 1 0 -0.31862,-0.59808l-0.52862,0.30199a0.3298,0.34152 0 0 0 0.15958,0.64064l0,0.00013z"/>
   <path stroke="null" id="svg_11" d="m13.3407,9.03502l-0.52858,0.30199a0.3298,0.34152 0 1 0 0.31858,0.59808l0.52862,-0.30203a0.3298,0.34152 0 1 0 -0.31862,-0.59804z"/>
   <path stroke="null" id="svg_12" d="m17.72925,7.25952a0.32852,0.34019 0 0 0 0.15909,-0.04269l0.52858,-0.30203a0.3298,0.34152 0 1 0 -0.31867,-0.59808l-0.52862,0.30203a0.3298,0.34152 0 0 0 0.15962,0.64064l0,0.00013z"/>
   <path stroke="null" id="svg_13" d="m9.59146,11.44523l0.28857,0.16495a0.3298,0.34152 0 0 0 0.31858,0l0.28878,-0.16495a0.3298,0.34152 0 0 0 -0.31862,-0.59808l-0.12924,0.07394l-0.12944,-0.07394a0.3298,0.34152 0 0 0 -0.31862,0.59808z"/>
   <path stroke="null" id="svg_14" d="m2.50939,6.61888l-0.52862,-0.30199a0.3298,0.34152 0 1 0 -0.31858,0.59808l0.52858,0.30199a0.3298,0.34152 0 1 0 0.31862,-0.59808z"/>
   <path stroke="null" id="svg_15" d="m5.68112,8.43101l-0.52858,-0.30203a0.3298,0.34152 0 1 0 -0.31867,0.59808l0.52862,0.30203a0.3298,0.34152 0 0 0 0.31862,-0.59808z"/>
   <path stroke="null" id="svg_16" d="m7.26698,9.33705l-0.52862,-0.30199a0.3298,0.34152 0 0 0 -0.31862,0.59804l0.52866,0.30203a0.3298,0.34152 0 0 0 0.31858,-0.59808z"/>
   <path stroke="null" id="svg_17" d="m8.85284,10.24309l-0.52858,-0.30203a0.3298,0.34152 0 1 0 -0.31867,0.59808l0.52862,0.30203a0.3298,0.34152 0 1 0 0.31862,-0.59808z"/>
   <path stroke="null" id="svg_18" d="m0.31617,6.14592l0.28857,0.16495a0.3298,0.34152 0 0 0 0.44827,-0.46399a0.3298,0.34152 0 0 0 -0.44811,-0.46399l-0.28857,0.16495a0.3298,0.34152 0 0 0 0,0.59808l-0.00016,0z"/>
   <path stroke="null" id="svg_19" d="m3.40759,4.51343a0.32868,0.34036 0 0 0 0.159,-0.04269l0.52866,-0.30203a0.3298,0.34152 0 1 0 -0.31862,-0.59804l-0.52862,0.30199a0.3298,0.34152 0 0 0 0.15958,0.64064l0,0.00013z"/>
   <path stroke="null" id="svg_20" d="m1.82177,5.41947a0.32831,0.33998 0 0 0 0.159,-0.04269l0.52862,-0.30203a0.3298,0.34152 0 1 0 -0.31867,-0.59808l-0.52858,0.30203a0.3298,0.34152 0 0 0 0.15962,0.64064l0,0.00013z"/>
   <path stroke="null" id="svg_21" d="m6.57932,2.7013a0.32835,0.34002 0 0 0 0.15904,-0.04269l0.52862,-0.30203a0.3298,0.34152 0 0 0 -0.31862,-0.59808l-0.52866,0.30207a0.3298,0.34152 0 0 0 0.15962,0.6406l0,0.00013z"/>
   <path stroke="null" id="svg_22" d="m8.16522,1.79526a0.32831,0.33998 0 0 0 0.159,-0.04269l0.52858,-0.30199a0.3298,0.34152 0 1 0 -0.31858,-0.59808l-0.52862,0.30199a0.3298,0.34152 0 0 0 0.15962,0.64064l0,0.00013z"/>
   <path stroke="null" id="svg_23" d="m4.99366,3.60739a0.32831,0.33998 0 0 0 0.159,-0.04269l0.52862,-0.30203a0.3298,0.34152 0 1 0 -0.31867,-0.59808l-0.52858,0.30203a0.3298,0.34152 0 0 0 0.15962,0.64077z"/>
  </g>
 </g>
</svg>