<svg width="20" height="20" xmlns="http://www.w3.org/2000/svg" xml:space="preserve" version="1.1">

 <g>
  <title>Layer 1</title>
  <g stroke="null" id="svg_22">
   <g stroke="null" id="svg_1">
    <g stroke="null" id="svg_2">
     <path stroke="null" id="svg_3" d="m19.71849,8.14066l-9.41365,-6.89248c-0.18153,-0.13289 -0.42814,-0.13289 -0.60959,0l-9.41373,6.89248c-0.22993,0.16838 -0.27989,0.49125 -0.11151,0.72118s0.49129,0.27982 0.72118,0.11151l9.10881,-6.66933l9.10881,6.66929c0.09185,0.0673 0.19859,0.09968 0.30441,0.09968c0.15887,0 0.31566,-0.07312 0.41674,-0.2112c0.16842,-0.2299 0.11846,-0.55277 -0.11148,-0.72114z"/>
    </g>
   </g>
   <g stroke="null" id="svg_4">
    <g stroke="null" id="svg_5">
     <path stroke="null" id="svg_6" d="m17.22408,9.09014c-0.28494,0 -0.51599,0.23102 -0.51599,0.51599l0,8.21328l-4.12788,0l0,-4.48333c0,-1.42274 -1.15751,-2.58017 -2.58017,-2.58017s-2.58017,1.15751 -2.58017,2.58017l0,4.48337l-4.12792,0l0,-8.21328c0,-0.28497 -0.23106,-0.51599 -0.51599,-0.51599s-0.51599,0.23102 -0.51599,0.51599l0,8.72931c0,0.28497 0.23106,0.51599 0.51599,0.51599l5.1599,0c0.27136,0 0.49342,-0.20965 0.51398,-0.47581c0.00124,-0.01206 0.00202,-0.02525 0.00202,-0.04018l0,-4.99936c0,-0.85368 0.6945,-1.54818 1.54818,-1.54818s1.54818,0.69453 1.54818,1.54818l0,4.99936c0,0.01486 0.00078,0.02781 0.00202,0.03972c0.02032,0.26636 0.24246,0.47628 0.51398,0.47628l5.1599,0c0.28497,0 0.51599,-0.23102 0.51599,-0.51599l0,-8.72931c-0.00004,-0.28501 -0.23106,-0.51603 -0.51603,-0.51603z"/>
    </g>
   </g>
   <g stroke="null" id="svg_7"/>
   <g stroke="null" id="svg_8"/>
   <g stroke="null" id="svg_9"/>
   <g stroke="null" id="svg_10"/>
   <g stroke="null" id="svg_11"/>
   <g stroke="null" id="svg_12"/>
   <g stroke="null" id="svg_13"/>
   <g stroke="null" id="svg_14"/>
   <g stroke="null" id="svg_15"/>
   <g stroke="null" id="svg_16"/>
   <g stroke="null" id="svg_17"/>
   <g stroke="null" id="svg_18"/>
   <g stroke="null" id="svg_19"/>
   <g stroke="null" id="svg_20"/>
   <g stroke="null" id="svg_21"/>
  </g>
 </g>
</svg>