<svg width="20" height="20" xmlns="http://www.w3.org/2000/svg" xml:space="preserve" version="1.1">

 <g>
  <title>Layer 1</title>
  <g stroke="null" id="svg_1">
   <g stroke="null" id="svg_2">
    <g stroke="null" id="svg_3">
     <path stroke="null" id="svg_4" d="m10,0.13209c-4.02007,0 -7.2905,3.27043 -7.2905,7.2905c0,1.32344 0.59353,2.7468 0.61841,2.80684c0.1917,0.45501 0.56995,1.16176 0.8427,1.57604l4.99871,7.57398c0.20456,0.31049 0.50733,0.48846 0.83069,0.48846s0.62613,-0.17797 0.83069,-0.48803l4.99914,-7.5744c0.27318,-0.41427 0.651,-1.12102 0.8427,-1.57604c0.02487,-0.05961 0.61798,-1.48297 0.61798,-2.80684c0,-4.02007 -3.27043,-7.2905 -7.2905,-7.2905zm5.88172,9.76456c-0.17111,0.40784 -0.5232,1.06527 -0.76808,1.43666l-4.99914,7.5744c-0.09864,0.14967 -0.12994,0.14967 -0.22858,0l-4.99914,-7.5744c-0.24488,-0.37139 -0.59696,-1.02925 -0.76808,-1.43709c-0.00729,-0.01758 -0.55151,-1.32773 -0.55151,-2.47362c0,-3.54704 2.88575,-6.4328 6.4328,-6.4328c3.54704,0 6.4328,2.88575 6.4328,6.4328c0,1.14761 -0.5455,2.46119 -0.55108,2.47405z"/>
     <path stroke="null" id="svg_5" d="m10,3.56334c-2.1284,0 -3.85968,1.73171 -3.85968,3.85968c0,2.12797 1.73128,3.85968 3.85968,3.85968c2.1284,0 3.85968,-1.73171 3.85968,-3.85968c0,-2.12797 -1.73128,-3.85968 -3.85968,-3.85968zm0,6.86165c-1.65494,0 -3.00197,-1.3466 -3.00197,-3.00197s1.34703,-3.00197 3.00197,-3.00197s3.00197,1.3466 3.00197,3.00197s-1.34703,3.00197 -3.00197,3.00197z"/>
    </g>
   </g>
  </g>
  <g id="svg_6"/>
  <g id="svg_7"/>
  <g id="svg_8"/>
  <g id="svg_9"/>
  <g id="svg_10"/>
  <g id="svg_11"/>
  <g id="svg_12"/>
  <g id="svg_13"/>
  <g id="svg_14"/>
  <g id="svg_15"/>
  <g id="svg_16"/>
  <g id="svg_17"/>
  <g id="svg_18"/>
  <g id="svg_19"/>
  <g id="svg_20"/>
 </g>
</svg>