<svg width="20" height="20" xmlns="http://www.w3.org/2000/svg" enable-background="new 0 0 24 24">

 <g>
  <title>Layer 1</title>
  <g stroke="null" id="svg_7">
   <path stroke="null" id="svg_1" d="m9.17848,20.02578c-3.13403,0 -5.00644,-5.09155 -5.00644,-10.01289c0,-3.26671 1.22408,-10.01289 5.00644,-10.01289c1.76894,0 3.35599,1.75476 4.24547,4.69354c0.06675,0.22028 -0.05757,0.45308 -0.27786,0.52067c-0.22112,0.06675 -0.45308,-0.05841 -0.52067,-0.27786c-0.76599,-2.53076 -2.08685,-4.10195 -3.44694,-4.10195c-2.84616,0 -4.17204,5.47705 -4.17204,9.17848c0,4.97474 1.91079,9.17848 4.17204,9.17848c1.31085,0 2.60419,-1.48441 3.37434,-3.87499c0.05591,-0.17272 0.21611,-0.28954 0.39718,-0.28954c0.2303,0 0.42138,0.18691 0.42138,0.4172c0,0.06759 -0.01585,0.131 -0.04339,0.18774c-0.90199,2.75271 -2.44982,4.39399 -4.14951,4.39399z"/>
   <path stroke="null" id="svg_2" d="m12.93332,5.84085c-0.11014,0 -0.21611,-0.04339 -0.29538,-0.12182l-1.66881,-1.66881c-0.16271,-0.16271 -0.16271,-0.42722 0,-0.58993s0.42722,-0.16271 0.58993,0l1.32838,1.32838l0.96374,-1.28415c0.13851,-0.1844 0.39968,-0.22195 0.58409,-0.08344s0.22195,0.39968 0.08344,0.58409l-1.25161,1.66881c-0.07259,0.09679 -0.18357,0.15687 -0.30372,0.16605c-0.01085,0.00083 -0.02003,0.00083 -0.03004,0.00083z"/>
   <path stroke="null" id="svg_3" d="m10.01289,16.06234c-4.92134,0 -10.01289,-1.87241 -10.01289,-5.00644c0,-1.70553 1.66464,-3.2642 4.4524,-4.1687c0.21861,-0.07009 0.45475,0.0484 0.52568,0.26784s-0.04923,0.45392 -0.26784,0.52568c-2.42729,0.78768 -3.87582,2.0493 -3.87582,3.37518c0,2.49571 4.74611,4.17204 9.17848,4.17204c3.70143,0 9.17848,-1.32587 9.17848,-4.17204c0,-1.38094 -1.62459,-2.721 -4.24046,-3.49617c-0.22112,-0.06592 -0.34711,-0.29788 -0.2812,-0.519c0.06592,-0.22028 0.29705,-0.34711 0.519,-0.2812c3.0289,0.89782 4.83706,2.50406 4.83706,4.29636c0,3.78237 -6.74618,5.00644 -10.01289,5.00644z"/>
   <path stroke="null" id="svg_4" d="m16.27095,9.38708c-0.1068,0 -0.21361,-0.04089 -0.29538,-0.12182l-1.66881,-1.66881c-0.08594,-0.08594 -0.12933,-0.2036 -0.12099,-0.32458s0.06926,-0.23113 0.16605,-0.30372l1.66881,-1.25161c0.1844,-0.13851 0.44557,-0.1018 0.58409,0.08344c0.13851,0.1844 0.10096,0.44557 -0.08344,0.58409l-1.28415,0.96291l1.32838,1.32838c0.16271,0.16271 0.16271,0.42722 0,0.58993c-0.08094,0.08094 -0.18774,0.12182 -0.29455,0.12182z"/>
   <path stroke="null" id="svg_5" d="m10.01289,13.35052c-1.8407,0 -3.33763,-1.49693 -3.33763,-3.33763s1.49693,-3.33763 3.33763,-3.33763s3.33763,1.49693 3.33763,3.33763s-1.49693,3.33763 -3.33763,3.33763zm0,-5.84085c-1.38011,0 -2.50322,1.12311 -2.50322,2.50322s1.12311,2.50322 2.50322,2.50322s2.50322,-1.12311 2.50322,-2.50322s-1.12311,-2.50322 -2.50322,-2.50322z"/>
   <path stroke="null" id="svg_6" d="m10.01289,10.8473c-0.45976,0 -0.83441,-0.37465 -0.83441,-0.83441s0.37465,-0.83441 0.83441,-0.83441s0.83441,0.37465 0.83441,0.83441s-0.37465,0.83441 -0.83441,0.83441z"/>
  </g>
 </g>
</svg>