<svg width="20" height="20" xmlns="http://www.w3.org/2000/svg">

 <g>
  <title>Layer 1</title>
  <path stroke="null" id="svg_1" d="m19.63038,15.97841l-1.33087,0l0,-1.33087c0,-0.18374 -0.14898,-0.33272 -0.33272,-0.33272l-2.32903,0l0,-0.99815l1.66359,0c0.18374,0 0.33272,-0.14898 0.33272,-0.33272l0,-3.99262c0,-0.18374 -0.14898,-0.33272 -0.33272,-0.33272l-1.66359,0l0,-1.33087c0,-0.18374 -0.14898,-0.33272 -0.33272,-0.33272l-4.99077,0l0,-0.99815l1.99631,0c0.18374,0 0.33272,-0.14898 0.33272,-0.33272l0,-4.65806c0,-0.18374 -0.14898,-0.33272 -0.33272,-0.33272l-4.65806,0c-0.18374,0 -0.33272,0.14898 -0.33272,0.33272l0,4.65806c0,0.18374 0.14898,0.33272 0.33272,0.33272l1.99631,0l0,0.99815l-4.99077,0c-0.18374,0 -0.33272,0.14898 -0.33272,0.33272l0,1.33087l-1.66359,0c-0.18374,0 -0.33272,0.14898 -0.33272,0.33272l0,3.99262c0,0.18374 0.14898,0.33272 0.33272,0.33272l1.66359,0l0,0.99815l-2.32903,0c-0.18374,0 -0.33272,0.14898 -0.33272,0.33272l0,1.33087l-1.33087,0c-0.18374,0 -0.33272,0.14898 -0.33272,0.33272l0,3.32718c0,0.18374 0.14898,0.33272 0.33272,0.33272l3.32718,0c0.18374,0 0.33272,-0.14898 0.33272,-0.33272l0,-3.32718c0,-0.18374 -0.14898,-0.33272 -0.33272,-0.33272l-1.33087,0l0,-0.99815l4.65806,0l0,0.99815l-1.33087,0c-0.18374,0 -0.33272,0.14898 -0.33272,0.33272l0,3.32718c0,0.18374 0.14898,0.33272 0.33272,0.33272l3.32718,0c0.18374,0 0.33272,-0.14898 0.33272,-0.33272l0,-3.32718c0,-0.18374 -0.14898,-0.33272 -0.33272,-0.33272l-1.33087,0l0,-1.33087c0,-0.18374 -0.14898,-0.33272 -0.33272,-0.33272l-2.32903,0l0,-0.99815l1.66359,0c0.18374,0 0.33272,-0.14898 0.33272,-0.33272l0,-3.99262c0,-0.18374 -0.14898,-0.33272 -0.33272,-0.33272l-1.66359,0l0,-0.99815l9.98155,0l0,0.99815l-1.66359,0c-0.18374,0 -0.33272,0.14898 -0.33272,0.33272l0,3.99262c0,0.18374 0.14898,0.33272 0.33272,0.33272l1.66359,0l0,0.99815l-2.32903,0c-0.18374,0 -0.33272,0.14898 -0.33272,0.33272l0,1.33087l-1.33087,0c-0.18374,0 -0.33272,0.14898 -0.33272,0.33272l0,3.32718c0,0.18374 0.14898,0.33272 0.33272,0.33272l3.32718,0c0.18374,0 0.33272,-0.14898 0.33272,-0.33272l0,-3.32718c0,-0.18374 -0.14898,-0.33272 -0.33272,-0.33272l-1.33087,0l0,-0.99815l4.65806,0l0,0.99815l-1.33087,0c-0.18374,0 -0.33272,0.14898 -0.33272,0.33272l0,3.32718c0,0.18374 0.14898,0.33272 0.33272,0.33272l3.32718,0c0.18374,0 0.33272,-0.14898 0.33272,-0.33272l0,-3.32718c0,-0.18374 -0.14898,-0.33272 -0.33272,-0.33272zm-16.3032,0.66544l0,2.66175l-2.66175,0l0,-2.66175l2.66175,0zm5.32349,0l0,2.66175l-2.66175,0l0,-2.66175l2.66175,0zm-2.32903,-7.3198l0,3.32718l-3.32718,0l0,-3.32718l3.32718,0zm1.66359,-3.99262l0,-3.99262l3.99262,0l0,3.99262l-3.99262,0zm5.98893,11.31242l0,2.66175l-2.66175,0l0,-2.66175l2.66175,0zm-0.33272,-3.99262l0,-3.32718l3.32718,0l0,3.32718l-3.32718,0zm5.65621,6.65437l-2.66175,0l0,-2.66175l2.66175,0l0,2.66175zm0,0"/>
 </g>
</svg>