<svg width="20" height="20" xmlns="http://www.w3.org/2000/svg" xml:space="preserve" version="1.1">

 <g>
  <title>Layer 1</title>
  <g id="svg_19"/>
  <g id="svg_20"/>
  <g id="svg_21"/>
  <g id="svg_22"/>
  <g id="svg_23"/>
  <g id="svg_24"/>
  <g id="svg_25"/>
  <g id="svg_26"/>
  <g id="svg_27"/>
  <g id="svg_28"/>
  <g id="svg_29"/>
  <g id="svg_30"/>
  <g id="svg_31"/>
  <g id="svg_32"/>
  <g id="svg_33"/>
  <g stroke="null" id="svg_34">
   <g stroke="null" id="svg_1">
    <g stroke="null" id="svg_2">
     <path stroke="null" id="svg_3" d="m4.28693,1.53619l-4.31231,0c-0.23371,0 -0.42319,0.18948 -0.42319,0.42319l0,4.30808c0,0.23371 0.18948,0.42319 0.42319,0.42319c0.23371,0 0.42319,-0.18948 0.42319,-0.42319l0,-3.88489l3.88912,0c0.23371,0 0.42319,-0.18948 0.42319,-0.42319s-0.18948,-0.42319 -0.42319,-0.42319z"/>
    </g>
   </g>
   <g stroke="null" id="svg_4">
    <g stroke="null" id="svg_5">
     <path stroke="null" id="svg_6" d="m20.02538,1.53619l-4.31231,0c-0.23371,0 -0.42319,0.18948 -0.42319,0.42319s0.18948,0.42319 0.42319,0.42319l3.88912,0l0,3.88912c0,0.23371 0.18948,0.42319 0.42319,0.42319s0.42319,-0.18948 0.42319,-0.42319l0,-4.31231c0,-0.23371 -0.18948,-0.42319 -0.42319,-0.42319z"/>
    </g>
   </g>
   <g stroke="null" id="svg_7">
    <g stroke="null" id="svg_8">
     <path stroke="null" id="svg_9" d="m4.28693,17.61743l-3.88912,0l0,-3.88489c0,-0.23371 -0.18948,-0.42319 -0.42319,-0.42319c-0.23371,0 -0.42319,0.18948 -0.42319,0.42319l0,4.30808c0,0.23371 0.18948,0.42319 0.42319,0.42319l4.31231,0c0.23371,0 0.42319,-0.18948 0.42319,-0.42319s-0.18948,-0.42319 -0.42319,-0.42319z"/>
    </g>
   </g>
   <g stroke="null" id="svg_10">
    <g stroke="null" id="svg_11">
     <path stroke="null" id="svg_12" d="m20.02538,13.30935c-0.23371,0 -0.42319,0.18948 -0.42319,0.42319l0,3.88489l-3.88912,0c-0.23371,0 -0.42319,0.18948 -0.42319,0.42319s0.18948,0.42319 0.42319,0.42319l4.31231,0c0.23371,0 0.42319,-0.18948 0.42319,-0.42319l0,-4.30808c0,-0.23371 -0.18948,-0.42319 -0.42319,-0.42319z"/>
    </g>
   </g>
   <g stroke="null" id="svg_13">
    <g stroke="null" id="svg_14">
     <path stroke="null" id="svg_15" d="m19.44985,9.71646c-0.16928,-0.19044 -4.23191,-4.6551 -9.37367,-4.6551s-9.20439,4.46466 -9.38637,4.6551c-0.14537,0.16108 -0.14537,0.406 0,0.56708c0.16928,0.19044 4.23191,4.6551 9.37367,4.6551s9.21709,-4.46466 9.38637,-4.6551c0.14537,-0.16108 0.14537,-0.406 0,-0.56708zm-17.84595,0.28354c0.74905,-0.74058 2.96233,-2.73804 5.75539,-3.63944c-1.99201,2.0174 -1.99201,5.26148 0,7.27888c-2.80152,-0.9014 -5.00634,-2.89886 -5.75539,-3.63944zm8.47228,3.92298l-0.00846,0c-1.85357,0 -3.36437,-1.76047 -3.36437,-3.92298s1.51079,-3.92298 3.36437,-3.92298c1.85357,0 3.36437,1.76047 3.36437,3.92298s-1.50233,3.92298 -3.3559,3.92298zm2.71688,-0.28354l-0.00846,-0.00423c1.99201,-2.0174 1.99201,-5.26148 0,-7.27888c2.80152,0.89716 5.00634,2.89886 5.75539,3.63944c-0.74058,0.74482 -2.94541,2.74227 -5.74693,3.64367z"/>
    </g>
   </g>
   <g stroke="null" id="svg_16">
    <g stroke="null" id="svg_17">
     <path stroke="null" id="svg_18" d="m10.07617,8.33263c-0.92086,0 -1.66737,0.74651 -1.66737,1.66737c0,0.92086 0.74651,1.66737 1.66737,1.66737s1.66737,-0.74651 1.66737,-1.66737s-0.74651,-1.66737 -1.66737,-1.66737zm0,2.48836c-0.4534,0 -0.82099,-0.36754 -0.82099,-0.82099s0.36759,-0.82099 0.82099,-0.82099s0.82099,0.36759 0.82099,0.82099c0,0.4534 -0.36759,0.82099 -0.82099,0.82099z"/>
    </g>
   </g>
  </g>
 </g>
</svg>