<svg width="20" height="20" xmlns="http://www.w3.org/2000/svg" xml:space="preserve" version="1.1">

 <g>
  <title>Layer 1</title>
  <g stroke="null" id="svg_1">
   <g stroke="null" id="svg_2">
    <path stroke="null" id="svg_3" d="m14.6502,3.42993c-0.30205,0 -0.58586,0.08134 -0.82984,0.22324l0,-0.22324c0,-0.91534 -0.74437,-1.65971 -1.65971,-1.65971c-0.30205,0 -0.58586,0.08134 -0.82984,0.22324l0,-0.22324c0,-0.9153 -0.74437,-1.65967 -1.65971,-1.65967s-1.65971,0.74437 -1.65971,1.65971l0,0.22324c-0.24398,-0.1419 -0.52778,-0.22324 -0.82984,-0.22324c-0.91534,0 -1.65971,0.74437 -1.65971,1.65971l0,8.04204l-2.28124,-1.14103c-0.34356,-0.17182 -0.72862,-0.26226 -1.11283,-0.26226c-0.87465,0 -1.58502,0.71119 -1.58502,1.59c0,0.42404 0.16513,0.82155 0.46473,1.12111l5.36578,5.36578c1.21241,1.21326 2.82649,1.88128 4.5426,1.88128c2.97419,0 5.39403,-2.41984 5.39403,-5.39403l0,-9.54324c0,-0.91534 -0.74437,-1.65971 -1.65971,-1.65971zm0.82984,11.20295c0,2.51693 -2.04808,4.56415 -4.56501,4.56415c-1.49454,0 -2.89865,-0.58174 -3.95421,-1.63894l-5.3666,-5.36578c-0.14272,-0.1419 -0.22157,-0.33193 -0.22157,-0.53856c0,-0.41657 0.33858,-0.75515 0.75515,-0.75515c0.25642,0 0.51203,0.06057 0.74188,0.17508l2.88208,1.44063c0.12778,0.06391 0.28214,0.05726 0.40331,-0.01824c0.12199,-0.0755 0.19667,-0.20912 0.19667,-0.3527l0,-8.7134c0,-0.45726 0.37176,-0.82987 0.82984,-0.82987s0.82984,0.37261 0.82984,0.82984l0,5.39403c0,0.22904 0.1859,0.41494 0.41494,0.41494c0.22904,0 0.41494,-0.1859 0.41494,-0.41494l0,-7.0537c0,-0.45726 0.37176,-0.82984 0.82984,-0.82984s0.82984,0.37261 0.82984,0.82984l0,7.0537c0,0.22904 0.1859,0.41494 0.41494,0.41494s0.41494,-0.1859 0.41494,-0.41494l0,-5.39403c0,-0.45722 0.37176,-0.82984 0.82984,-0.82984s0.82984,0.37261 0.82984,0.82984l0,5.39403c0,0.22904 0.1859,0.41494 0.41494,0.41494c0.22904,0 0.41494,-0.1859 0.41494,-0.41494l0,-3.73432c0,-0.45726 0.37176,-0.82984 0.82984,-0.82984s0.82984,0.37261 0.82984,0.82984l0,9.54324z"/>
   </g>
  </g>
  <g id="svg_4"/>
  <g id="svg_5"/>
  <g id="svg_6"/>
  <g id="svg_7"/>
  <g id="svg_8"/>
  <g id="svg_9"/>
  <g id="svg_10"/>
  <g id="svg_11"/>
  <g id="svg_12"/>
  <g id="svg_13"/>
  <g id="svg_14"/>
  <g id="svg_15"/>
  <g id="svg_16"/>
  <g id="svg_17"/>
  <g id="svg_18"/>
 </g>
</svg>