<svg width="20" height="20" xmlns="http://www.w3.org/2000/svg" version="1.1" xml:space="preserve">
 <g>
  <title>Layer 1</title>
  <g stroke="null" id="svg_1">
   <path stroke="null" d="m15.79881,10.40224c-0.61011,-0.7655 -1.29963,-1.14804 -2.06905,-1.14804l0,-5.96816c0.40402,0 0.75407,-0.14763 1.04896,-0.44289c0.2955,-0.2953 0.4433,-0.64514 0.4433,-1.04912c0,-0.40418 -0.14779,-0.75382 -0.4433,-1.04912c-0.29489,-0.2953 -0.6449,-0.44297 -1.04896,-0.44297l-7.4598,0c-0.40418,0 -0.75382,0.14767 -1.04912,0.44297c-0.29534,0.2953 -0.44297,0.6449 -0.44297,1.04912c0,0.40414 0.14763,0.75382 0.44297,1.04912c0.2953,0.29526 0.64506,0.44289 1.04912,0.44289l0,5.96799c-0.76934,0 -1.4589,0.38271 -2.06897,1.14817c-0.60999,0.7655 -0.91509,1.62588 -0.91509,2.58196c0,0.20201 0.07386,0.37691 0.22152,0.5245c0.14775,0.14751 0.32257,0.22132 0.52462,0.22132l4.7091,0l0.88586,5.65342c0.03879,0.20989 0.16314,0.31465 0.37295,0.31465l0.01188,0c0.09284,0 0.1729,-0.03299 0.23888,-0.09892c0.06593,-0.0661 0.10672,-0.14583 0.12223,-0.23904l0.59435,-5.63007l5.00052,0c0.20201,0 0.37707,-0.07381 0.5245,-0.22132c0.14783,-0.14755 0.22177,-0.32245 0.22177,-0.5245c0.00012,-0.95596 -0.30526,-1.81646 -0.91529,-2.58196l0,0zm-6.91786,-1.521c0,0.10868 -0.03491,0.19797 -0.10492,0.26803c-0.06994,0.06998 -0.15935,0.10492 -0.26811,0.10492c-0.10868,0 -0.19813,-0.03491 -0.26811,-0.10492c-0.06994,-0.06994 -0.10484,-0.15935 -0.10484,-0.26803l0,-5.22201c0,-0.10876 0.03491,-0.19834 0.10484,-0.26811c0.06998,-0.06985 0.15943,-0.10484 0.26811,-0.10484c0.10876,0 0.19817,0.03487 0.26811,0.10484c0.06998,0.0699 0.10492,0.15935 0.10492,0.26811l0,5.22201z" id="svg_2"/>
  </g>
  <g id="svg_3"/>
  <g id="svg_4"/>
  <g id="svg_5"/>
  <g id="svg_6"/>
  <g id="svg_7"/>
  <g id="svg_8"/>
  <g id="svg_9"/>
  <g id="svg_10"/>
  <g id="svg_11"/>
  <g id="svg_12"/>
  <g id="svg_13"/>
  <g id="svg_14"/>
  <g id="svg_15"/>
  <g id="svg_16"/>
  <g id="svg_17"/>
 </g>

</svg>