<svg width="15" height="15" xmlns="http://www.w3.org/2000/svg" version="1.1" xml:space="preserve">
 <g>
  <title>Layer 1</title>
  <g id="svg_7"/>
  <g id="svg_8"/>
  <g id="svg_9"/>
  <g id="svg_10"/>
  <g id="svg_11"/>
  <g id="svg_12"/>
  <g id="svg_13"/>
  <g id="svg_14"/>
  <g id="svg_15"/>
  <g id="svg_16"/>
  <g id="svg_17"/>
  <g id="svg_18"/>
  <g id="svg_19"/>
  <g id="svg_20"/>
  <g id="svg_21"/>
  <g stroke="null" id="svg_22">
   <g stroke="null" id="svg_1">
    <g stroke="null" id="svg_2">
     <path stroke="null" d="m14.30685,2.25671c-0.33455,-0.0305 -0.63041,0.21598 -0.66091,0.55049l-0.08059,0.88401c-1.36723,-2.14717 -3.74059,-3.58237 -6.49059,-3.58237c-2.95837,0 -5.5655,1.68846 -6.85972,4.22263c-0.15278,0.29915 -0.03412,0.66551 0.26503,0.81829c0.29921,0.15278 0.66551,0.03415 0.81829,-0.26503c1.0953,-2.14468 3.2948,-3.55947 5.7764,-3.55947c2.26185,0 4.30307,1.17783 5.47248,3.02306l-0.86722,-0.61937c-0.27336,-0.19521 -0.65322,-0.13189 -0.84842,0.14144c-0.19521,0.27336 -0.13189,0.65319 0.14144,0.84842l2.62976,1.87819c0.38542,0.27476 0.91703,0.02323 0.95918,-0.43971l0.29532,-3.23964c0.03053,-0.33455 -0.21592,-0.63044 -0.55043,-0.66094l0,0z" id="svg_3"/>
    </g>
   </g>
   <g stroke="null" id="svg_4">
    <g stroke="null" id="svg_5">
     <path stroke="null" d="m14.41812,9.88593c-0.29706,-0.15167 -0.66079,-0.03388 -0.8125,0.26315c-1.08754,2.12949 -3.27148,3.53427 -5.73551,3.53427c-2.24584,0 -4.2726,-1.16949 -5.43373,-3.00165l0.86108,0.61499c0.27143,0.19382 0.64856,0.13096 0.84242,-0.14044c0.19382,-0.27143 0.13096,-0.64856 -0.14044,-0.84242l-2.61114,-1.86489c-0.37801,-0.27007 -0.91012,-0.02781 -0.95239,0.43659l-0.29323,3.2167c-0.03029,0.33215 0.21445,0.62595 0.54657,0.65623c0.33257,0.03023 0.62598,-0.21475 0.65623,-0.5466l0.08002,-0.87775c1.35752,2.132 3.71408,3.55704 6.44461,3.55704c2.93743,0 5.5261,-1.6765 6.81115,-4.19274c0.1517,-0.29703 0.03388,-0.66079 -0.26315,-0.8125l0,0z" id="svg_6"/>
    </g>
   </g>
  </g>
 </g>

</svg>