<svg width="20" height="20" xmlns="http://www.w3.org/2000/svg" enable-background="new 0 0 24 24">

 <g>
  <title>Layer 1</title>
  <g stroke="null" id="svg_8">
   <path stroke="null" id="svg_1" d="m9.96645,9.13591c-0.05066,0 -0.10133,-0.00914 -0.1495,-0.02741l-5.39849,-2.07634c-0.16029,-0.06146 -0.26577,-0.21594 -0.26577,-0.38786s0.10548,-0.3264 0.26577,-0.38786l5.39849,-2.07634c0.09551,-0.03654 0.20265,-0.03654 0.29816,0l5.39849,2.07634c0.16112,0.06146 0.2666,0.21594 0.2666,0.38786s-0.10548,0.3264 -0.26577,0.38786l-5.39849,2.07634c-0.04817,0.01827 -0.09883,0.02741 -0.1495,0.02741zm-4.24155,-2.49161l4.24155,1.63118l4.24155,-1.63118l-4.24155,-1.63118l-4.24155,1.63118z"/>
   <path stroke="null" id="svg_2" d="m9.96645,15.78021c-0.05066,0 -0.10133,-0.00914 -0.1495,-0.02741l-5.39849,-2.07634c-0.16029,-0.06146 -0.26577,-0.21594 -0.26577,-0.38786l0,-6.6443c0,-0.22923 0.18604,-0.41527 0.41527,-0.41527s0.41527,0.18604 0.41527,0.41527l0,6.35942l4.98322,1.91688l4.98322,-1.91688l0,-6.35942c0,-0.22923 0.18604,-0.41527 0.41527,-0.41527s0.41527,0.18604 0.41527,0.41527l0,6.6443c0,0.17192 -0.10548,0.3264 -0.26577,0.38786l-5.39849,2.07634c-0.04817,0.01827 -0.09883,0.02741 -0.1495,0.02741z"/>
   <path stroke="null" id="svg_3" d="m9.96645,15.78021c-0.22923,0 -0.41527,-0.18604 -0.41527,-0.41527l0,-6.6443c0,-0.22923 0.18604,-0.41527 0.41527,-0.41527s0.41527,0.18604 0.41527,0.41527l0,6.6443c0,0.22923 -0.18604,0.41527 -0.41527,0.41527z"/>
   <path stroke="null" id="svg_4" d="m0.41527,6.6443c-0.22923,0 -0.41527,-0.18604 -0.41527,-0.41527l0,-4.15269c0,-1.14448 0.93103,-2.07634 2.07634,-2.07634l4.15269,0c0.22923,0 0.41527,0.18604 0.41527,0.41527s-0.18604,0.41527 -0.41527,0.41527l-4.15269,0c-0.68685,0 -1.24581,0.55895 -1.24581,1.24581l0,4.15269c0,0.22923 -0.18604,0.41527 -0.41527,0.41527z"/>
   <path stroke="null" id="svg_5" d="m17.85655,19.93289l-4.15269,0c-0.22923,0 -0.41527,-0.18604 -0.41527,-0.41527s0.18604,-0.41527 0.41527,-0.41527l4.15269,0c0.68685,0 1.24581,-0.55895 1.24581,-1.24581l0,-4.15269c0,-0.22923 0.18604,-0.41527 0.41527,-0.41527s0.41527,0.18604 0.41527,0.41527l0,4.15269c0,1.14448 -0.93103,2.07634 -2.07634,2.07634z"/>
   <path stroke="null" id="svg_6" d="m19.51763,6.6443c-0.22923,0 -0.41527,-0.18604 -0.41527,-0.41527l0,-4.15269c0,-0.68685 -0.55895,-1.24581 -1.24581,-1.24581l-4.15269,0c-0.22923,0 -0.41527,-0.18604 -0.41527,-0.41527s0.18604,-0.41527 0.41527,-0.41527l4.15269,0c1.14531,0 2.07634,0.93186 2.07634,2.07634l0,4.15269c0,0.22923 -0.18604,0.41527 -0.41527,0.41527z"/>
   <path stroke="null" id="svg_7" d="m6.22903,19.93289l-4.15269,0c-1.14531,0 -2.07634,-0.93186 -2.07634,-2.07634l0,-4.15269c0,-0.22923 0.18604,-0.41527 0.41527,-0.41527s0.41527,0.18604 0.41527,0.41527l0,4.15269c0,0.68685 0.55895,1.24581 1.24581,1.24581l4.15269,0c0.22923,0 0.41527,0.18604 0.41527,0.41527s-0.18604,0.41527 -0.41527,0.41527z"/>
  </g>
 </g>
</svg>