<svg width="20" height="20" xmlns="http://www.w3.org/2000/svg" xml:space="preserve" version="1.1">

 <g>
  <title>Layer 1</title>
  <g stroke="null" id="svg_22">
   <g stroke="null" id="svg_1">
    <g stroke="null" id="svg_2">
     <path stroke="null" id="svg_3" d="m19.65153,3.91865l-3.56642,-3.56642c-0.38683,-0.38552 -1.01265,-0.38552 -1.39948,0l-3.92946,3.91065l-0.98566,0.98566l-0.98189,0.98942l-4.92828,4.92828l-0.98566,0.98566l-2.52622,2.52245c-0.38552,0.38683 -0.38552,1.01265 0,1.39948l3.57395,3.57395c0.38683,0.38552 1.01265,0.38552 1.39948,0l14.32964,-14.32964c0.38552,-0.38683 0.38552,-1.0126 0,-1.39948zm-0.3273,1.07218l-14.32964,14.32964c-0.20461,0.19398 -0.52523,0.19398 -0.72984,0l-3.57395,-3.57395c-0.20089,-0.20183 -0.20089,-0.528 0,-0.72984l2.35316,-2.36633l1.83964,1.83964c0.08817,0.09673 0.23809,0.10369 0.33482,0.01552c0.09673,-0.08817 0.10369,-0.23809 0.01552,-0.33482c-0.00494,-0.00541 -0.01011,-0.01058 -0.01552,-0.01552l-1.83964,-1.83964l0.65083,-0.65083l0.83517,0.83517c0.08817,0.09673 0.23809,0.10369 0.33482,0.01552c0.09673,-0.08817 0.10369,-0.23809 0.01552,-0.33482c-0.00494,-0.00541 -0.01011,-0.01058 -0.01552,-0.01552l-0.83894,-0.83517l0.65083,-0.65083l0.83517,0.83517c0.09673,0.08817 0.24665,0.08121 0.33482,-0.01552c0.08244,-0.09048 0.08244,-0.22883 0,-0.3193l-0.83517,-0.83517l0.65083,-0.65083l1.83964,1.83964c0.09673,0.08817 0.24665,0.08121 0.33482,-0.01552c0.08244,-0.09048 0.08244,-0.22883 0,-0.3193l-1.83964,-1.83964l0.65083,-0.65083l0.83517,0.83517c0.08817,0.09673 0.23809,0.10369 0.33482,0.01552s0.10369,-0.23809 0.01552,-0.33482c-0.00494,-0.00541 -0.01011,-0.01058 -0.01552,-0.01552l-0.83517,-0.83517l0.65083,-0.65083l0.83517,0.83517c0.09673,0.08817 0.24665,0.08121 0.33482,-0.01552c0.08244,-0.09048 0.08244,-0.22883 0,-0.3193l-0.82765,-0.83517l0.65083,-0.65083l1.83964,1.83964c0.10308,0.0807 0.25201,0.06254 0.33271,-0.04054c0.06781,-0.08662 0.06711,-0.20846 -0.00165,-0.29429l-1.8434,-1.83964l0.65083,-0.65083l0.83517,0.83517c0.08817,0.09673 0.23809,0.10369 0.33482,0.01552c0.09673,-0.08817 0.10369,-0.23809 0.01552,-0.33482c-0.00494,-0.00541 -0.01011,-0.01058 -0.01552,-0.01552l-0.83517,-0.83517l0.65083,-0.65083l0.83517,0.83517c0.09673,0.08817 0.24665,0.08121 0.33482,-0.01552c0.08244,-0.09048 0.08244,-0.22883 0,-0.3193l-0.83517,-0.83517l0.65083,-0.65083l1.83964,1.83964c0.09673,0.08817 0.24665,0.08121 0.33482,-0.01552c0.08244,-0.09048 0.08244,-0.22883 0,-0.3193l-1.83964,-1.83964l0.65083,-0.65083l0.83517,0.83517c0.09673,0.08817 0.24665,0.08121 0.33482,-0.01552c0.08244,-0.09048 0.08244,-0.22883 0,-0.3193l-0.83517,-0.83517l0.65083,-0.65083l1.83964,1.83964c0.09673,0.08817 0.24665,0.08121 0.33482,-0.01552c0.08244,-0.09048 0.08244,-0.22883 0,-0.3193l-1.83964,-1.83964l0.79379,-0.79379c0.20461,-0.19398 0.52523,-0.19398 0.72984,0l3.57395,3.57395c0.20089,0.20183 0.20089,0.528 0,0.72984l0.00941,0.00752z"/>
    </g>
   </g>
   <g stroke="null" id="svg_4">
    <g stroke="null" id="svg_5">
     <path stroke="null" id="svg_6" d="m4.3621,15.64448c-0.00047,-0.00047 -0.00094,-0.00094 -0.00141,-0.00141c-0.45206,-0.4498 -1.18255,-0.4498 -1.63461,0c-0.45215,0.4514 -0.45276,1.18387 -0.00141,1.63602c0.4514,0.45215 1.18387,0.45276 1.63602,0.00141c0.4522,-0.4514 0.45281,-1.18387 0.00141,-1.63602zm-0.33247,1.2965l-0.00188,0.00376c-0.26696,0.26781 -0.70049,0.26842 -0.9683,0.00146c-0.26781,-0.26696 -0.26842,-0.70049 -0.00146,-0.9683s0.70049,-0.26842 0.9683,-0.00146c0.00047,0.00047 0.00099,0.00099 0.00146,0.00146c0.26447,0.26631 0.26532,0.69579 0.00188,0.96308z"/>
    </g>
   </g>
   <g stroke="null" id="svg_7"/>
   <g stroke="null" id="svg_8"/>
   <g stroke="null" id="svg_9"/>
   <g stroke="null" id="svg_10"/>
   <g stroke="null" id="svg_11"/>
   <g stroke="null" id="svg_12"/>
   <g stroke="null" id="svg_13"/>
   <g stroke="null" id="svg_14"/>
   <g stroke="null" id="svg_15"/>
   <g stroke="null" id="svg_16"/>
   <g stroke="null" id="svg_17"/>
   <g stroke="null" id="svg_18"/>
   <g stroke="null" id="svg_19"/>
   <g stroke="null" id="svg_20"/>
   <g stroke="null" id="svg_21"/>
  </g>
 </g>
</svg>