<svg width="20" height="20" xmlns="http://www.w3.org/2000/svg" enable-background="new 0 0 24 24">

 <g>
  <title>Layer 1</title>
  <path stroke="null" id="svg_1" d="m19.66492,12.12748l-3.2103,-8.53729c-0.00083,-0.00166 -0.00083,-0.00332 -0.00166,-0.00498l-0.00083,-0.00083c-0.42317,-1.12597 -1.51595,-1.88187 -2.71826,-1.88187s-2.29509,0.7559 -2.71909,1.8827c-0.1228,0.32692 -0.18503,0.67127 -0.18503,1.02142l0,3.73387l-1.6595,0l0,-3.73387c0,-1.60142 -1.30271,-2.90412 -2.90412,-2.90412c-1.20231,0 -2.29509,0.7559 -2.71909,1.8827c-0.00083,0.00166 -0.00083,0.00332 -0.00166,0.00498l-3.2103,8.5348c0,0.00083 -0.00083,0.00083 -0.00083,0.00083c-0.19333,0.51527 -0.29124,1.05544 -0.29124,1.60805c0,2.51663 2.04782,4.56362 4.56362,4.56362s4.56362,-2.04699 4.56362,-4.56362l0,-0.41487l1.6595,0l0,0.41487c0,2.51663 2.04782,4.56362 4.56362,4.56362s4.56362,-2.04699 4.56362,-4.56362c0,-0.55261 -0.09791,-1.09278 -0.29207,-1.60639zm-15.05829,4.51052c-1.60142,0 -2.90412,-1.30271 -2.90412,-2.90412c0,-0.35181 0.06223,-0.69616 0.18503,-1.02225c0.42317,-1.12514 1.51595,-1.88187 2.71909,-1.88187c1.60142,0 2.90412,1.30271 2.90412,2.90412s-1.30271,2.90412 -2.90412,2.90412zm10.78674,0c-1.60142,0 -2.90412,-1.30271 -2.90412,-2.90412s1.30271,-2.90412 2.90412,-2.90412c1.20314,0 2.29592,0.75673 2.71909,1.88187c0.1228,0.32609 0.18503,0.67044 0.18503,1.02225c0,1.60142 -1.30271,2.90412 -2.90412,2.90412z"/>
 </g>
</svg>