<svg width="20" height="20" xmlns="http://www.w3.org/2000/svg">

 <g>
  <title>Layer 1</title>
  <g stroke="null" data-name="Out line" id="Out_line">
   <circle stroke="null" id="svg_1" r="0.32854" cy="13.61394" cx="5.56473"/>
   <path stroke="null" id="svg_2" d="m19.58647,0.23119a0.32848,0.32848 0 0 0 -0.3354,-0.06758a17.78038,17.78038 0 0 0 -6.45311,4.10974l-5.82286,5.82286l-6.18585,6.18585a1.63211,1.63211 0 0 0 -0.48114,1.1616l0,0.76981a1.6427,1.6427 0 0 0 3.28539,0a1.24941,1.24941 0 0 1 0.3684,-0.88937l3.47785,-3.47785l0.99949,-0.99949a1.27789,1.27789 0 0 1 1.80737,0l0.50668,0.50668a0.32866,0.32866 0 0 0 0.46466,0l2.3951,-2.3951a23.70688,23.70688 0 0 0 6.06686,-10.39803a0.32862,0.32862 0 0 0 -0.09344,-0.32914zm-12.70759,13.24667l-3.38164,3.3816a1.9023,1.9023 0 0 0 -0.56083,1.35402a0.98562,0.98562 0 0 1 -1.97123,0l0,-0.76981a0.97916,0.97916 0 0 1 0.28871,-0.69694l5.62499,-5.62503l0,2.35616zm1.9947,-1.60472a1.93557,1.93557 0 0 0 -0.89899,0.50897l-0.43863,0.43863l0,-2.35608l5.72665,-5.72665a17.12037,17.12037 0 0 1 4.37374,-3.1602a22.12608,22.12608 0 0 1 -5.1849,8.21895l-2.23078,2.23077a1.94436,1.94436 0 0 0 -1.34709,-0.15438zm4.27482,-1.37945l-2.16277,2.16282l-0.23229,-0.23233l2.16277,-2.16278a22.77958,22.77958 0 0 0 5.54593,-9.07356q0.19832,-0.08717 0.39869,-0.1692a23.05132,23.05132 0 0 1 -5.71234,9.47505z"/>
   <path stroke="null" id="svg_3" d="m8.19304,10.32855l0.65708,0l0,0.98562l-0.65708,0l0,-0.98562z"/>
   <path stroke="null" id="svg_4" d="m9.60136,9.11069l0.98546,-0.98546l0.46458,0.46458l-0.98546,0.98546l-0.46458,-0.46458z"/>
   <path stroke="null" id="svg_5" d="m11.24405,7.46837l0.98546,-0.98546l0.46458,0.46458l-0.98546,0.98546l-0.46458,-0.46458z"/>
   <circle stroke="null" id="svg_6" r="0.32854" cy="18.21349" cx="1.9508"/>
  </g>
 </g>
</svg>