<svg width="20" height="20" xmlns="http://www.w3.org/2000/svg" xml:space="preserve" version="1.1">

 <g>
  <title>Layer 1</title>
  <g stroke="null" id="svg_1">
   <g stroke="null" id="svg_2">
    <path stroke="null" id="svg_3" d="m10,0.13745c-5.43799,0 -9.86255,4.42455 -9.86255,9.86255s4.42455,9.86255 9.86255,9.86255s9.86255,-4.42455 9.86255,-9.86255s-4.42455,-9.86255 -9.86255,-9.86255zm5.51215,7.26714l-6.30313,6.25369c-0.37077,0.37077 -0.96401,0.39549 -1.3595,0.02472l-3.33695,-3.04033c-0.39549,-0.37077 -0.42021,-0.98873 -0.07415,-1.38422c0.37077,-0.39549 0.98873,-0.42021 1.38422,-0.04944l2.64484,2.42238l5.63574,-5.63574c0.39549,-0.39549 1.01344,-0.39549 1.40894,0c0.39549,0.39549 0.39549,1.01344 0,1.40894z"/>
   </g>
  </g>
  <g id="svg_4"/>
  <g id="svg_5"/>
  <g id="svg_6"/>
  <g id="svg_7"/>
  <g id="svg_8"/>
  <g id="svg_9"/>
  <g id="svg_10"/>
  <g id="svg_11"/>
  <g id="svg_12"/>
  <g id="svg_13"/>
  <g id="svg_14"/>
  <g id="svg_15"/>
  <g id="svg_16"/>
  <g id="svg_17"/>
  <g id="svg_18"/>
 </g>
</svg>