<svg width="20" height="20" xmlns="http://www.w3.org/2000/svg" xml:space="preserve" version="1.1">

 <g>
  <title>Layer 1</title>
  <g stroke="null" id="svg_1">
   <g stroke="null" id="svg_2">
    <g stroke="null" id="svg_3">
     <path stroke="null" id="svg_4" d="m17.34757,8.25428l-1.45232,-1.45232c-0.02579,-0.02579 -0.0582,-0.0417 -0.08924,-0.05968c0.00054,-0.02073 0.00335,-0.04108 0.00335,-0.06189c-0.00004,-3.66081 -2.97843,-6.63924 -6.63924,-6.63924s-6.63924,2.97843 -6.63924,6.63924c0,1.09979 0.27515,2.18904 0.7971,3.15509l5.47904,9.9094c0.07294,0.13211 0.21194,0.21396 0.36307,0.21396c0.15113,0 0.29013,-0.08185 0.36307,-0.21396l2.63485,-4.76546l4.26375,0c0.57221,0 1.03739,-0.46519 1.03739,-1.03739l0,-5.39435c0,-0.11025 -0.04376,-0.21559 -0.12157,-0.2934zm-8.17746,10.43217l-5.11395,-9.24889c-0.45507,-0.84207 -0.69537,-1.79516 -0.69537,-2.75716c0,-3.2029 2.60603,-5.80931 5.80931,-5.80931s5.80931,2.60638 5.80931,5.80931l-2.48971,0c0,-1.83083 -1.4892,-3.3196 -3.3196,-3.3196c-1.83041,0 -3.3196,1.48881 -3.3196,3.3196s1.4892,3.3196 3.3196,3.3196l0,3.94203c0,0.57217 0.46519,1.03739 1.03739,1.03739l1.01211,0l-2.0495,3.70703zm2.48971,-11.17616l2.07475,0l1.24486,0l0,1.46613c0,0.11429 -0.09321,0.20746 -0.20746,0.20746l-2.90468,0c-0.11429,0 -0.20746,-0.09321 -0.20746,-0.20746l0,-1.46613zm-1.45236,-0.82989c-0.57217,0 -1.03739,0.46519 -1.03739,1.03739l0,1.45232c-1.37292,0 -2.48971,-1.11679 -2.48971,-2.48971c0,-1.37292 1.11679,-2.48971 2.48971,-2.48971c1.37292,0 2.48971,1.11679 2.48971,2.48971l-1.45232,0zm4.77196,7.46914l-3.3196,0l0,-2.48971l3.3196,0l0,2.48971zm1.65982,-0.2075c0,0.11429 -0.09321,0.20746 -0.20746,0.20746l-0.62243,0l0,-2.90464c0,-0.22936 -0.1856,-0.41496 -0.41496,-0.41496l-4.14953,0c-0.22936,0 -0.41496,0.1856 -0.41496,0.41496l0,2.90468l-0.62243,0c-0.11429,0 -0.20746,-0.09321 -0.20746,-0.20746l0,-6.22428c0,-0.11429 0.09321,-0.20746 0.20746,-0.20746l0.62243,0l0,1.46613c0,0.57217 0.46519,1.03739 1.03739,1.03739l2.90468,0c0.57217,0 1.03739,-0.46519 1.03739,-1.03739l0,-1.08688l0.82989,0.82989l0,5.22256z"/>
     <path stroke="null" id="svg_5" d="m13.3196,7.92525l0,0.82989c0,0.22936 0.1856,0.41496 0.41496,0.41496c0.22936,0 0.41496,-0.1856 0.41496,-0.41496l0,-0.82989c0,-0.22936 -0.1856,-0.41496 -0.41496,-0.41496c-0.22936,0 -0.41496,0.1856 -0.41496,0.41496z"/>
    </g>
   </g>
  </g>
  <g id="svg_6"/>
  <g id="svg_7"/>
  <g id="svg_8"/>
  <g id="svg_9"/>
  <g id="svg_10"/>
  <g id="svg_11"/>
  <g id="svg_12"/>
  <g id="svg_13"/>
  <g id="svg_14"/>
  <g id="svg_15"/>
  <g id="svg_16"/>
  <g id="svg_17"/>
  <g id="svg_18"/>
  <g id="svg_19"/>
  <g id="svg_20"/>
 </g>
</svg>