<svg width="20" height="25" xmlns="http://www.w3.org/2000/svg" enable-background="new 0 0 64 64">

 <g>
  <title>Layer 1</title>
  <path stroke="null" id="svg_1" d="m11.61217,17.4444l-1.42024,-3.19573l0.85442,0.46582c0.06138,0.03374 0.12804,0.04959 0.19389,0.04959c0.1382,0 0.27275,-0.07073 0.34876,-0.19714l1.21944,-2.03239c0.11544,-0.19267 0.05325,-0.44225 -0.13942,-0.55769l-2.6478,-1.58892l0,-3.34694c0,-0.89466 -0.58492,-1.64786 -1.38975,-1.91817c0.60118,-0.52232 0.98327,-1.29016 0.98327,-2.14661c0,-1.5686 -1.27634,-2.84535 -2.84535,-2.84535s-2.84535,1.27675 -2.84535,2.84535c0,0.85645 0.38209,1.62429 0.98327,2.14661c-0.80483,0.27031 -1.38975,1.02351 -1.38975,1.91817l0,1.59787l-3.15915,3.83431c-0.13292,0.16137 -0.12154,0.39794 0.02642,0.5459l1.62591,1.62591c0.07642,0.07642 0.17966,0.1191 0.28738,0.1191c0.00447,0 0.00935,0 0.01382,-0.00041c0.11259,-0.00366 0.21869,-0.05406 0.29266,-0.13902l1.10969,-1.2735c0.16178,0.58289 0.42355,1.13164 0.77597,1.62795l-0.94547,4.09202l-2.39782,3.59693c-0.11707,0.1756 -0.08048,0.41136 0.08455,0.54306l2.03239,1.62591c0.07235,0.05813 0.16178,0.08902 0.25364,0.08902c0.01789,0 0.03618,-0.00122 0.05406,-0.00366c0.11016,-0.01463 0.20934,-0.07398 0.27437,-0.16381l3.25183,-4.47126c0.02683,-0.03699 0.04756,-0.07804 0.06057,-0.12194l0.55606,-1.84907l0.71743,0.71703l1.19301,5.17081c0.04268,0.18495 0.2069,0.31543 0.39632,0.31543l2.43887,0c0.12072,0 0.23576,-0.05406 0.31299,-0.14674s0.10894,-0.21543 0.08658,-0.33453l-1.21944,-6.50366c-0.00569,-0.0313 -0.01545,-0.06138 -0.02805,-0.09024zm-6.87518,-14.4682c0,-1.12066 0.91173,-2.03239 2.03239,-2.03239s2.03239,0.91173 2.03239,2.03239c0,0.48127 -0.17519,0.91823 -0.45607,1.26699c-0.22478,-0.22519 -0.35689,-0.53452 -0.35689,-0.86051l-0.81296,0c0,0.51785 0.20202,1.00807 0.54509,1.37837c-0.28535,0.15284 -0.60606,0.24755 -0.95157,0.24755c-1.12066,0 -2.03239,-0.91173 -2.03239,-2.03239zm-2.45919,10.78591l-1.05725,-1.05725l2.29701,-2.78763l0,2.01369c0,0.13007 0.00976,0.25852 0.0187,0.38697l-1.25846,1.44422zm4.1221,6.10287l-2.96079,4.07169l-1.40885,-1.12716l2.23197,-3.34816c0.02723,-0.04105 0.04675,-0.08617 0.05772,-0.13373l0.82678,-3.57823l1.91533,1.91533l-0.66215,2.20027zm3.94447,3.84163l-1.14668,-4.9692c-0.01707,-0.07439 -0.05487,-0.14227 -0.10894,-0.19592l-3.451,-3.451c-0.84263,-0.84304 -1.30723,-1.96532 -1.30723,-3.15956l0,-4.88994c0,-0.67232 0.54712,-1.21944 1.21944,-1.21944l2.43887,0c0.67232,0 1.21944,0.54712 1.21944,1.21944l0,2.85917l-0.47477,-0.28494l-0.7654,-2.2962l-0.77109,0.2573l0.81296,2.43887c0.03089,0.09227 0.09308,0.16991 0.17641,0.2199l3.71643,2.22953l-0.80971,1.3491l-4.00788,-2.18604l-1.57023,-3.5323l-0.74264,0.33006l1.62591,3.65831c0.03618,0.0813 0.09837,0.14877 0.17682,0.19186l2.63317,1.43649l0,0.23901c0,0.05691 0.01179,0.113 0.03496,0.16503l1.6064,3.61481l1.12066,5.97564l-1.62591,0z"/>
 </g>
</svg>