<svg width="20" height="20" xmlns="http://www.w3.org/2000/svg" xml:space="preserve" version="1.1">

 <g>
  <title>Layer 1</title>
  <g stroke="null" id="svg_22">
   <g stroke="null" id="svg_1">
    <g stroke="null" id="svg_2">
     <path stroke="null" id="svg_3" d="m17.58609,2.45209c-2.94746,-2.95562 -7.73285,-2.96229 -10.68847,-0.01483c-2.85188,2.84397 -2.97254,7.42465 -0.27441,10.41485l-0.57718,0.57718c-0.46632,-0.46637 -1.22243,-0.46647 -1.68881,-0.00015c-0.00005,0.00005 -0.0001,0.0001 -0.00015,0.00015l-3.94076,3.94076c-0.46637,0.46632 -0.46647,1.22243 -0.00015,1.68881c0.00005,0.00005 0.0001,0.0001 0.00015,0.00015l0.56285,0.56285c0.46632,0.46617 1.22223,0.46617 1.68856,0l3.94076,-3.94076c0.46637,-0.46632 0.46647,-1.22243 0.00015,-1.68881c-0.00005,-0.00005 -0.0001,-0.0001 -0.00015,-0.00015l0.57718,-0.57718c3.09688,2.79869 7.87615,2.55692 10.67483,-0.53991c2.7033,-2.99135 2.58254,-7.578 -0.27441,-10.42296zm-11.54006,12.66576l-3.94076,3.94076c-0.15544,0.15539 -0.40741,0.15539 -0.56285,0l-0.56285,-0.56325c-0.15514,-0.15539 -0.15514,-0.40706 0,-0.56245l3.94076,-3.94076c0.15743,-0.15052 0.40542,-0.15052 0.56285,0l0.56285,0.56325c0.15514,0.15539 0.15514,0.40706 0,0.56245zm10.97761,-2.53283c-2.6427,2.6426 -6.92733,2.64255 -9.56993,-0.00015s-2.64255,-6.92733 0.00015,-9.56993c2.64265,-2.64255 6.92713,-2.64255 9.56978,0c2.63837,2.64449 2.63837,6.92559 0,9.57008z"/>
    </g>
   </g>
   <g stroke="null" id="svg_4">
    <g stroke="null" id="svg_5">
     <path stroke="null" id="svg_6" d="m16.46039,3.57779l0,0l-0.56285,0.56285c2.0174,2.02233 2.0174,5.29594 0,7.31827l0.56285,0.56285c2.32843,-2.33311 2.32843,-6.11087 0,-8.44398z"/>
    </g>
   </g>
   <g stroke="null" id="svg_7"/>
   <g stroke="null" id="svg_8"/>
   <g stroke="null" id="svg_9"/>
   <g stroke="null" id="svg_10"/>
   <g stroke="null" id="svg_11"/>
   <g stroke="null" id="svg_12"/>
   <g stroke="null" id="svg_13"/>
   <g stroke="null" id="svg_14"/>
   <g stroke="null" id="svg_15"/>
   <g stroke="null" id="svg_16"/>
   <g stroke="null" id="svg_17"/>
   <g stroke="null" id="svg_18"/>
   <g stroke="null" id="svg_19"/>
   <g stroke="null" id="svg_20"/>
   <g stroke="null" id="svg_21"/>
  </g>
 </g>
</svg>