<svg width="20" height="20" xmlns="http://www.w3.org/2000/svg">

 <g>
  <title>Layer 1</title>
  <g stroke="null" id="svg_17">
   <path stroke="null" id="svg_1" d="m19.64743,4.6434l-3.97208,0a0.28372,0.28372 0 0 1 -0.28372,-0.28372l0,-3.97208a0.28372,0.28372 0 0 1 0.28372,-0.28372l3.97208,0a0.28372,0.28372 0 0 1 0.28372,0.28372l0,3.97208a0.28372,0.28372 0 0 1 -0.28372,0.28372zm-3.68836,-0.56744l3.40464,0l0,-3.40464l-3.40464,0l0,3.40464z"/>
   <path stroke="null" id="svg_2" d="m4.32654,4.6434l-3.97208,0a0.28372,0.28372 0 0 1 -0.28372,-0.28372l0,-3.97208a0.28372,0.28372 0 0 1 0.28372,-0.28372l3.97208,0a0.28372,0.28372 0 0 1 0.28372,0.28372l0,3.97208a0.28372,0.28372 0 0 1 -0.28372,0.28372zm-3.68836,-0.56744l3.40464,0l0,-3.40464l-3.40464,0l0,3.40464z"/>
   <path stroke="null" id="svg_3" d="m19.64743,19.96429l-3.97208,0a0.28372,0.28372 0 0 1 -0.28372,-0.28372l0,-3.97208a0.28372,0.28372 0 0 1 0.28372,-0.28372l3.97208,0a0.28372,0.28372 0 0 1 0.28372,0.28372l0,3.97208a0.28372,0.28372 0 0 1 -0.28372,0.28372zm-3.68836,-0.56744l3.40464,0l0,-3.40464l-3.40464,0l0,3.40464z"/>
   <path stroke="null" id="svg_4" d="m4.32654,19.96429l-3.97208,0a0.28372,0.28372 0 0 1 -0.28372,-0.28372l0,-3.97208a0.28372,0.28372 0 0 1 0.28372,-0.28372l3.97208,0a0.28372,0.28372 0 0 1 0.28372,0.28372l0,3.97208a0.28372,0.28372 0 0 1 -0.28372,0.28372zm-3.68836,-0.56744l3.40464,0l0,-3.40464l-3.40464,0l0,3.40464z"/>
   <path stroke="null" id="svg_5" d="m15.67535,2.55976l-11.34881,0a0.28372,0.28372 0 0 1 0,-0.56744l11.34881,0a0.28372,0.28372 0 0 1 0,0.56744z"/>
   <path stroke="null" id="svg_6" d="m15.67535,18.26197l-11.34881,0a0.28372,0.28372 0 0 1 0,-0.56744l11.34881,0a0.28372,0.28372 0 0 1 0,0.56744z"/>
   <path stroke="null" id="svg_7" d="m17.66139,15.99221a0.28372,0.28372 0 0 1 -0.28372,-0.28372l0,-11.34881a0.28372,0.28372 0 0 1 0.56744,0l0,11.34881a0.28372,0.28372 0 0 1 -0.28372,0.28372z"/>
   <path stroke="null" id="svg_8" d="m2.3405,15.99221a0.28372,0.28372 0 0 1 -0.28372,-0.28372l0,-11.34881a0.28372,0.28372 0 0 1 0.56744,0l0,11.34881a0.28372,0.28372 0 0 1 -0.28372,0.28372z"/>
   <path stroke="null" id="svg_9" d="m9.2593,9.57616a0.28372,0.28372 0 0 1 -0.20059,-0.08313l-3.70936,-3.70907a0.28372,0.28372 0 0 1 0.40146,-0.40146l3.70907,3.70936a0.28372,0.28372 0 0 1 -0.20059,0.48431z"/>
   <path stroke="null" id="svg_10" d="m5.54994,7.70758a0.28372,0.28372 0 0 1 -0.28372,-0.28372l0,-1.84078a0.28372,0.28372 0 0 1 0.28372,-0.28372l1.84078,0a0.28372,0.28372 0 0 1 0,0.56744l-1.55706,0l0,1.55706a0.28372,0.28372 0 0 1 -0.28372,0.28372z"/>
   <path stroke="null" id="svg_11" d="m14.45166,14.7688a0.28372,0.28372 0 0 1 -0.20059,-0.08313l-3.70907,-3.70936a0.28372,0.28372 0 0 1 0.40118,-0.40118l3.71078,3.70907a0.28372,0.28372 0 0 1 -0.20087,0.48459l-0.00142,0z"/>
   <path stroke="null" id="svg_12" d="m14.45166,14.7688l-1.83907,0a0.28372,0.28372 0 0 1 0,-0.56744l1.55535,0l0,-1.55564a0.28372,0.28372 0 0 1 0.56744,0l0,1.83936a0.28372,0.28372 0 0 1 -0.28372,0.28372z"/>
   <path stroke="null" id="svg_13" d="m5.54994,14.7688a0.28372,0.28372 0 0 1 -0.20059,-0.48459l3.70936,-3.70907a0.28372,0.28372 0 0 1 0.40118,0.40118l-3.70907,3.71078a0.28372,0.28372 0 0 1 -0.20087,0.08171z"/>
   <path stroke="null" id="svg_14" d="m7.39072,14.7688l-1.84078,0a0.28372,0.28372 0 0 1 -0.28372,-0.28372l0,-1.83936a0.28372,0.28372 0 0 1 0.56744,0l0,1.55564l1.55706,0a0.28372,0.28372 0 0 1 0,0.56744z"/>
   <path stroke="null" id="svg_15" d="m10.74259,9.57616a0.28372,0.28372 0 0 1 -0.20059,-0.48431l3.70907,-3.70936a0.28372,0.28372 0 1 1 0.40288,0.40146l-3.71078,3.70907a0.28372,0.28372 0 0 1 -0.20059,0.08313z"/>
   <path stroke="null" id="svg_16" d="m14.45166,7.70587a0.28372,0.28372 0 0 1 -0.28372,-0.28372l0,-1.55535l-1.55535,0a0.28372,0.28372 0 0 1 0,-0.56744l1.83907,0a0.28372,0.28372 0 0 1 0.28372,0.28372l0,1.83907a0.28372,0.28372 0 0 1 -0.28372,0.28372z"/>
  </g>
 </g>
</svg>