<svg id="Capa_1" enable-background="new 0 0 512 512" height="512" viewBox="0 0 512 512" width="512" xmlns="http://www.w3.org/2000/svg"><g><g><path d="m220.999 182.628c-4.13-.374-7.777 2.655-8.158 6.779-.12 1.303-.181 2.638-.181 3.969 0 23.897 19.442 43.34 43.34 43.34s43.34-19.442 43.34-43.34-19.442-43.34-43.34-43.34c-7.121 0-14.177 1.763-20.402 5.099-3.651 1.956-5.025 6.502-3.069 10.153 1.957 3.651 6.503 5.025 10.153 3.069 4.055-2.172 8.66-3.321 13.318-3.321 15.627 0 28.34 12.713 28.34 28.34s-12.713 28.34-28.34 28.34-28.34-12.713-28.34-28.34c0-.873.04-1.744.118-2.591.38-4.124-2.655-7.777-6.779-8.157z"/><path d="m510.949 189.547c-.951-1.601-23.773-39.652-66.54-78.202-25.178-22.694-52.052-40.792-79.877-53.791-34.94-16.322-71.456-24.598-108.532-24.598-43.527 0-86.066 11.352-126.438 33.741-3.622 2.009-4.93 6.574-2.921 10.196 2.007 3.623 6.573 4.928 10.196 2.922 38.118-21.14 78.21-31.859 119.162-31.859 78.91 0 140.368 40.365 178.029 74.228 33.536 30.152 54.752 60.684 61.602 71.195-6.812 10.468-27.849 40.768-61.265 70.891-37.721 34.003-99.285 74.536-178.366 74.536-78.91 0-140.368-40.368-178.029-74.233-33.533-30.152-54.75-60.685-61.601-71.199 8.683-13.33 40.459-58.824 91.546-95.273 3.371-2.406 4.154-7.09 1.749-10.461-2.406-3.372-7.088-4.155-10.462-1.75-62.792 44.803-96.737 101.275-98.151 103.657-1.401 2.36-1.401 5.298 0 7.658.951 1.601 23.773 39.655 66.54 78.207 20.465 18.449 42.053 33.86 64.36 45.964-44.343 12.578-69.321 31.436-69.321 52.941 0 19.993 20.61 37.32 59.604 50.108 31.541 10.344 72.055 16.602 115.6 17.967l-24.439 23.779c-2.969 2.889-3.033 7.637-.145 10.605 1.47 1.511 3.422 2.27 5.376 2.27 1.885 0 3.771-.707 5.229-2.125l37.376-36.366c1.438-1.399 2.256-3.317 2.27-5.324s-.777-3.936-2.196-5.354l-37.377-37.377c-2.93-2.929-7.678-2.929-10.607 0s-2.929 7.678 0 10.606l24.272 24.271c-41.858-1.36-80.627-7.35-110.684-17.207-30.856-10.119-49.278-23.523-49.278-35.854 0-15.842 29.414-32.51 75.142-42.715 33.326 14.728 68.023 22.205 103.229 22.205s69.903-7.477 103.229-22.205c45.727 10.206 75.142 26.872 75.142 42.715 0 20.492-51.806 45.429-138.5 51.689-4.132.298-7.239 3.889-6.94 8.021.285 3.948 3.576 6.96 7.473 6.96.182 0 .364-.007.548-.02 75.867-5.479 152.42-28.212 152.42-66.65 0-21.505-24.978-40.363-69.321-52.941 22.308-12.104 43.895-27.515 64.36-45.964 42.767-38.552 65.589-76.605 66.54-78.207 1.398-2.359 1.398-5.297-.004-7.657z"/><path d="m355.997 239.659c3.865 1.483 8.205-.453 9.687-4.32 5.127-13.383 7.727-27.502 7.727-41.963 0-64.74-52.67-117.41-117.41-117.41s-117.41 52.67-117.41 117.41c0 64.746 52.67 117.42 117.41 117.42 35.353 0 68.482-15.706 90.894-43.09 2.624-3.206 2.151-7.931-1.054-10.554-3.203-2.622-7.93-2.153-10.554 1.054-19.552 23.889-48.45 37.59-79.286 37.59-56.469 0-102.41-45.945-102.41-102.42 0-56.469 45.941-102.41 102.41-102.41s102.41 45.941 102.41 102.41c0 12.62-2.266 24.933-6.734 36.597-1.482 3.868.452 8.205 4.32 9.686z"/></g></g></svg>