<?xml version="1.0" encoding="iso-8859-1"?>
<!-- Generator: Adobe Illustrator 19.0.0, SVG Export Plug-In . SVG Version: 6.00 Build 0)  -->
<svg version="1.1" id="Capa_1" xmlns="http://www.w3.org/2000/svg" xmlns:xlink="http://www.w3.org/1999/xlink" x="0px" y="0px"
	 viewBox="0 0 402 402" style="enable-background:new 0 0 402 402;" xml:space="preserve">
<g>
	<g>
		<path d="M402,200.96c0-34.8-50.8-64-125.36-75.76C264.96,51.12,235.76,0,200.96,0s-64,51.2-75.76,125.36
			C49.44,136.96,0,166.64,0,200.96s51.2,64,125.28,75.68C136.96,350.8,166.16,402,200.96,402c9.94-0.212,19.487-3.923,26.96-10.48
			c3.424-2.806,3.926-7.856,1.12-11.28c-2.806-3.424-7.856-3.926-11.28-1.12c-4.622,4.19-10.567,6.624-16.8,6.88
			c-22.88,0-48-41.44-59.04-106.96c19.594,2.322,39.309,3.471,59.04,3.44c19.731,0.03,39.446-1.119,59.04-3.44
			c-1.894,11.236-4.351,22.37-7.36,33.36L242.48,296c-2.482-3.655-7.458-4.606-11.113-2.123c-3.433,2.332-4.513,6.901-2.487,10.523
			l19.52,31.36l0.56,0.64l0.64,0.72l0.96,0.8l0.72,0.48l1.28,0.56h0.64c0.69,0.091,1.39,0.091,2.08,0
			c1.078-0.027,2.139-0.272,3.12-0.72l37.04-17.28c4.097-1.653,6.078-6.315,4.425-10.412s-6.315-6.078-10.412-4.425
			c-0.363,0.146-0.715,0.319-1.053,0.517l-20.16,9.92c3.39-13.017,6.061-26.21,8-39.52C350.8,264.96,402,235.76,402,200.96z
			 M279.04,141.92C344.96,153.36,386,178.24,386,200.96c0,22.72-41.52,48-107.04,59.04h-0.08c2.375-19.591,3.577-39.306,3.6-59.04
			C282.511,181.229,281.362,161.514,279.04,141.92z M122.96,260h-0.08C57.44,248.96,16,223.84,16,200.96
			c0-24.8,43.68-48,106.96-59.12C118.352,181.092,118.352,220.748,122.96,260z M262.56,262.48l-0.08,0
			c-20.423,2.682-41.001,4.018-61.6,4c-20.572,0.015-41.123-1.321-61.52-4c-5.285-40.87-5.285-82.25,0-123.12l10-1.2
			c4.418-0.464,7.624-4.422,7.16-8.84c-0.464-4.418-4.422-7.624-8.84-7.16l-5.76,0.72C152.96,57.44,178.08,16,200.96,16
			s48,41.44,59.04,106.96c-10-1.2-20.32-2.08-31.04-2.64l12.4-12.48c3.115-3.137,3.097-8.205-0.04-11.32
			c-3.137-3.115-8.205-3.097-11.32,0.04l-26,26.24c-0.242,0.328-0.456,0.676-0.64,1.04c-0.334,0.397-0.629,0.826-0.88,1.28
			c-0.178,0.466-0.312,0.949-0.4,1.44c-0.048,0.506-0.048,1.015,0,1.52c-0.048,0.506-0.048,1.014,0,1.52
			c-0.043,0.479-0.043,0.961,0,1.44c0.216,0.506,0.484,0.989,0.8,1.44c0.161,0.36,0.348,0.708,0.56,1.04l26,31.6
			c2.593,3.577,7.596,4.374,11.173,1.781s4.374-7.596,1.781-11.173c-0.195-0.269-0.407-0.526-0.634-0.768l-15.28-18.8
			c12.587,0.64,24.587,1.733,36,3.28c2.678,20.424,4.014,41.001,4,61.6C266.496,221.583,265.187,242.106,262.56,262.48z"/>
	</g>
</g>
<g>
</g>
<g>
</g>
<g>
</g>
<g>
</g>
<g>
</g>
<g>
</g>
<g>
</g>
<g>
</g>
<g>
</g>
<g>
</g>
<g>
</g>
<g>
</g>
<g>
</g>
<g>
</g>
<g>
</g>
</svg>
