<?xml version="1.0" encoding="iso-8859-1"?>
<!-- Generator: Adobe Illustrator 19.0.0, SVG Export Plug-In . SVG Version: 6.00 Build 0)  -->
<svg version="1.1" id="Capa_1" xmlns="http://www.w3.org/2000/svg" xmlns:xlink="http://www.w3.org/1999/xlink" x="0px" y="0px"
	 viewBox="0 0 512 512" style="enable-background:new 0 0 512 512;" xml:space="preserve">
<g>
	<g>
		<g>
			<path d="M85.334,341.333c5.888,0,10.667-4.779,10.667-10.667V288c0-5.888-4.757-10.667-10.667-10.667
				c-5.909,0-10.667,4.779-10.667,10.667v42.667C74.667,336.555,79.424,341.333,85.334,341.333z"/>
			<path d="M106.667,469.333H96v-10.667C96,452.779,91.243,448,85.334,448c-5.909,0-10.667,4.779-10.667,10.667V480
				c0,5.888,4.757,10.667,10.667,10.667h21.333c5.888,0,10.667-4.779,10.667-10.667
				C117.334,474.112,112.555,469.333,106.667,469.333z"/>
			<path d="M85.334,426.667C91.222,426.667,96,421.888,96,416v-42.667c0-5.888-4.757-10.667-10.667-10.667
				c-5.909,0-10.667,4.779-10.667,10.667V416C74.667,421.888,79.424,426.667,85.334,426.667z"/>
			<path d="M256,469.333h-21.333c-5.888,0-10.667,4.779-10.667,10.667c0,5.888,4.779,10.667,10.667,10.667H256
				c5.888,0,10.667-4.779,10.667-10.667C266.667,474.112,261.888,469.333,256,469.333z"/>
			<path d="M192,469.333h-42.667c-5.909,0-10.667,4.779-10.667,10.667c0,5.888,4.757,10.667,10.667,10.667H192
				c5.888,0,10.667-4.779,10.667-10.667C202.667,474.112,197.888,469.333,192,469.333z"/>
		</g>
	</g>
</g>
<g>
	<g>
		<path d="M476.864,237.781L263.531,24.448c-4.16-4.16-10.923-4.16-15.083,0c-4.16,4.16-4.16,10.923,0,15.083L256,47.083v187.584
			c-5.888,0-10.667,4.779-10.667,10.667S250.112,256,256,256h213.333c4.309,0,8.213-2.603,9.856-6.592
			C480.832,245.419,479.915,240.853,476.864,237.781z"/>
	</g>
</g>
<g>
	<g>
		<path d="M263.531,24.469c-4.16-4.16-10.923-4.16-15.083,0l-15.083,15.083c-4.16,4.16-4.16,10.923,0,15.083
			c2.091,2.069,4.821,3.115,7.552,3.115s5.461-1.045,7.531-3.115l15.083-15.083C267.691,35.392,267.691,28.629,263.531,24.469z"/>
	</g>
</g>
<g>
	<g>
		<g>
			<path d="M102.528,170.368l-26.176,26.176c-4.16,4.16-4.16,10.923,0,15.083c2.091,2.069,4.821,3.115,7.552,3.115
				c2.731,0,5.461-1.024,7.552-3.115l26.155-26.176c4.16-4.16,4.16-10.923,0-15.083
				C113.451,166.208,106.688,166.208,102.528,170.368z"/>
			<path d="M222.294,65.707c-4.16-4.16-10.923-4.16-15.083,0l-26.176,26.176c-4.16,4.16-4.16,10.923,0,15.083
				c2.091,2.069,4.821,3.115,7.552,3.115c2.731,0,5.44-1.045,7.531-3.115l26.176-26.176
				C226.454,76.629,226.454,69.867,222.294,65.707z"/>
			<path d="M154.88,118.037l-26.176,26.176c-4.16,4.16-4.16,10.923,0,15.083c2.091,2.069,4.821,3.115,7.552,3.115
				c2.709,0,5.44-1.045,7.531-3.115l26.176-26.176c4.16-4.16,4.16-10.923,0-15.083C165.803,113.877,159.04,113.877,154.88,118.037z"
				/>
		</g>
	</g>
</g>
<g>
	<g>
		<path d="M67.222,235.157c2.069-4.011,1.429-9.088-1.941-12.459c-4.16-4.16-10.923-4.16-15.083,0l-15.083,15.083
			c-3.029,3.051-3.947,7.637-2.304,11.627c1.643,3.989,5.547,6.592,9.856,6.592H64c5.888,0,10.667-4.779,10.667-10.667
			C74.667,240.555,71.531,236.523,67.222,235.157z"/>
	</g>
</g>
<g>
	<g>
		<g>
			<path d="M200.534,234.667H166.4c-5.909,0-10.667,4.779-10.667,10.667S160.512,256,166.4,256h34.112
				c5.909,0,10.688-4.779,10.688-10.667S206.422,234.667,200.534,234.667z"/>
			<path d="M132.246,234.667H98.112c-5.888,0-10.667,4.779-10.667,10.667S92.224,256,98.112,256h34.133
				c5.888,0,10.667-4.779,10.667-10.667S138.134,234.667,132.246,234.667z"/>
		</g>
	</g>
</g>
<g>
	<g>
		<path d="M256,234.667h-21.333c-5.888,0-10.667,4.779-10.667,10.667S228.779,256,234.667,256H256
			c5.888,0,10.667-4.779,10.667-10.667S261.888,234.667,256,234.667z"/>
	</g>
</g>
<g>
	<g>
		<path d="M256,0c-5.909,0-10.667,4.779-10.667,10.667v490.667c0,5.888,4.779,10.667,10.667,10.667
			c5.888,0,10.667-4.779,10.667-10.667V10.667C266.667,4.779,261.91,0,256,0z"/>
	</g>
</g>
<g>
	<g>
		<path d="M426.667,234.667H256c-5.888,0-10.667,4.779-10.667,10.667V480c0,5.888,4.779,10.667,10.667,10.667h170.667
			c5.888,0,10.667-4.779,10.667-10.667V245.333C437.334,239.445,432.555,234.667,426.667,234.667z"/>
	</g>
</g>
<g>
</g>
<g>
</g>
<g>
</g>
<g>
</g>
<g>
</g>
<g>
</g>
<g>
</g>
<g>
</g>
<g>
</g>
<g>
</g>
<g>
</g>
<g>
</g>
<g>
</g>
<g>
</g>
<g>
</g>
</svg>
