<svg width="148.961" height="148.961" xmlns="http://www.w3.org/2000/svg" xml:space="preserve" version="1.1">

 <g>
  <title>Layer 1</title>
  <g stroke="null" id="svg_1">
   <path stroke="null" id="svg_2" d="m129.32446,32.87237c-2.18256,-2.18256 -5.72008,-2.18181 -7.90041,0.00074l-50.13622,50.14441l-23.09561,-23.09636c-2.18256,-2.18181 -5.72008,-2.18256 -7.90041,-0.00074c-2.18256,2.18181 -2.18256,5.71934 -0.00074,7.90041l27.04656,27.04805c1.04807,1.04807 2.4686,1.63654 3.95095,1.63654c1.48161,0 2.90287,-0.58847 3.95095,-1.63654l54.08642,-54.0961c2.18032,-2.18107 2.18032,-5.71859 -0.00149,-7.90041z"/>
   <path stroke="null" id="svg_3" d="m117.26155,68.67672c-3.08537,0 -5.58675,2.50063 -5.58675,5.58675l0,41.39407l-80.50131,0l0,-80.50131l63.74106,0c3.08612,0 5.58675,-2.50063 5.58675,-5.58675c0,-3.08537 -2.50063,-5.58675 -5.58675,-5.58675l-69.32781,0c-3.08537,0 -5.58675,2.50063 -5.58675,5.58675l0,91.6748c0,3.08612 2.50137,5.58675 5.58675,5.58675l91.6748,0c3.08612,0 5.58675,-2.50063 5.58675,-5.58675l0,-46.98082c0,-3.08537 -2.50063,-5.58675 -5.58675,-5.58675z"/>
  </g>
  <g id="svg_4"/>
  <g id="svg_5"/>
  <g id="svg_6"/>
  <g id="svg_7"/>
  <g id="svg_8"/>
  <g id="svg_9"/>
  <g id="svg_10"/>
  <g id="svg_11"/>
  <g id="svg_12"/>
  <g id="svg_13"/>
  <g id="svg_14"/>
  <g id="svg_15"/>
  <g id="svg_16"/>
  <g id="svg_17"/>
  <g id="svg_18"/>
 </g>
</svg>