<svg width="148.961" height="148.961" xmlns="http://www.w3.org/2000/svg" xml:space="preserve" version="1.1">

 <g>
  <title>Layer 1</title>
  <g stroke="null" id="svg_1">
   <path stroke="null" id="svg_2" d="m132.25071,30.49229c-2.2809,-2.2809 -5.97784,-2.28013 -8.2564,0.00078l-52.3954,52.40396l-24.13632,-24.1371c-2.2809,-2.28013 -5.97784,-2.2809 -8.2564,-0.00078c-2.2809,2.28013 -2.2809,5.97706 -0.00078,8.2564l28.2653,28.26686c1.0953,1.0953 2.57983,1.71029 4.12898,1.71029c1.54837,0 3.03368,-0.61499 4.12898,-1.71029l56.5236,-56.53372c2.27857,-2.27935 2.27857,-5.97628 -0.00156,-8.2564z"/>
   <path stroke="null" id="svg_3" d="m119.64424,67.91001c-3.2244,0 -5.83849,2.61331 -5.83849,5.83849l0,43.25933l-84.12876,0l0,-84.12876l66.61329,0c3.22518,0 5.83849,-2.61331 5.83849,-5.83849c0,-3.2244 -2.61331,-5.83849 -5.83849,-5.83849l-72.45178,0c-3.2244,0 -5.83849,2.61331 -5.83849,5.83849l0,95.80574c0,3.22518 2.61409,5.83849 5.83849,5.83849l95.80574,0c3.22518,0 5.83849,-2.61331 5.83849,-5.83849l0,-49.09782c0,-3.2244 -2.61331,-5.83849 -5.83849,-5.83849z"/>
  </g>
  <g id="svg_4"/>
  <g id="svg_5"/>
  <g id="svg_6"/>
  <g id="svg_7"/>
  <g id="svg_8"/>
  <g id="svg_9"/>
  <g id="svg_10"/>
  <g id="svg_11"/>
  <g id="svg_12"/>
  <g id="svg_13"/>
  <g id="svg_14"/>
  <g id="svg_15"/>
  <g id="svg_16"/>
  <g id="svg_17"/>
  <g id="svg_18"/>
 </g>
</svg>