<svg width="329.26933" height="329" xmlns="http://www.w3.org/2000/svg">

 <g>
  <title>Layer 1</title>
  <path stroke="null" id="svg_1" d="m186.00576,164.76881l90.83047,-90.83324c5.91109,-5.90833 5.91109,-15.46127 0,-21.3696c-5.90832,-5.90833 -15.46127,-5.90833 -21.3696,0l-90.83324,90.83324l-90.83047,-90.83324c-5.91109,-5.90833 -15.46127,-5.90833 -21.3696,0c-5.91109,5.90832 -5.91109,15.46127 0,21.3696l90.83047,90.83324l-90.83047,90.83324c-5.91109,5.90832 -5.91109,15.46127 0,21.3696c2.94448,2.94724 6.81603,4.42778 10.6848,4.42778c3.86878,0 7.73756,-1.48055 10.6848,-4.42778l90.83047,-90.83324l90.83324,90.83324c2.94724,2.94724 6.81602,4.42778 10.6848,4.42778c3.86878,0 7.73755,-1.48055 10.6848,-4.42778c5.91109,-5.90833 5.91109,-15.46127 0,-21.3696l-90.83047,-90.83324zm0,0"/>
 </g>
</svg>