<svg id="_x31_px" enable-background="new 0 0 24 24" height="512" viewBox="0 0 24 24" width="512" xmlns="http://www.w3.org/2000/svg"><path d="m12 11c-.061 0-.122-.011-.18-.033l-6.5-2.5c-.193-.074-.32-.26-.32-.467s.127-.393.32-.467l6.5-2.5c.115-.044.244-.044.359 0l6.5 2.5c.194.074.321.26.321.467s-.127.393-.32.467l-6.5 2.5c-.058.022-.119.033-.18.033zm-5.107-3 5.107 1.964 5.107-1.964-5.107-1.964z"/><path d="m12 19c-.061 0-.122-.011-.18-.033l-6.5-2.5c-.193-.074-.32-.26-.32-.467v-8c0-.276.224-.5.5-.5s.5.224.5.5v7.657l6 2.308 6-2.308v-7.657c0-.276.224-.5.5-.5s.5.224.5.5v8c0 .207-.127.393-.32.467l-6.5 2.5c-.058.022-.119.033-.18.033z"/><path d="m12 19c-.276 0-.5-.224-.5-.5v-8c0-.276.224-.5.5-.5s.5.224.5.5v8c0 .276-.224.5-.5.5z"/><path d="m.5 8c-.276 0-.5-.224-.5-.5v-5c0-1.378 1.121-2.5 2.5-2.5h5c.276 0 .5.224.5.5s-.224.5-.5.5h-5c-.827 0-1.5.673-1.5 1.5v5c0 .276-.224.5-.5.5z"/><path d="m21.5 24h-5c-.276 0-.5-.224-.5-.5s.224-.5.5-.5h5c.827 0 1.5-.673 1.5-1.5v-5c0-.276.224-.5.5-.5s.5.224.5.5v5c0 1.378-1.121 2.5-2.5 2.5z"/><path d="m23.5 8c-.276 0-.5-.224-.5-.5v-5c0-.827-.673-1.5-1.5-1.5h-5c-.276 0-.5-.224-.5-.5s.224-.5.5-.5h5c1.379 0 2.5 1.122 2.5 2.5v5c0 .276-.224.5-.5.5z"/><path d="m7.5 24h-5c-1.379 0-2.5-1.122-2.5-2.5v-5c0-.276.224-.5.5-.5s.5.224.5.5v5c0 .827.673 1.5 1.5 1.5h5c.276 0 .5.224.5.5s-.224.5-.5.5z"/></svg>