<?xml version="1.0" encoding="iso-8859-1"?>
<!-- Generator: Adobe Illustrator 19.0.0, SVG Export Plug-In . SVG Version: 6.00 Build 0)  -->
<svg version="1.1" id="Capa_1" xmlns="http://www.w3.org/2000/svg" xmlns:xlink="http://www.w3.org/1999/xlink" x="0px" y="0px"
	 viewBox="0 0 395.04 395.04" style="enable-background:new 0 0 395.04 395.04;" xml:space="preserve">
<g>
	<g>
		<path d="M89.52,37.52H8c-4.418,0-8,3.582-8,8v81.44c0,4.418,3.582,8,8,8c4.418,0,8-3.582,8-8V53.52h73.52c4.418,0,8-3.582,8-8
			S93.938,37.52,89.52,37.52z"/>
	</g>
</g>
<g>
	<g>
		<path d="M387.04,37.52h-81.52c-4.418,0-8,3.582-8,8s3.582,8,8,8h73.52v73.52c0,4.418,3.582,8,8,8s8-3.582,8-8V45.52
			C395.04,41.102,391.458,37.52,387.04,37.52z"/>
	</g>
</g>
<g>
	<g>
		<path d="M89.52,341.52H16v-73.44c0-4.418-3.582-8-8-8c-4.418,0-8,3.582-8,8v81.44c0,4.418,3.582,8,8,8h81.52c4.418,0,8-3.582,8-8
			S93.938,341.52,89.52,341.52z"/>
	</g>
</g>
<g>
	<g>
		<path d="M387.04,260.08c-4.418,0-8,3.582-8,8v73.44h-73.52c-4.418,0-8,3.582-8,8s3.582,8,8,8h81.52c4.418,0,8-3.582,8-8v-81.44
			C395.04,263.662,391.458,260.08,387.04,260.08z"/>
	</g>
</g>
<g>
	<g>
		<path d="M376.16,192.16c-3.2-3.6-80-88-177.2-88s-174,84.4-177.44,88c-2.748,3.045-2.748,7.675,0,10.72c3.2,3.6,80,88,177.2,88
			s174.24-84.4,177.44-88C378.908,199.835,378.908,195.205,376.16,192.16z M38.8,197.52c14.16-14,56-51.76,108.8-68.8
			c-37.657,38.137-37.657,99.463,0,137.6C94.64,249.28,52.96,211.52,38.8,197.52z M198.96,271.68h-0.16
			c-35.04,0-63.6-33.28-63.6-74.16s28.56-74.16,63.6-74.16c35.04,0,63.6,33.28,63.6,74.16S234,271.68,198.96,271.68z M250.32,266.32
			l-0.16-0.08c37.657-38.137,37.657-99.463,0-137.6c52.96,16.96,94.64,54.8,108.8,68.8C344.96,211.52,303.28,249.28,250.32,266.32z"
			/>
	</g>
</g>
<g>
	<g>
		<path d="M198.96,166c-17.408,0-31.52,14.112-31.52,31.52c0,17.408,14.112,31.52,31.52,31.52s31.52-14.112,31.52-31.52
			S216.368,166,198.96,166z M198.96,213.04c-8.571,0-15.52-6.948-15.52-15.52S190.389,182,198.96,182s15.52,6.949,15.52,15.52
			C214.48,206.091,207.531,213.04,198.96,213.04z"/>
	</g>
</g>
<g>
</g>
<g>
</g>
<g>
</g>
<g>
</g>
<g>
</g>
<g>
</g>
<g>
</g>
<g>
</g>
<g>
</g>
<g>
</g>
<g>
</g>
<g>
</g>
<g>
</g>
<g>
</g>
<g>
</g>
</svg>
