<?xml version="1.0" encoding="iso-8859-1"?>
<!-- Generator: Adobe Illustrator 19.0.0, SVG Export Plug-In . SVG Version: 6.00 Build 0)  -->
<svg version="1.1" id="Capa_1" xmlns="http://www.w3.org/2000/svg" xmlns:xlink="http://www.w3.org/1999/xlink" x="0px" y="0px"
	 viewBox="0 0 512 512" style="enable-background:new 0 0 512 512;" xml:space="preserve">
<g>
	<g>
		<path d="M416,85.333c-7.765,0-15.061,2.091-21.333,5.739v-5.739c0-23.531-19.136-42.667-42.667-42.667
			c-7.765,0-15.061,2.091-21.333,5.739v-5.739C330.667,19.136,311.531,0,288,0s-42.667,19.136-42.667,42.667v5.739
			c-6.272-3.648-13.568-5.739-21.333-5.739c-23.531,0-42.667,19.136-42.667,42.667v206.741l-58.645-29.333
			C113.856,258.325,103.957,256,94.08,256c-22.485,0-40.747,18.283-40.747,40.875c0,10.901,4.245,21.12,11.947,28.821
			l137.941,137.941C234.389,494.827,275.883,512,320,512c76.459,0,138.667-62.208,138.667-138.667V128
			C458.667,104.469,439.531,85.333,416,85.333z M437.333,373.333c0,64.704-52.651,117.333-117.355,117.333
			c-38.421,0-74.517-14.955-101.653-42.133L80.363,310.592c-3.669-3.648-5.696-8.533-5.696-13.845
			c0-10.709,8.704-19.413,19.413-19.413c6.592,0,13.163,1.557,19.072,4.501l74.091,37.035c3.285,1.643,7.253,1.472,10.368-0.469
			c3.136-1.941,5.056-5.376,5.056-9.067v-224C202.667,73.579,212.224,64,224,64s21.333,9.579,21.333,21.333V224
			c0,5.888,4.779,10.667,10.667,10.667c5.888,0,10.667-4.779,10.667-10.667V42.667c0-11.755,9.557-21.333,21.333-21.333
			s21.333,9.579,21.333,21.333V224c0,5.888,4.779,10.667,10.667,10.667s10.667-4.779,10.667-10.667V85.333
			C330.667,73.579,340.224,64,352,64s21.333,9.579,21.333,21.333V224c0,5.888,4.779,10.667,10.667,10.667
			c5.888,0,10.667-4.779,10.667-10.667v-96c0-11.755,9.557-21.333,21.333-21.333s21.333,9.579,21.333,21.333V373.333z"/>
	</g>
</g>
<g>
</g>
<g>
</g>
<g>
</g>
<g>
</g>
<g>
</g>
<g>
</g>
<g>
</g>
<g>
</g>
<g>
</g>
<g>
</g>
<g>
</g>
<g>
</g>
<g>
</g>
<g>
</g>
<g>
</g>
</svg>
