<?xml version="1.0" encoding="iso-8859-1"?>
<!-- Generator: Adobe Illustrator 19.0.0, SVG Export Plug-In . SVG Version: 6.00 Build 0)  -->
<svg version="1.1" id="Layer_1" xmlns="http://www.w3.org/2000/svg" xmlns:xlink="http://www.w3.org/1999/xlink" x="0px" y="0px"
	 viewBox="0 0 469.333 469.333" style="enable-background:new 0 0 469.333 469.333;" xml:space="preserve">
<g>
	<g>
		<g>
			<path d="M330.667,369.781c-5.896,0-10.667,4.771-10.667,10.667v28.448c0,5.896,4.771,10.667,10.667,10.667
				c5.896,0,10.667-4.771,10.667-10.667v-28.448C341.333,374.552,336.563,369.781,330.667,369.781z"/>
			<path d="M330.667,426.667c-5.896,0-10.667,4.771-10.667,10.667V448h-10.667c-5.896,0-10.667,4.771-10.667,10.667
				c0,5.896,4.771,10.667,10.667,10.667h21.333c5.896,0,10.667-4.771,10.667-10.667v-21.333
				C341.333,431.438,336.563,426.667,330.667,426.667z"/>
			<path d="M111.229,448H71.604c-5.896,0-10.667,4.771-10.667,10.667c0,5.896,4.771,10.667,10.667,10.667h39.625
				c5.896,0,10.667-4.771,10.667-10.667C121.896,452.771,117.125,448,111.229,448z"/>
			<path d="M269.708,448h-39.625c-5.896,0-10.667,4.771-10.667,10.667c0,5.896,4.771,10.667,10.667,10.667h39.625
				c5.896,0,10.667-4.771,10.667-10.667C280.375,452.771,275.604,448,269.708,448z"/>
			<path d="M190.479,448h-39.625c-5.896,0-10.667,4.771-10.667,10.667c0,5.896,4.771,10.667,10.667,10.667h39.625
				c5.896,0,10.667-4.771,10.667-10.667C201.146,452.771,196.375,448,190.479,448z"/>
			<path d="M32,448H21.333v-10.667c0-5.896-4.771-10.667-10.667-10.667S0,431.438,0,437.333v21.333
				c0,5.896,4.771,10.667,10.667,10.667H32c5.896,0,10.667-4.771,10.667-10.667C42.667,452.771,37.896,448,32,448z"/>
			<path d="M10.667,249.906c5.896,0,10.667-4.771,10.667-10.667v-39.615c0-5.896-4.771-10.667-10.667-10.667S0,193.729,0,199.625
				v39.615C0,245.135,4.771,249.906,10.667,249.906z"/>
			<path d="M10.667,329.146c5.896,0,10.667-4.771,10.667-10.667v-39.615c0-5.896-4.771-10.667-10.667-10.667S0,272.969,0,278.865
				v39.615C0,324.375,4.771,329.146,10.667,329.146z"/>
			<path d="M10.667,408.385c5.896,0,10.667-4.771,10.667-10.667v-39.615c0-5.896-4.771-10.667-10.667-10.667S0,352.208,0,358.104
				v39.615C0,403.615,4.771,408.385,10.667,408.385z"/>
			<path d="M32,128H10.667C4.771,128,0,132.771,0,138.667V160c0,5.896,4.771,10.667,10.667,10.667S21.333,165.896,21.333,160
				v-10.667H32c5.896,0,10.667-4.771,10.667-10.667S37.896,128,32,128z"/>
			<path d="M99.542,138.667c0-5.896-4.771-10.667-10.667-10.667H60.437c-5.896,0-10.667,4.771-10.667,10.667
				s4.771,10.667,10.667,10.667h28.438C94.771,149.333,99.542,144.562,99.542,138.667z"/>
			<path d="M138.667,99.552c5.896,0,10.667-4.771,10.667-10.667V60.437c0-5.896-4.771-10.667-10.667-10.667S128,54.542,128,60.437
				v28.448C128,94.781,132.771,99.552,138.667,99.552z"/>
			<path d="M138.667,42.667c5.896,0,10.667-4.771,10.667-10.667V21.333H160c5.896,0,10.667-4.771,10.667-10.667S165.896,0,160,0
				h-21.333C132.771,0,128,4.771,128,10.667V32C128,37.896,132.771,42.667,138.667,42.667z"/>
			<path d="M358.104,21.333h39.625c5.896,0,10.667-4.771,10.667-10.667S403.625,0,397.729,0h-39.625
				c-5.896,0-10.667,4.771-10.667,10.667S352.208,21.333,358.104,21.333z"/>
			<path d="M278.854,21.333h39.625c5.896,0,10.667-4.771,10.667-10.667S324.375,0,318.479,0h-39.625
				c-5.896,0-10.667,4.771-10.667,10.667S272.958,21.333,278.854,21.333z"/>
			<path d="M199.625,21.333h39.625c5.896,0,10.667-4.771,10.667-10.667S245.146,0,239.25,0h-39.625
				c-5.896,0-10.667,4.771-10.667,10.667S193.729,21.333,199.625,21.333z"/>
			<path d="M458.667,0h-21.333c-5.896,0-10.667,4.771-10.667,10.667s4.771,10.667,10.667,10.667H448V32
				c0,5.896,4.771,10.667,10.667,10.667c5.896,0,10.667-4.771,10.667-10.667V10.667C469.333,4.771,464.563,0,458.667,0z"/>
			<path d="M458.667,140.187c-5.896,0-10.667,4.771-10.667,10.667v39.615c0,5.896,4.771,10.667,10.667,10.667
				c5.896,0,10.667-4.771,10.667-10.667v-39.615C469.333,144.958,464.563,140.187,458.667,140.187z"/>
			<path d="M458.667,60.948c-5.896,0-10.667,4.771-10.667,10.667v39.615c0,5.896,4.771,10.667,10.667,10.667
				c5.896,0,10.667-4.771,10.667-10.667V71.615C469.333,65.719,464.563,60.948,458.667,60.948z"/>
			<path d="M458.667,219.427c-5.896,0-10.667,4.771-10.667,10.667v39.615c0,5.896,4.771,10.667,10.667,10.667
				c5.896,0,10.667-4.771,10.667-10.667v-39.615C469.333,224.198,464.563,219.427,458.667,219.427z"/>
			<path d="M458.667,298.667c-5.896,0-10.667,4.771-10.667,10.667V320h-10.667c-5.896,0-10.667,4.771-10.667,10.667
				c0,5.896,4.771,10.667,10.667,10.667h21.333c5.896,0,10.667-4.771,10.667-10.667v-21.333
				C469.333,303.437,464.563,298.667,458.667,298.667z"/>
			<path d="M408.896,320h-28.438c-5.896,0-10.667,4.771-10.667,10.667c0,5.896,4.771,10.667,10.667,10.667h28.438
				c5.896,0,10.667-4.771,10.667-10.667C419.563,324.771,414.792,320,408.896,320z"/>
			<path d="M352,320h-10.667V138.667c0-5.896-4.771-10.667-10.667-10.667H149.333v-10.667c0-5.896-4.771-10.667-10.667-10.667
				S128,111.437,128,117.333V128h-10.667c-5.896,0-10.667,4.771-10.667,10.667s4.771,10.667,10.667,10.667H128v181.333
				c0,5.896,4.771,10.667,10.667,10.667H320V352c0,5.896,4.771,10.667,10.667,10.667c5.896,0,10.667-4.771,10.667-10.667v-10.667
				H352c5.896,0,10.667-4.771,10.667-10.667C362.667,324.771,357.896,320,352,320z M320,320H149.333V149.333H320V320z"/>
		</g>
	</g>
</g>
<g>
</g>
<g>
</g>
<g>
</g>
<g>
</g>
<g>
</g>
<g>
</g>
<g>
</g>
<g>
</g>
<g>
</g>
<g>
</g>
<g>
</g>
<g>
</g>
<g>
</g>
<g>
</g>
<g>
</g>
</svg>
