<?xml version="1.0"?>
<svg xmlns="http://www.w3.org/2000/svg" id="Outline" viewBox="0 0 512 512" width="512" height="512"><path d="M496,256a8,8,0,0,0-4.136-7L417.561,208l3.184-1.757a8,8,0,0,0-7.728-14.01l-12.824,7.075c-.524.289-5.134,2.9-6.2,4.828a8,8,0,0,0,3.141,10.869l74.3,41L256,374.863,40.561,256l74.3-40.995A8,8,0,0,0,118,204.136c-1.064-1.93-5.673-4.539-6.2-4.827l-12.824-7.076a8,8,0,0,0-7.729,14.01L94.439,208l-74.3,41a8,8,0,0,0,0,14.01l74.3,41-74.3,41a8,8,0,0,0,0,14.01l232,128a8,8,0,0,0,7.73,0l232-128a8,8,0,0,0,0-14.01L417.561,304l74.3-40.995A8,8,0,0,0,496,256Zm-24.561,96L256,470.863,40.561,352,111,313.137l141.135,77.868a8,8,0,0,0,7.73,0L401,313.137Z"/><path d="M252.86,42.869,256,41.137l3.14,1.732a8,8,0,0,0,7.729-14.01L259.864,25a8,8,0,0,0-7.728,0l-7,3.864a8,8,0,0,0,7.729,14.01Z"/><path d="M284.786,57.019l12.822,7.075a8,8,0,1,0,7.731-14.01l-12.823-7.075a8,8,0,1,0-7.73,14.01Z"/><path d="M323.255,78.243l12.823,7.074a8,8,0,0,0,7.729-14.009l-12.824-7.075a8,8,0,1,0-7.728,14.01Z"/><path d="M400.193,120.691l12.823,7.075a8,8,0,0,0,7.728-14.01l-12.822-7.074a8,8,0,0,0-7.729,14.009Z"/><path d="M438.662,141.916l12.823,7.074a8,8,0,0,0,7.729-14.01l-12.823-7.074a8,8,0,1,0-7.729,14.01Z"/><path d="M361.724,99.467l12.822,7.075a8,8,0,0,0,7.73-14.01l-12.823-7.075a8,8,0,1,0-7.729,14.01Z"/><path d="M473.99,167.729a8,8,0,0,0,10.869,3.14l7-3.864a8,8,0,0,0,0-14.01l-7-3.864A8,8,0,0,0,473.989,160,8,8,0,0,0,473.99,167.729Z"/><path d="M374.547,213.457l-12.823,7.075a8,8,0,1,0,7.73,14.01l12.822-7.075a8,8,0,1,0-7.729-14.01Z"/><path d="M288.657,277.987a7.965,7.965,0,0,0,3.858-1l12.823-7.074a8,8,0,1,0-7.729-14.01l-12.823,7.074a8,8,0,0,0,3.871,15.007Z"/><path d="M336.078,234.682l-12.822,7.074a8,8,0,1,0,7.728,14.01l12.823-7.075a8,8,0,1,0-7.729-14.009Z"/><path d="M442.533,193.091a7.969,7.969,0,0,0,3.859-1l12.822-7.075a8,8,0,1,0-7.73-14.01l-12.823,7.075a8,8,0,0,0,3.872,15.007Z"/><path d="M245.131,291.141l7,3.864a8,8,0,0,0,7.728,0l7.005-3.864a8,8,0,0,0-7.729-14.01L256,278.863l-3.14-1.732a8,8,0,0,0-7.729,14.01Z"/><path d="M73.338,178.084,60.515,171.01a8,8,0,1,0-7.728,14.01l12.822,7.074a8,8,0,1,0,7.729-14.01Z"/><path d="M150.276,220.533l-12.822-7.075a8,8,0,1,0-7.73,14.01l12.823,7.075a8,8,0,0,0,7.729-14.01Z"/><path d="M188.745,241.757l-12.823-7.074a8,8,0,0,0-7.729,14.009l12.824,7.075a8,8,0,0,0,7.728-14.01Z"/><path d="M227.214,262.981l-12.822-7.075a8,8,0,1,0-7.73,14.01l12.823,7.075a8,8,0,1,0,7.729-14.01Z"/><path d="M20.136,167.005l7,3.864A8,8,0,0,0,38.01,160a8,8,0,0,0-10.87-10.869l-7,3.864a8,8,0,0,0,0,14.01Z"/><path d="M95.126,128.764a7.973,7.973,0,0,0,3.857-1l12.824-7.075a8,8,0,1,0-7.729-14.009l-12.823,7.074a8,8,0,0,0,3.871,15.007Z"/><path d="M56.658,149.988a7.964,7.964,0,0,0,3.857-1l12.823-7.075a8,8,0,1,0-7.73-14.01l-12.822,7.075a8,8,0,0,0,3.872,15.007Z"/><path d="M172.064,86.315a7.965,7.965,0,0,0,3.858-1l12.823-7.075a8,8,0,0,0-7.729-14.01l-12.824,7.076a8,8,0,0,0,3.872,15.006Z"/><path d="M210.534,65.091a7.964,7.964,0,0,0,3.857-1l12.822-7.074a8,8,0,1,0-7.728-14.01l-12.823,7.074a8,8,0,0,0,3.872,15.007Z"/><path d="M133.6,107.54a7.964,7.964,0,0,0,3.857-1l12.823-7.075a8,8,0,1,0-7.73-14.01l-12.822,7.075A8,8,0,0,0,133.6,107.54Z"/></svg>
