<?xml version="1.0" encoding="iso-8859-1"?>
<!-- Generator: Adobe Illustrator 19.0.0, SVG Export Plug-In . SVG Version: 6.00 Build 0)  -->
<svg version="1.1" id="Capa_1" xmlns="http://www.w3.org/2000/svg" xmlns:xlink="http://www.w3.org/1999/xlink" x="0px" y="0px"
	 viewBox="0 0 512 512" style="enable-background:new 0 0 512 512;" xml:space="preserve">
<g>
	<g>
		<g>
			<path d="M444.875,211.125l-37.333-37.333c-0.663-0.663-1.496-1.072-2.294-1.534c0.014-0.533,0.086-1.056,0.086-1.591
				C405.333,76.563,328.771,0,234.667,0S64,76.563,64,170.667c0,28.271,7.073,56.271,20.49,81.104L225.333,506.5
				c1.875,3.396,5.448,5.5,9.333,5.5c3.885,0,7.458-2.104,9.333-5.5L311.73,384h109.603C436.042,384,448,372.042,448,357.333
				V218.667C448,215.833,446.875,213.125,444.875,211.125z M234.667,479.292l-131.458-237.75
				c-11.698-21.646-17.875-46.146-17.875-70.875c0-82.333,66.99-149.333,149.333-149.333S384,88.333,384,170.667h-64
				c0-47.063-38.281-85.333-85.333-85.333c-47.052,0-85.333,38.271-85.333,85.333S187.615,256,234.667,256v101.333
				c0,14.708,11.958,26.667,26.667,26.667h26.017L234.667,479.292z M298.667,192H352h32v37.688c0,2.938-2.396,5.333-5.333,5.333H304
				c-2.938,0-5.333-2.396-5.333-5.333V192z M261.333,170.667c-14.708,0-26.667,11.958-26.667,26.667v37.333
				c-35.292,0-64-28.708-64-64c0-35.292,28.708-64,64-64c35.292,0,64,28.708,64,64H261.333z M384,362.667h-85.333v-64H384V362.667z
				 M426.667,357.333c0,2.938-2.396,5.333-5.333,5.333h-16V288c0-5.896-4.771-10.667-10.667-10.667H288
				c-5.896,0-10.667,4.771-10.667,10.667v74.667h-16c-2.938,0-5.333-2.396-5.333-5.333v-160c0-2.938,2.396-5.333,5.333-5.333h16
				v37.688c0,14.708,11.958,26.667,26.667,26.667h74.667c14.708,0,26.667-11.958,26.667-26.667V201.75l21.333,21.333V357.333z"/>
			<path d="M341.333,202.667V224c0,5.896,4.771,10.667,10.667,10.667c5.896,0,10.667-4.771,10.667-10.667v-21.333
				c0-5.896-4.771-10.667-10.667-10.667C346.104,192,341.333,196.771,341.333,202.667z"/>
		</g>
	</g>
</g>
<g>
</g>
<g>
</g>
<g>
</g>
<g>
</g>
<g>
</g>
<g>
</g>
<g>
</g>
<g>
</g>
<g>
</g>
<g>
</g>
<g>
</g>
<g>
</g>
<g>
</g>
<g>
</g>
<g>
</g>
</svg>
