<svg width="512" height="512" xmlns="http://www.w3.org/2000/svg" xml:space="preserve" version="1.1">

 <g>
  <title>Layer 1</title>
  <g id="svg_1">
   <g id="svg_2">
    <path id="svg_3" d="m497.97059,330.55256l-85.468,-85.464c-5.22,-5.228 -14.396,-5.228 -19.616,0l-7.452,7.448c-5.4,5.408 -5.4,14.548 0.004,19.956l48.456,48.792l-355.984,0l48.696,-49.02c5.408,-5.412 5.408,-14.384 0,-19.796l-7.444,-7.524c-5.232,-5.232 -14.404,-5.272 -19.624,-0.044l-85.504,85.472c-2.672,2.676 -4.1,6.24 -4.032,9.916c-0.072,3.82 1.36,7.396 4.032,10.068l85.464,85.464c5.228,5.232 14.396,5.228 19.62,0l7.444,-7.448c5.416,-5.416 5.416,-13.784 0,-19.192l-49.856,-49.436l358.792,0l-50.096,49.668c-2.612,2.604 -4.052,5.884 -4.052,9.592s1.436,7.088 4.052,9.7l7.444,7.396c2.616,2.612 6.1,4.02 9.812,4.02c3.716,0 7.196,-1.448 9.812,-4.06l85.5,-85.508c2.664,-2.668 4.096,-6.248 4.028,-9.924c0.076,-3.824 -1.36,-7.404 -4.028,-10.076z"/>
   </g>
  </g>
  <g id="svg_4"/>
  <g id="svg_5"/>
  <g id="svg_6"/>
  <g id="svg_7"/>
  <g id="svg_8"/>
  <g id="svg_9"/>
  <g id="svg_10"/>
  <g id="svg_11"/>
  <g id="svg_12"/>
  <g id="svg_13"/>
  <g id="svg_14"/>
  <g id="svg_15"/>
  <g id="svg_16"/>
  <g id="svg_17"/>
  <g id="svg_18"/>
  <text stroke="#000" font-style="normal" font-weight="bold" xml:space="preserve" text-anchor="start" font-family="sans-serif" font-size="250" id="svg_19" y="279.28571" x="170.85765" stroke-width="0" fill="#000000">X</text>
 </g>
</svg>