<svg id="_x31_px" enable-background="new 0 0 24 24" height="512" viewBox="0 0 24 24" width="512" xmlns="http://www.w3.org/2000/svg"><path d="m11 24c-3.756 0-6-6.102-6-12 0-3.915 1.467-12 6-12 2.12 0 4.022 2.103 5.088 5.625.08.264-.069.543-.333.624-.265.08-.543-.07-.624-.333-.918-3.033-2.501-4.916-4.131-4.916-3.411 0-5 6.564-5 11 0 5.962 2.29 11 5 11 1.571 0 3.121-1.779 4.044-4.644.067-.207.259-.347.476-.347.276 0 .505.224.505.5 0 .081-.019.157-.052.225-1.081 3.299-2.936 5.266-4.973 5.266z"/><path d="m15.5 7c-.132 0-.259-.052-.354-.146l-2-2c-.195-.195-.195-.512 0-.707s.512-.195.707 0l1.592 1.592 1.155-1.539c.166-.221.479-.266.7-.1s.266.479.1.7l-1.5 2c-.087.116-.22.188-.364.199-.013.001-.024.001-.036.001z"/><path d="m12 19.25c-5.898 0-12-2.244-12-6 0-2.044 1.995-3.912 5.336-4.996.262-.084.545.058.63.321s-.059.544-.321.63c-2.909.944-4.645 2.456-4.645 4.045 0 2.991 5.688 5 11 5 4.436 0 11-1.589 11-5 0-1.655-1.947-3.261-5.082-4.19-.265-.079-.416-.357-.337-.622.079-.264.356-.416.622-.337 3.63 1.076 5.797 3.001 5.797 5.149 0 4.533-8.085 6-12 6z"/><path d="m19.5 11.25c-.128 0-.256-.049-.354-.146l-2-2c-.103-.103-.155-.244-.145-.389s.083-.277.199-.364l2-1.5c.221-.166.534-.122.7.1.166.221.121.534-.1.7l-1.539 1.154 1.592 1.592c.195.195.195.512 0 .707-.097.097-.225.146-.353.146z"/><path d="m12 16c-2.206 0-4-1.794-4-4s1.794-4 4-4 4 1.794 4 4-1.794 4-4 4zm0-7c-1.654 0-3 1.346-3 3s1.346 3 3 3 3-1.346 3-3-1.346-3-3-3z"/><path d="m12 13c-.551 0-1-.449-1-1s.449-1 1-1 1 .449 1 1-.449 1-1 1z"/></svg>