<?xml version="1.0" encoding="UTF-8"?><svg id="_圖層_1" xmlns="http://www.w3.org/2000/svg" viewBox="0 0 481 460"><defs><style>.cls-1{fill:none;stroke:#000;stroke-miterlimit:10;stroke-width:15px;}</style></defs><rect class="cls-1" x="30.04" y="325.35" width="426.87" height="100"/><line class="cls-1" x1="82.07" y1="245.52" x2="396.93" y2="245.52"/><g><path class="cls-1" d="M148.2,97.49c0,34.51-65.11,129.25-65.11,129.25,0,0-63.03-94.74-63.03-129.25S48.75,33,84.13,33s64.07,29.98,64.07,64.49Z"/><circle class="cls-1" cx="84.13" cy="95.04" r="23.52"/></g><g><path class="cls-1" d="M461.85,97.49c0,34.51-65.11,129.25-65.11,129.25,0,0-63.03-94.74-63.03-129.25s28.68-64.49,64.07-64.49,64.07,29.98,64.07,64.49Z"/><circle class="cls-1" cx="397.78" cy="95.04" r="23.52"/></g><line class="cls-1" x1="75.09" y1="331.09" x2="75.09" y2="363.43"/><line class="cls-1" x1="410.22" y1="331.09" x2="410.22" y2="363.43"/><line class="cls-1" x1="242.65" y1="331.09" x2="242.65" y2="381.09"/><line class="cls-1" x1="130.94" y1="331.09" x2="130.94" y2="381.09"/><line class="cls-1" x1="298.51" y1="331.09" x2="298.51" y2="363.43"/><line class="cls-1" x1="186.8" y1="331.09" x2="186.8" y2="363.43"/><line class="cls-1" x1="354.36" y1="331.09" x2="354.36" y2="381.09"/></svg>