<svg height="512" viewBox="0 0 60 60" width="512" xmlns="http://www.w3.org/2000/svg"><g id="Page-1" fill="none" fill-rule="evenodd"><g id="014---AR-Object" fill="rgb(0,0,0)" fill-rule="nonzero"><path id="Shape" d="m56 0h-52c-2.209139 0-4 1.790861-4 4v28c0 2.209139 1.790861 4 4 4h10v.5c.0000106.3601377.1936696.6924521.507.87l15 8.5c.3058237.1732943.6801763.1732943.986 0l15-8.5c.3133304-.1775479.5069894-.5098623.507-.87v-.5h10c2.209139 0 4-1.790861 4-4v-28c0-2.209139-1.790861-4-4-4zm-54 10.308 1.368 1.282c.40269492.378896.63133176.907076.632 1.46v9.9c.00000995.5527743-.22876112 1.0809024-.632 1.459l-1.368 1.282zm27 32.976-13-7.367v-14.7l13 7.367zm1-16.433-12.971-7.351 12.971-7.351 12.971 7.351zm14 9.066-13 7.367v-14.7l13-7.367zm9-3.917c0 1.1045695-.8954305 2-2 2h-5v-14.5c-.0007226-.3565418-.1912247-.6857295-.5-.864h-.011l-15-8.5c-.3058237-.17329425-.6801763-.17329425-.986 0l-15 8.5h-.011c-.3087753.1782705-.4992774.5074582-.5.864v14.5h-9.992c-1.1045695 0-2-.8954305-2-2v-3.567l2.735-2.565c.80574999-.7567936 1.2634477-1.8125738 1.265-2.918v-9.9c-.00208587-1.1054015-.45925919-2.1611681-1.264-2.919l-2.736-2.564v-3.567c0-1.1045695.8954305-2 2-2h47c1.1045695 0 2 .8954305 2 2zm5 0c0 1.1045695-.8954305 2-2 2h-1.556c.3599241-.6053465.5518554-1.2957468.556-2v-28c-.0041446-.70425323-.1960759-1.39465346-.556-2h1.556c1.1045695 0 2 .8954305 2 2z"/><path id="Shape" d="m55 38.179c-.4534258-.3153546-1.0766454-.2034258-1.392.25s-.2034258 1.0766454.25 1.392c1.89 1.314 4.142 3.452 4.142 6.179 0 6.505-12.822 12-28 12s-28-5.495-28-12c0-1.913 1.505-3.681 3-4.968v1.968c0 .5522847.44771525 1 1 1s1-.4477153 1-1v-4c0-.5522847-.44771525-1-1-1h-5c-.55228475 0-1 .4477153-1 1s.44771525 1 1 1h2.166c-2.093 1.952-3.166 3.965-3.166 6 0 7.851 13.178 14 30 14s30-6.149 30-14c0-2.842-1.729-5.546-5-7.821z"/></g></g></svg>