<?xml version="1.0" encoding="iso-8859-1"?>
<!-- Generator: Adobe Illustrator 19.0.0, SVG Export Plug-In . SVG Version: 6.00 Build 0)  -->
<svg version="1.1" id="Capa_1" xmlns="http://www.w3.org/2000/svg" xmlns:xlink="http://www.w3.org/1999/xlink" x="0px" y="0px"
	 viewBox="0 0 512.001 512.001" style="enable-background:new 0 0 512.001 512.001;" xml:space="preserve">
<g>
	<g>
		<path d="M289.328,290.838c-5.858-5.858-15.356-5.858-21.213,0l-34.836,34.835l-32.154-32.154l-14.799-14.799l34.836-34.836
			c5.858-5.857,5.858-15.355,0-21.213c-5.858-5.857-15.355-5.858-21.213,0l-34.836,34.836l-12.116-12.116
			c-0.007-0.007-0.016-0.014-0.023-0.021l-11.338-11.338c-5.857-5.857-15.355-5.858-21.213,0.001
			c-5.858,5.858-5.858,15.355,0,21.213l0.753,0.753l-46.196,46.198c-33.562,33.562-36.81,86.123-9.764,123.375L4.394,486.393
			c-5.858,5.858-5.858,15.355,0,21.213C7.323,510.536,11.16,512,15,512c3.838,0,7.678-1.465,10.606-4.394l60.811-60.809
			c16.172,11.78,35.583,18.145,55.975,18.145c0.002,0,0,0,0.001,0c25.462,0,49.404-9.917,67.408-27.921l46.201-46.199l0.754,0.753
			c2.929,2.929,6.767,4.393,10.606,4.393s7.678-1.464,10.607-4.393c5.858-5.858,5.858-15.355,0-21.213l-23.476-23.476l34.835-34.835
			C295.186,306.193,295.186,296.696,289.328,290.838z M188.588,415.808c-12.339,12.339-28.745,19.135-46.195,19.135
			c-17.452-0.001-33.859-6.797-46.2-19.137c-25.473-25.474-25.473-66.922,0-92.396l46.197-46.197l35.712,35.711l44.569,44.57
			c0.002,0.003,0.005,0.005,0.008,0.007l12.108,12.109L188.588,415.808z"/>
	</g>
</g>
<g>
	<g>
		<path d="M507.607,4.394c-5.858-5.858-15.355-5.858-21.213-0.001l-60.811,60.809c-16.173-11.78-35.584-18.144-55.976-18.144
			c-25.463,0-49.405,9.917-67.408,27.922L256,121.178l-0.754-0.754c-5.857-5.858-15.355-5.858-21.213,0
			c-5.858,5.858-5.858,15.355,0,21.213l136.33,136.329c2.929,2.929,6.768,4.394,10.606,4.394c3.839,0,7.678-1.464,10.607-4.394
			c5.858-5.858,5.858-15.355,0-21.213l-0.754-0.754l46.198-46.195c33.562-33.561,36.81-86.122,9.765-123.376l60.823-60.821
			C513.466,19.749,513.466,10.252,507.607,4.394z M415.807,188.59l-46.198,46.195l-92.395-92.395l46.198-46.198
			c12.338-12.339,28.744-19.135,46.195-19.135c17.452,0,33.859,6.796,46.199,19.135C441.279,121.668,441.279,163.117,415.807,188.59
			z"/>
	</g>
</g>
<g>
</g>
<g>
</g>
<g>
</g>
<g>
</g>
<g>
</g>
<g>
</g>
<g>
</g>
<g>
</g>
<g>
</g>
<g>
</g>
<g>
</g>
<g>
</g>
<g>
</g>
<g>
</g>
<g>
</g>
</svg>
