<svg width="512.001" height="512.001" xmlns="http://www.w3.org/2000/svg" xml:space="preserve" version="1.1">

 <g>
  <title>Layer 1</title>
  <g id="svg_1">
   <g id="svg_2">
    <path id="svg_3" d="m207.06795,190.10053c-0.007,-0.007 -0.016,-0.014 -0.023,-0.021l-11.338,-11.338c-5.857,-5.857 -15.355,-5.858 -21.213,0.001c-5.858,5.858 -5.858,15.355 0,21.213l0.753,0.753l-46.196,46.198c-33.562,33.562 -36.81,86.123 -9.764,123.375l-60.822,60.821c-5.858,5.858 -5.858,15.355 0,21.213c2.929,2.93 6.766,4.394 10.606,4.394c3.838,0 7.678,-1.465 10.606,-4.394l60.811,-60.809c16.172,11.78 35.583,18.145 55.975,18.145c0.002,0 0,0 0.001,0c25.462,0 49.404,-9.917 67.408,-27.921l46.201,-46.199l0.754,0.753c2.929,2.929 6.767,4.393 10.606,4.393s7.678,-1.464 10.607,-4.393c5.858,-5.858 5.858,-15.355 0,-21.213l-124.972,-124.971zm35.591,170.417c-12.339,12.339 -28.745,19.135 -46.195,19.135c-17.452,-0.001 -33.859,-6.797 -46.2,-19.137c-25.473,-25.474 -25.473,-66.922 0,-92.396l46.197,-46.197l35.712,35.711l44.569,44.57c0.002,0.003 0.005,0.005 0.008,0.007l12.108,12.109l-46.199,46.198z"/>
   </g>
  </g>
  <g id="svg_4">
   <g id="svg_5">
    <path id="svg_6" d="m448.24029,62.54119c-5.858,-5.858 -15.355,-5.858 -21.213,-0.001l-60.811,60.809c-16.173,-11.78 -35.584,-18.144 -55.976,-18.144c-25.463,0 -49.405,9.917 -67.408,27.922l-46.199,46.198l-0.754,-0.754c-5.857,-5.858 -15.355,-5.858 -21.213,0c-5.858,5.858 -5.858,15.355 0,21.213l136.33,136.329c2.929,2.929 6.768,4.394 10.606,4.394c3.839,0 7.678,-1.464 10.607,-4.394c5.858,-5.858 5.858,-15.355 0,-21.213l-0.754,-0.754l46.198,-46.195c33.562,-33.561 36.81,-86.122 9.765,-123.376l60.823,-60.821c5.858,-5.858 5.858,-15.355 -0.001,-21.213zm-91.8,184.196l-46.198,46.195l-92.395,-92.395l46.198,-46.198c12.338,-12.339 28.744,-19.135 46.195,-19.135c17.452,0 33.859,6.796 46.199,19.135c25.473,25.476 25.473,66.925 0.001,92.398z"/>
   </g>
  </g>
  <g id="svg_7"/>
  <g id="svg_8"/>
  <g id="svg_9"/>
  <g id="svg_10"/>
  <g id="svg_11"/>
  <g id="svg_12"/>
  <g id="svg_13"/>
  <g id="svg_14"/>
  <g id="svg_15"/>
  <g id="svg_16"/>
  <g id="svg_17"/>
  <g id="svg_18"/>
  <g id="svg_19"/>
  <g id="svg_20"/>
  <g id="svg_21"/>
 </g>
</svg>