<svg width="475.085" height="475.085" xmlns="http://www.w3.org/2000/svg" xml:space="preserve" version="1.1">

 <g>
  <title>Layer 1</title>
  <g stroke="null" id="svg_1">
   <path stroke="null" id="svg_2" d="m351.74139,251.13225c-12.27029,-15.39534 -26.13759,-23.0889 -41.61175,-23.0889l0,-120.02861c8.12545,0 15.16543,-2.96904 21.09613,-8.90713c5.94301,-5.9389 8.91534,-12.97478 8.91534,-21.09941c0,-8.12874 -2.97233,-15.16051 -8.91534,-21.09941c-5.93069,-5.9389 -12.96985,-8.90877 -21.09613,-8.90877l-150.02775,0c-8.12874,0 -15.16051,2.96986 -21.09941,8.90877c-5.93973,5.9389 -8.90877,12.96985 -8.90877,21.09941c0,8.12792 2.96904,15.16051 8.90877,21.09941c5.9389,5.93808 12.97314,8.90713 21.09941,8.90713l0,120.02532c-15.47252,0 -29.34064,7.69685 -41.6101,23.09136c-12.26782,15.39534 -18.40379,32.69887 -18.40379,51.92703c0,4.06273 1.48534,7.58025 4.4552,10.54847c2.97151,2.96658 6.48739,4.4511 10.55094,4.4511l94.70718,0l17.81589,113.69887c0.78003,4.2212 3.28105,6.3281 7.50061,6.3281l0.23894,0c1.86715,0 3.47729,-0.66344 4.80417,-1.98949c1.32605,-1.32934 2.14632,-2.93291 2.45833,-4.80745l11.95335,-113.22921l100.56808,0c4.06273,0 7.58354,-1.48452 10.54847,-4.4511c2.97315,-2.9674 4.46013,-6.48493 4.46013,-10.54847c0.00246,-19.2257 -6.13925,-36.53169 -18.4079,-51.92703zm-139.12868,-30.58951c0,2.18573 -0.70203,3.98144 -2.11019,5.39042c-1.40652,1.40734 -3.20469,2.11019 -5.39206,2.11019c-2.18573,0 -3.98472,-0.70203 -5.39206,-2.11019c-1.40652,-1.40652 -2.10855,-3.20469 -2.10855,-5.39042l0,-105.02246c0,-2.18737 0.70203,-3.98883 2.10855,-5.39206c1.40734,-1.40488 3.20634,-2.10855 5.39206,-2.10855c2.18737,0 3.98554,0.70121 5.39206,2.10855c1.40734,1.4057 2.11019,3.20469 2.11019,5.39206l0,105.02246z"/>
  </g>
  <g id="svg_3"/>
  <g id="svg_4"/>
  <g id="svg_5"/>
  <g id="svg_6"/>
  <g id="svg_7"/>
  <g id="svg_8"/>
  <g id="svg_9"/>
  <g id="svg_10"/>
  <g id="svg_11"/>
  <g id="svg_12"/>
  <g id="svg_13"/>
  <g id="svg_14"/>
  <g id="svg_15"/>
  <g id="svg_16"/>
  <g id="svg_17"/>
 </g>
</svg>