<svg width="512" height="512" xmlns="http://www.w3.org/2000/svg" xml:space="preserve" version="1.1">

 <g>
  <title>Layer 1</title>
  <g id="svg_1">
   <g id="svg_2">
    <path id="svg_3" d="m335.52732,244.63968c-5.857,-5.857 -15.355,-5.857 -21.213,0l-34.836,34.836l-46.953,-46.953l34.836,-34.836c5.858,-5.857 5.858,-15.355 0,-21.213c-5.857,-5.857 -15.355,-5.857 -21.213,0l-34.836,34.836l-12.115,-12.115c-0.008,-0.008 -11.361,-11.359 -11.361,-11.359c-5.857,-5.857 -15.355,-5.857 -21.213,0c-5.857,5.858 -5.857,15.355 0,21.214l0.753,0.753l-46.196,46.197c-33.563,33.563 -36.81,86.123 -9.764,123.375l-60.823,60.82c-5.858,5.858 -5.858,15.355 0,21.214c2.93,2.929 6.768,4.393 10.607,4.393s7.678,-1.465 10.606,-4.393l60.811,-60.81c16.172,11.78 35.583,18.145 55.975,18.145c0.002,0 0,0 0.001,0c25.462,0 49.403,-9.917 67.407,-27.921l46.202,-46.199l0.753,0.754c2.93,2.929 6.768,4.392 10.607,4.392c3.838,0 7.678,-1.464 10.606,-4.392c5.857,-5.858 5.857,-15.355 -0.001,-21.214l-23.476,-23.476l34.835,-34.836c5.859,-5.857 5.859,-15.354 0.001,-21.212z"/>
   </g>
  </g>
  <g id="svg_4">
   <g id="svg_5">
    <path id="svg_6" d="m463.77097,48.23103c-5.857,-5.858 -15.355,-5.858 -21.214,0l-60.811,60.808c-16.173,-11.779 -35.584,-18.144 -55.977,-18.144c-25.463,0 -49.404,9.918 -67.408,27.922l-46.197,46.199l-0.755,-0.755c-5.857,-5.857 -15.355,-5.857 -21.213,0.001c-5.857,5.857 -5.857,15.355 0,21.213l136.33,136.329c2.93,2.929 6.768,4.393 10.607,4.393c3.838,0 7.678,-1.464 10.605,-4.393c5.858,-5.858 5.858,-15.355 0,-21.213l-0.754,-0.755l46.197,-46.195c33.563,-33.561 36.81,-86.121 9.766,-123.375l60.822,-60.821c5.859,-5.858 5.859,-15.355 0.002,-21.214z"/>
   </g>
  </g>
  <g id="svg_7"/>
  <g id="svg_8"/>
  <g id="svg_9"/>
  <g id="svg_10"/>
  <g id="svg_11"/>
  <g id="svg_12"/>
  <g id="svg_13"/>
  <g id="svg_14"/>
  <g id="svg_15"/>
  <g id="svg_16"/>
  <g id="svg_17"/>
  <g id="svg_18"/>
  <g id="svg_19"/>
  <g id="svg_20"/>
  <g id="svg_21"/>
 </g>
</svg>