<svg width="512" height="512" xmlns="http://www.w3.org/2000/svg">

 <g>
  <title>Layer 1</title>
  <g id="svg_1">
   <path id="svg_2" d="m476,40l-440,0a28.031,28.031 0 0 0 -28,28l0,312a28.031,28.031 0 0 0 28,28l162.24,0l-4.8,24l-41.44,0a8,8 0 0 0 -8,8l0,24a8,8 0 0 0 8,8l208,0a8,8 0 0 0 8,-8l0,-24a8,8 0 0 0 -8,-8l-41.44,0l-4.8,-24l162.24,0a28.031,28.031 0 0 0 28,-28l0,-312a28.031,28.031 0 0 0 -28,-28zm-124,408l0,8l-192,0l0,-8l192,0zm-142.24,-16l4.8,-24l82.88,0l4.8,24l-92.48,0zm278.24,-52a12.01,12.01 0 0 1 -12,12l-440,0a12.01,12.01 0 0 1 -12,-12l0,-12l464,0l0,12zm0,-28l-464,0l0,-284a12.01,12.01 0 0 1 12,-12l440,0a12.01,12.01 0 0 1 12,12l0,284z"/>
   <path id="svg_3" d="m48,195.38115l80,0a8,8 0 0 0 8,-8l0,-80a8,8 0 0 0 -8,-8l-80,0a8,8 0 0 0 -8,8l0,80a8,8 0 0 0 8,8zm8,-80l64,0l0,64l-64,0l0,-64z"/>
   <path id="svg_4" d="m48,307.38115l80,0a8,8 0 0 0 8,-8l0,-80a8,8 0 0 0 -8,-8l-80,0a8,8 0 0 0 -8,8l0,80a8,8 0 0 0 8,8zm8,-80l64,0l0,64l-64,0l0,-64z"/>
   <path id="svg_5" d="m160,195.38115l80,0a8,8 0 0 0 8,-8l0,-80a8,8 0 0 0 -8,-8l-80,0a8,8 0 0 0 -8,8l0,80a8,8 0 0 0 8,8zm8,-80l64,0l0,64l-64,0l0,-64z"/>
   <path id="svg_6" d="m160,307.38115l80,0a8,8 0 0 0 8,-8l0,-80a8,8 0 0 0 -8,-8l-80,0a8,8 0 0 0 -8,8l0,80a8,8 0 0 0 8,8zm8,-80l64,0l0,64l-64,0l0,-64z"/>
   <path id="svg_7" d="m272,195.38115l80,0a8,8 0 0 0 8,-8l0,-80a8,8 0 0 0 -8,-8l-80,0a8,8 0 0 0 -8,8l0,80a8,8 0 0 0 8,8zm8,-80l64,0l0,64l-64,0l0,-64z"/>
   <path id="svg_8" d="m384,195.38115l80,0a8,8 0 0 0 8,-8l0,-80a8,8 0 0 0 -8,-8l-80,0a8,8 0 0 0 -8,8l0,80a8,8 0 0 0 8,8zm8,-80l64,0l0,64l-64,0l0,-64z"/>
   <path id="svg_10" d="m272,307.19114l80,0a8,8 0 0 0 8,-8l0,-80a8,8 0 0 0 -8,-8l-80,0a8,8 0 0 0 -8,8l0,80a8,8 0 0 0 8,8zm8,-80l64,0l0,64l-64,0l0,-64z"/>
   <path id="svg_11" d="m384,307.19114l80,0a8,8 0 0 0 8,-8l0,-80a8,8 0 0 0 -8,-8l-80,0a8,8 0 0 0 -8,8l0,80a8,8 0 0 0 8,8zm8,-80l64,0l0,64l-64,0l0,-64z"/>
  </g>
 </g>
</svg>