<svg width="512" height="512" xmlns="http://www.w3.org/2000/svg" xml:space="preserve" version="1.1">

 <g>
  <title>Layer 1</title>
  <g stroke="null" id="svg_1">
   <g stroke="null" id="svg_2">
    <path stroke="null" id="svg_3" d="m454.07035,103.79545c-9.63657,-0.8786 -18.1589,6.22115 -19.0375,15.85685l-2.32133,25.46363c-39.38283,-61.84888 -107.74719,-103.1895 -186.96046,-103.1895c-85.21543,0 -160.31339,48.63572 -197.59301,121.63222c-4.40088,8.61694 -0.98284,19.16977 7.6341,23.57066c8.61869,4.40088 19.16977,0.98372 23.57066,-7.6341c31.54988,-61.77705 94.90631,-102.5299 166.38826,-102.5299c65.15217,0 123.94917,33.92727 157.63379,87.07863l-24.98009,-17.84092c-7.87411,-5.62286 -18.81588,-3.79909 -24.43874,4.07415c-5.62286,7.87411 -3.79909,18.815 4.07415,24.43874l75.74968,54.10091c11.10207,7.91441 26.41494,0.66924 27.62903,-12.66568l8.50656,-93.3173c0.87948,-9.63657 -6.2194,-18.15978 -15.85509,-19.03838z"/>
   </g>
  </g>
  <g stroke="null" id="svg_4">
   <g stroke="null" id="svg_5">
    <path stroke="null" id="svg_6" d="m457.2755,323.55394c-8.5568,-4.36886 -19.03406,-0.97588 -23.40379,7.58005c-31.32653,61.3397 -94.23443,101.80404 -165.21032,101.80404c-64.69093,0 -123.07167,-33.68709 -156.51783,-86.46216l24.80325,17.71462c7.81837,5.58306 18.6818,3.7722 24.26573,-4.0453c5.58306,-7.81837 3.7722,-18.6818 -4.0453,-24.26573l-75.21341,-53.7179c-10.88866,-7.77923 -26.21576,-0.80106 -27.43343,12.57601l-8.44634,92.65666c-0.87238,9.56748 6.17711,18.03034 15.74372,18.90272c9.57965,0.87064 18.03121,-6.18581 18.90272,-15.74459l2.30489,-25.28336c39.10315,61.41189 106.98352,102.45985 185.63601,102.45985c84.61215,0 159.17846,-48.2914 196.19416,-120.77113c4.36973,-8.55593 0.97588,-19.03406 -7.58005,-23.40379z"/>
   </g>
  </g>
  <g id="svg_7"/>
  <g id="svg_8"/>
  <g id="svg_9"/>
  <g id="svg_10"/>
  <g id="svg_11"/>
  <g id="svg_12"/>
  <g id="svg_13"/>
  <g id="svg_14"/>
  <g id="svg_15"/>
  <g id="svg_16"/>
  <g id="svg_17"/>
  <g id="svg_18"/>
  <g id="svg_19"/>
  <g id="svg_20"/>
  <g id="svg_21"/>
 </g>
</svg>