<?xml version="1.0" encoding="iso-8859-1"?>
<!-- Generator: Adobe Illustrator 19.0.0, SVG Export Plug-In . SVG Version: 6.00 Build 0)  -->
<svg version="1.1" id="Capa_1" xmlns="http://www.w3.org/2000/svg" xmlns:xlink="http://www.w3.org/1999/xlink" x="0px" y="0px"
	 viewBox="0 0 512.01 512.01" style="enable-background:new 0 0 512.01 512.01;" xml:space="preserve">
<g>
	<g>
		<path d="M508.885,323.119L231.552,45.786c-3.051-3.029-7.637-3.947-11.627-2.304c-3.989,1.643-6.592,5.547-6.592,9.856v384
			c0,4.032,2.304,7.723,5.909,9.536c3.605,1.792,7.936,1.429,11.157-1.003l75.115-56.32l58.283,116.565
			c1.877,3.733,5.632,5.888,9.536,5.888c1.6,0,3.221-0.363,4.779-1.131l85.333-42.667c5.269-2.645,7.403-9.045,4.779-14.315
			l-56.299-112.555h89.408c4.309,0,8.192-2.603,9.856-6.592C512.853,330.757,511.936,326.17,508.885,323.119z M394.667,320.005
			c-3.691,0-7.125,1.92-9.109,5.056c-1.92,3.136-2.091,7.061-0.448,10.368l59.221,118.464l-66.24,33.131l-59.221-118.464
			c-1.408-2.837-4.011-4.885-7.083-5.611c-0.811-0.192-1.643-0.277-2.453-0.277c-2.283,0-4.544,0.747-6.4,2.133l-68.267,51.2V79.087
			l240.917,240.917H394.667z"/>
	</g>
</g>
<g>
	<g>
		<g>
			<path d="M117.333,341.338H74.667c-5.888,0-10.667,4.779-10.667,10.667c0,5.888,4.779,10.667,10.667,10.667h42.667
				c5.888,0,10.667-4.779,10.667-10.667C128,346.117,123.221,341.338,117.333,341.338z"/>
			<path d="M202.667,341.338H160c-5.888,0-10.667,4.779-10.667,10.667c0,5.888,4.779,10.667,10.667,10.667h42.667
				c5.888,0,10.667-4.779,10.667-10.667C213.333,346.117,208.555,341.338,202.667,341.338z"/>
		</g>
	</g>
</g>
<g>
	<g>
		<path d="M32,341.338H21.333v-10.667c0-5.888-4.779-10.667-10.667-10.667S0,324.783,0,330.671v21.333
			c0,5.888,4.779,10.667,10.667,10.667H32c5.888,0,10.667-4.779,10.667-10.667C42.667,346.117,37.888,341.338,32,341.338z"/>
	</g>
</g>
<g>
	<g>
		<g>
			<path d="M10.667,234.671C4.779,234.671,0,239.45,0,245.338v42.667c0,5.888,4.779,10.667,10.667,10.667
				s10.667-4.779,10.667-10.667v-42.667C21.333,239.45,16.555,234.671,10.667,234.671z"/>
			<path d="M10.667,149.338C4.779,149.338,0,154.117,0,160.005v42.667c0,5.888,4.779,10.667,10.667,10.667
				s10.667-4.779,10.667-10.667v-42.667C21.333,154.117,16.555,149.338,10.667,149.338z"/>
			<path d="M10.667,64.005C4.779,64.005,0,68.783,0,74.671v42.667c0,5.888,4.779,10.667,10.667,10.667s10.667-4.779,10.667-10.667
				V74.671C21.333,68.783,16.555,64.005,10.667,64.005z"/>
		</g>
	</g>
</g>
<g>
	<g>
		<path d="M32,0.005H10.667C4.779,0.005,0,4.783,0,10.671v21.333c0,5.888,4.779,10.667,10.667,10.667s10.667-4.779,10.667-10.667
			V21.338H32c5.888,0,10.667-4.779,10.667-10.667S37.888,0.005,32,0.005z"/>
	</g>
</g>
<g>
	<g>
		<g>
			<path d="M117.333,0.005H74.667C68.779,0.005,64,4.783,64,10.671s4.779,10.667,10.667,10.667h42.667
				c5.888,0,10.667-4.779,10.667-10.667S123.221,0.005,117.333,0.005z"/>
			<path d="M288,0.005h-42.667c-5.888,0-10.667,4.779-10.667,10.667s4.779,10.667,10.667,10.667H288
				c5.888,0,10.667-4.779,10.667-10.667S293.888,0.005,288,0.005z"/>
			<path d="M202.667,0.005H160c-5.888,0-10.667,4.779-10.667,10.667S154.112,21.338,160,21.338h42.667
				c5.888,0,10.667-4.779,10.667-10.667S208.555,0.005,202.667,0.005z"/>
		</g>
	</g>
</g>
<g>
	<g>
		<path d="M352,0.005h-21.333C324.779,0.005,320,4.783,320,10.671s4.779,10.667,10.667,10.667h10.667v10.667
			c0,5.888,4.779,10.667,10.667,10.667c5.888,0,10.667-4.779,10.667-10.667V10.671C362.667,4.783,357.888,0.005,352,0.005z"/>
	</g>
</g>
<g>
	<g>
		<path d="M352,64.005c-5.888,0-10.667,4.779-10.667,10.667v42.667c0,5.888,4.779,10.667,10.667,10.667
			c5.888,0,10.667-4.779,10.667-10.667V74.671C362.667,68.783,357.888,64.005,352,64.005z"/>
	</g>
</g>
<g>
	<g>
		<path d="M352,149.338c-5.888,0-10.667,4.779-10.667,10.667v21.333c0,5.888,4.779,10.667,10.667,10.667
			c5.888,0,10.667-4.779,10.667-10.667v-21.333C362.667,154.117,357.888,149.338,352,149.338z"/>
	</g>
</g>
<g>
</g>
<g>
</g>
<g>
</g>
<g>
</g>
<g>
</g>
<g>
</g>
<g>
</g>
<g>
</g>
<g>
</g>
<g>
</g>
<g>
</g>
<g>
</g>
<g>
</g>
<g>
</g>
<g>
</g>
</svg>
