<svg width="23.999999999999996" height="23.999999999999996" xmlns="http://www.w3.org/2000/svg" enable-background="new 0 0 24 24">

 <g>
  <title>Layer 1</title>
  <path stroke="null" id="svg_1" d="m20.90805,9.76871l-1.5541,-0.19757c-0.12813,-0.39431 -0.28602,-0.77457 -0.47036,-1.13582l0.95974,-1.23584c0.38853,-0.50012 0.34306,-1.20608 -0.10085,-1.63594l-1.30197,-1.30197c-0.43399,-0.44804 -1.13995,-0.49268 -1.6409,-0.10498l-1.23419,0.95974c-0.36125,-0.18434 -0.7415,-0.34223 -1.13664,-0.47036l-0.19757,-1.55162c-0.0744,-0.62247 -0.60263,-1.09118 -1.2284,-1.09118l-1.85169,0c-0.62577,0 -1.154,0.46871 -1.2284,1.0887l-0.19757,1.5541c-0.39514,0.12813 -0.7754,0.28519 -1.13664,0.47036l-1.23501,-0.95974c-0.4993,-0.3877 -1.20525,-0.34306 -1.63594,0.10085l-1.30197,1.30115c-0.44804,0.43482 -0.49351,1.14078 -0.10498,1.64173l0.95974,1.23501c-0.18517,0.36125 -0.34223,0.7415 -0.47036,1.13582l-1.55162,0.19757c-0.62247,0.0744 -1.09118,0.60263 -1.09118,1.2284l0,1.85169c0,0.62577 0.46871,1.154 1.0887,1.2284l1.5541,0.19757c0.12813,0.39431 0.28602,0.77457 0.47036,1.13582l-0.95974,1.23584c-0.38853,0.50012 -0.34306,1.20608 0.10085,1.63594l1.30197,1.30197c0.43482,0.44722 1.13995,0.49186 1.6409,0.10416l1.23501,-0.95974c0.36125,0.18517 0.7415,0.34306 1.13582,0.47036l0.19757,1.55079c0.0744,0.62412 0.60263,1.09283 1.2284,1.09283l1.85169,0c0.62577,0 1.154,-0.46871 1.2284,-1.0887l0.19757,-1.5541c0.39431,-0.12813 0.77457,-0.28602 1.13582,-0.47036l1.23584,0.95974c0.50012,0.38853 1.20608,0.34306 1.63594,-0.10085l1.30197,-1.30197c0.44804,-0.43482 0.49351,-1.13995 0.10498,-1.6409l-0.95974,-1.23501c0.18517,-0.36125 0.34306,-0.7415 0.47036,-1.13582l1.55079,-0.19757c0.62247,-0.0744 1.09118,-0.60263 1.09118,-1.2284l0,-1.85169c0.00083,-0.62577 -0.46788,-1.154 -1.08787,-1.2284zm-8.8311,6.2875c-2.27907,0 -4.13325,-1.85417 -4.13325,-4.13325s1.85417,-4.13325 4.13325,-4.13325s4.13325,1.85417 4.13325,4.13325s-1.85417,4.13325 -4.13325,4.13325z"/>
 </g>
</svg>