<svg id="Icons" height="512" viewBox="0 0 74 74" width="512" xmlns="http://www.w3.org/2000/svg"><path d="m71 18h-14a1 1 0 0 1 -1-1v-14a1 1 0 0 1 1-1h14a1 1 0 0 1 1 1v14a1 1 0 0 1 -1 1zm-13-2h12v-12h-12z"/><path d="m17 18h-14a1 1 0 0 1 -1-1v-14a1 1 0 0 1 1-1h14a1 1 0 0 1 1 1v14a1 1 0 0 1 -1 1zm-13-2h12v-12h-12z"/><path d="m71 72h-14a1 1 0 0 1 -1-1v-14a1 1 0 0 1 1-1h14a1 1 0 0 1 1 1v14a1 1 0 0 1 -1 1zm-13-2h12v-12h-12z"/><path d="m17 72h-14a1 1 0 0 1 -1-1v-14a1 1 0 0 1 1-1h14a1 1 0 0 1 1 1v14a1 1 0 0 1 -1 1zm-13-2h12v-12h-12z"/><path d="m57 10.656h-40a1 1 0 0 1 0-2h40a1 1 0 0 1 0 2z"/><path d="m57 66h-40a1 1 0 0 1 0-2h40a1 1 0 0 1 0 2z"/><path d="m64 58a1 1 0 0 1 -1-1v-40a1 1 0 0 1 2 0v40a1 1 0 0 1 -1 1z"/><path d="m10 58a1 1 0 0 1 -1-1v-40a1 1 0 0 1 2 0v40a1 1 0 0 1 -1 1z"/><path d="m34.386 35.386a1 1 0 0 1 -.707-.293l-13.074-13.073a1 1 0 0 1 1.415-1.415l13.073 13.074a1 1 0 0 1 -.707 1.707z"/><path d="m21.312 28.8a1 1 0 0 1 -1-1v-6.488a1 1 0 0 1 1-1h6.488a1 1 0 0 1 0 2h-5.488v5.488a1 1 0 0 1 -1 1z"/><path d="m52.687 53.688a1 1 0 0 1 -.707-.293l-13.073-13.074a1 1 0 0 1 1.414-1.414l13.079 13.073a1 1 0 0 1 -.708 1.708z"/><path d="m52.687 53.688h-6.482a1 1 0 0 1 0-2h5.482v-5.483a1 1 0 0 1 2 0v6.483a1 1 0 0 1 -1 1z"/><path d="m21.312 53.688a1 1 0 0 1 -.707-1.708l13.074-13.073a1 1 0 0 1 1.414 1.414l-13.073 13.079a1 1 0 0 1 -.708.288z"/><path d="m27.8 53.688h-6.488a1 1 0 0 1 -1-1v-6.483a1 1 0 0 1 2 0v5.483h5.488a1 1 0 0 1 0 2z"/><path d="m39.614 35.386a1 1 0 0 1 -.707-1.707l13.073-13.074a1 1 0 1 1 1.42 1.415l-13.079 13.073a1 1 0 0 1 -.707.293z"/><path d="m52.687 28.794a1 1 0 0 1 -1-1v-5.482h-5.482a1 1 0 0 1 0-2h6.482a1 1 0 0 1 1 1v6.482a1 1 0 0 1 -1 1z"/></svg>